<mxfile host="app.diagrams.net" modified="2023-04-28T14:47:44.677Z" agent="Mozilla/5.0 (Macintosh; Intel Mac OS X 10.15; rv:109.0) Gecko/20100101 Firefox/112.0" etag="VBCysPmv2AXbwI7Yr9sf" version="21.1.7" type="device">
  <diagram name="Page-1" id="5nrf9KDPvLZY0f8jXxMl">
    <mxGraphModel dx="1911" dy="1154" grid="1" gridSize="10" guides="1" tooltips="1" connect="1" arrows="1" fold="1" page="1" pageScale="1" pageWidth="850" pageHeight="1100" math="1" shadow="0">
      <root>
        <mxCell id="0" />
        <mxCell id="1" parent="0" />
        <mxCell id="x64TNAXHmk-uSslNR3HU-35" value="" style="shape=image;verticalLabelPosition=bottom;labelBackgroundColor=default;verticalAlign=top;aspect=fixed;imageAspect=0;image=data:image/png,iVBORw0KGgoAAAANSUhEUgAABoEAAAGFCAYAAAAy81qxAAABQWlDQ1BJQ0MgUHJvZmlsZQAAKJFjYGASSCwoyGFhYGDIzSspCnJ3UoiIjFJgf87AwsDNwMvAysCbmFxc4BgQ4ANUwgCjUcG3awyMIPqyLsgsp8LGk+0cxcsY4qWVwqW+LcZUjwK4UlKLk4H0HyBOTi4oKmFgYEwAspXLSwpA7BYgW6QI6CggewaInQ5hrwGxkyDsA2A1IUHOQPYVIFsgOSMxBch+AmTrJCGJpyOxofaCAKdHgIKRUXJ5IgG3kgxKUitKQLRzfkFlUWZ6RomCIzCEUhU885L1dBSMDIyMGRhA4Q1R/fkGOBwZxTgQYqltDAzGQL8y8iLEMiczMOz8APRCJEJMfS8DgxDQzwePFyQWIfzB+I2lOM3YCMLm3s7AwDrt///P4QwM7JoMDH+v////e/v//3+XMTAw32JgOPANANW8XfMnenEoAAAAemVYSWZNTQAqAAAACAAEAQYAAwAAAAEAAgAAARIAAwAAAAEAAQAAASgAAwAAAAEAAgAAh2kABAAAAAEAAAA+AAAAAAADkoYABwAAABIAAABooAIABAAAAAEAAAaBoAMABAAAAAEAAAGFAAAAAEFTQ0lJAAAAU2NyZWVuc2hvdJaUoMMAAALwaVRYdFhNTDpjb20uYWRvYmUueG1wAAAAAAA8eDp4bXBtZXRhIHhtbG5zOng9ImFkb2JlOm5zOm1ldGEvIiB4OnhtcHRrPSJYTVAgQ29yZSA2LjAuMCI+CiAgIDxyZGY6UkRGIHhtbG5zOnJkZj0iaHR0cDovL3d3dy53My5vcmcvMTk5OS8wMi8yMi1yZGYtc3ludGF4LW5zIyI+CiAgICAgIDxyZGY6RGVzY3JpcHRpb24gcmRmOmFib3V0PSIiCiAgICAgICAgICAgIHhtbG5zOnRpZmY9Imh0dHA6Ly9ucy5hZG9iZS5jb20vdGlmZi8xLjAvIgogICAgICAgICAgICB4bWxuczpleGlmPSJodHRwOi8vbnMuYWRvYmUuY29tL2V4aWYvMS4wLyI+CiAgICAgICAgIDx0aWZmOkNvbXByZXNzaW9uPjE8L3RpZmY6Q29tcHJlc3Npb24+CiAgICAgICAgIDx0aWZmOlJlc29sdXRpb25Vbml0PjI8L3RpZmY6UmVzb2x1dGlvblVuaXQ+CiAgICAgICAgIDx0aWZmOlBob3RvbWV0cmljSW50ZXJwcmV0YXRpb24+MjwvdGlmZjpQaG90b21ldHJpY0ludGVycHJldGF0aW9uPgogICAgICAgICA8dGlmZjpPcmllbnRhdGlvbj4xPC90aWZmOk9yaWVudGF0aW9uPgogICAgICAgICA8ZXhpZjpQaXhlbFhEaW1lbnNpb24+MTY2NTwvZXhpZjpQaXhlbFhEaW1lbnNpb24+CiAgICAgICAgIDxleGlmOlVzZXJDb21tZW50PlNjcmVlbnNob3Q8L2V4aWY6VXNlckNvbW1lbnQ+CiAgICAgICAgIDxleGlmOlBpeGVsWURpbWVuc2lvbj4zODk8L2V4aWY6UGl4ZWxZRGltZW5zaW9uPgogICAgICA8L3JkZjpEZXNjcmlwdGlvbj4KICAgPC9yZGY6UkRGPgo8L3g6eG1wbWV0YT4KSTwl/QAAQABJREFUeAHsnQecFEXahwsEAVFMBJEkSBARATEHRBQTqKgYMZ2KimLO8UwYTsF8JkyInAkDoqciCmY/VMwCShBRFEEEAQWF+fpfWn09vT0zPbOzuzOzT/1+u9OhusJToavrrfetGgnPGRwEIAABCEAAAhCAAAQgAAEIQAACEIAABCAAAQhAAAIQgEBJEahZUrkhMxCAAAQgAAEIQAACEIAABCAAAQhAAAIQgAAEIAABCEAAApYAQiAqAgQgAAEIQAACEIAABCAAAQhAAAIQgAAEIAABCEAAAhAoQQIIgUqwUMkSBCAAAQhAAAIQgAAEIAABCEAAAhCAAAQgAAEIQAACEEAIRB2AAAQgAAEIQAACEIAABCAAAQhAAAIQgAAEIAABCEAAAiVIACFQCRYqWYIABCAAAQhAAAIQgAAEIAABCEAAAhCAAAQgAAEIQAACCIGoAxCAAAQgAAEIQAACEIAABCAAAQhAAAIQgAAEIAABCECgBAkgBCrBQiVLEIAABCAAAQhAAAIQgAAEIAABCEAAAhCAAAQgAAEIQAAhEHUAAhCAAAQgAAEIQAACEIAABCAAAQhAAAIQgAAEIAABCJQgAYRAJVioZAkCEIAABCAAAQhAAAIQgAAEIAABCEAAAhCAAAQgAAEIIASiDkAAAhCAAAQgAAEIQAACEIAABCAAAQhAAAIQgAAEIACBEiSAEKgEC5UsQQACEIAABCAAAQhAAAIQgAAEIAABCEAAAhCAAAQgAAGEQNQBCEAAAhCAAAQgAAEIQAACEIAABCAAAQhAAAIQgAAEIFCCBBAClWChkiUIQAACEIAABCAAAQhAAAIQgAAEIAABCEAAAhCAAAQggBCIOgABCEAAAhCAAAQgAAEIQAACEIAABCAAAQhAAAIQgAAESpAAQqASLFSyBAEIQAACEIAABCAAAQhAAAIQgAAEIAABCEAAAhCAAAQQAlEHIAABCEAAAhCAAAQgAAEIQAACEIAABCAAAQhAAAIQgEAJEkAIVIKFSpYgAAEIQAACEIAABCAAAQhAAAIQgAAEIAABCEAAAhCAAEIg6gAEIAABCEAAAhCAAAQgAAEIQAACEIAABCAAAQhAAAIQKEECCIFKsFDJEgQgAAEIQAACEIAABCAAAQhAAAIQgAAEIAABCEAAAhBACEQdgAAEIAABCEAAAhCAAAQgAAEIQAACEIAABCAAAQhAAAIlSAAhUAkWKlmCAAQgAAEIQAACEIAABCAAAQhAAAIQgAAEIAABCEAAAgiBqAMQgAAEIAABCEAAAhCAAAQgAAEIQAACEIAABCAAAQhAoAQJIAQqwUIlSxCAAAQgAAEIQAACEIAABCAAAQhAAAIQgAAEIAABCEAAIRB1AAIQgAAEIAABCEAAAhCAAAQgAAEIQAACEIAABCAAAQiUIAGEQCVYqGQJAhCAAAQgAAEIQAACEIAABCAAAQhAAAIQgAAEIAABCCAEog5AAAIQgAAEIAABCEAAAhCAAAQgAAEIQAACEIAABCAAgRIkgBCoBAuVLEEAAhCAAAQgAAEIQAACEIAABCAAAQhAAAIQgAAEIAABhEDUAQhAAAIQgAAEIAABCEAAAhCAAAQgAAEIQAACEIAABCBQggQQApVgoZIlCEAAAhCAAAQgAAEIQAACEIAABCAAAQhAAAIQgAAEIIAQiDoAAQhAAAIQgAAEIAABCEAAAhCAAAQgAAEIQAACEIAABEqQAEKgEixUsgQBCEAAAhCAAAQgAAEIQAACEIAABCAAAQhAIBOBkSNHmqFDh5rFixeb5cuXmz59+pjevXubqVOnZno08n5UGPmOIzLimBcXLVpk9t13X9O3b1/zww8/xHyqarytWrWqaiIm1pIjUKvkckSGIAABCEAAAhCAAAQgAAEIQAACEIAABCAAAQhAwBLo1KmTFXhceeWV5pRTTvGpfPHFF2bw4MH2vFmzZmavvfYyb731lj2fO3eu6dChg+837sHvv/+eFMbKlSvzHkfctET5kxDo9ddft7fmzZtnNthggzLedt55Z/P111/71+vXr2/atm1rDjjgAHPccceZGjVq+Pcq4mDKlCnm5JNPNh9++KHZaKONzEcffVQR0RBmNSKAEKgaFTZZhQAEIAABCEAAAhCAAAQgAAEIQAACEIAABKoXAWn5SBjzyy+/JGW8efPmpmXLllao0bFjx6R7+TqpjDjylVYXzowZM8zSpUtNzZp/GdHSsQRGb7/9tnn44YfNyy+/bOrUqeO85/X35ptvNtdcc41ZsWKFDffPP//Ma/gEVj0JIASqnuVOriEAAQhAAAIQgAAEIAABCEAAAhCAAAQgAIFqTKBBgwZWqCHtnc0228wsWbKkDA2ZTJNQxAlz5EH+P/jgA/Ptt9+a9u3bmy5dupjVVlutzLO6kCkOabnI9Fznzp3NpptumhTGH3/8YT7//HMjzZjGjRvbeNZff/2s/fz4449WgLPuuutaoVdSAGlOzj//fHPWWWfZ9F133XVm7Nix5uOPPzbSqBoyZIj/ZJx0Llu2zLz//vtmzpw5RppZYhbl7r77blO3bl3TokULM3369CgvXINA1gQQAmWNjAcgAAEIQAACEIAABCAAAQhAAAIQgAAEIAABCBQ3AWkIyfSZ3LPPPmu6du2alKHZs2ebHXfc0e4XtPvuu5vHH3/cvPPOO+bYY481MhfnnARITzzxhGnatKm75P+mi+Occ85JMrt27rnnmosvvtg+K1NoimfWrFl+WBKOXH755eakk06K7Udplsk7p1kjs3fZuNq1a1sBmfY1EisJgXTshEBx0jlx4kQzcOBAq03k4j7++OPNjTfe6E7932uvvdb07NnTagMhBPKxcFBOAn/ptJUzEB6HAAQgAAEIQAACEIAABCAAAQhAAAIQgAAEIACB4iGQSCT8xAaPdVFmyI488kgrAJJw59Zbb7WCFO2JIwFQjx49jIQ2jRo1Mp999pkvvPED/PsgGG7wWLe1787GG29s1l57betbcfz66682HsUtAVDDhg3NgAEDTOvWra0GkoREX375ZSw/Cuvss8+2ftdZZx3TrVs389133/2dsux/DjnkEPuQ9hWaP39+rDRIA8gJgGRCbs899zRNmjQx06ZNi0xAv379jNKKg0A+CaAJlE+ahAUBCEAAAhCAAAQgAAEIQAACEIAABCAAAQhAoMgJSNNFWi8y5zZ69GizwQYbWHNo33//vTVX9uijj5o11ljD1K9f32rnvPnmm1nn+Oijjza33HKLkabMfvvtZ5YvX25Nz82cOdMX1jzzzDNWE0f7GW2yySZWEKT0SPvICXRS+dE+RxIEyT311FNmiy22MHfccUdKgVWmDEgg5ZxMzCnPmdKgdGo/ITmlW5pVEgwpjzgIVBYBNIEqizTxQAACEIAABCAAAQhAAAIQgAAEIAABCEAAAhAoAgKTJ0+2qezVq5e/V4/27pHTnkAbbrih1ViReTa5n3/+2f5m82///fe33iWscU5CGxfPeuutZ4U9uiftmHbt2llv2osojh9nSk7hSAAkt88++9jfXP5pfyTnNtpoo1hp+Oqrr+wj9erVM9ttt509lvBM+wLhIFBZBNAEqizSxAMBCEAAAhCAAAQgAAEIQAACEIAABCAAAQhAoAgIdOnSxWoCaa+gt956y+ywww7GmXNbffXVrYm2YDZatGgRPM3qeLXVVkvy7+KRSbqgc+faGyiOn1WrVtnH3XM6qVGjRjDIrI7FQk4m8KQBFScNf/zxh31GzML5tDf4B4FKIIAmUCVAJgoIQAACEIAABCAAAQhAAAIQgAAEIAABCEAAAsVC4IILLjDNmjWzgo5TTjnF7n+j/XvkJFQ58cQTzU033WT/hg0bZs/zlbe2bdvaoBYvXmzGjx9vj7UPkNP+keZQHD/S1pFTOK+88oo9VpqzdXPmzDGDBg0yH3zwgX1UexTJxUmD86N9hF588UX73JQpU8xdd91lj/kHgcogUMOTWP5vB7DKiJE4IAABCEAAAhCAAAQgAAEIQAACEIAABCAAAQhAoFIISEvH7Y0TjFAm37p162YvaV8dHbdq1co/1x49hxxyiD0fPHiwueSSS6yfuXPn2r2Ctt9+eysQ+uijj4yOR4wYYSTsCIYRDjN83rNnT7NgwQLjBExjx441W265penatauR+TVp/WgvIJlVW7p0qWncuLHVUJJGTyY/mvZu3769WbJkialdu7ZZd911/f15lKnXX3/dbL755jZ/wX+Ol7R3atasac3fufudO3e2gindk1m8OGnQvkAyl1erVi3TvHlzI3N2Mk83btw4F6z/K3N1EnapvH777Tcbv/YiatKkiXnjjTd8fxxAIBsCaAJlQwu/EIAABCAAAQhAAAIQgAAEIAABCEAAAhCAAASKiIAECKmchBxyEpJISBE832OPPYzbt+e+++6zAplRo0bZ/WykXSPNFmnYSDjTvXt3G044jEzneijop06dOjaeRx991O5FJEGLhEzLli2zApcxY8YY7a8j4VAmP9p7Z/jw4VZgJbNsEjYdeOCB/t5CijfKOV4rVqywGlA6l9Dm+uuvNxMnTjQSAMnFTcPIkSONBEvSoNI+Rcqj4xqOf968eVZQJQGQnEzauWthv5xDIC4BNIHiksIfBCAAAQhAAAIQgAAEIAABCEAAAhCAAAQgAIESIiBtHwkaJFiRC5/rmoQ8EhI54YeuSeNHAg0JWtq0aZO03004jEznCi/sR9fkFI80Z1q3bm334fnravL/TH6kESTtGglitJePBEL6U9rz5TKlQfFIg0oaQe3atUtima80EA4EUhFACJSKDNchAAEIQAACEIAABCAAAQhAAAIQgAAEIAABCEAAAhCAQBETwBxcERceSYcABCAAAQhAAAIQgAAEIAABCEAAAhCAAAQgAAEIQAACqQggBEpFhusQgAAEIAABCEAAAhCAAAQgAAEIQAACEIAABCAAAQhAoIgJIAQq4sIj6RCAAAQgAAEIQAACEIAABCAAAQhAAAIQgAAEIAABCEAgFQGEQKnIcB0CEIAABCAAAQhAAAIQgAAEIAABCEAAAhCAAAQgAAEIFDEBhEBFXHgkHQIQgAAEIAABCEAAAhCAAAQgAAEIQAACEIAABCAAAQikIoAQKBUZrkMAAhCAAAQgAAEIQAACEIAABCAAAQhAAAIQgAAEIACBIiaAEKiIC4+kQwACEIAABCAAAQhAAAIQgAAEIAABCEAAAhCAAAQgAIFUBBACpSLDdQhAAAIQgAAEIAABCEAAAhCAAAQgAAEIQAACEIAABCBQxAQQAhVx4ZF0CEAAAhCAAAQgAAEIQAACEIAABCAAAQhAAAIQgAAEIJCKAEKgVGS4DgEIQAACEIAABCAAAQhAAAIQgAAEIAABCEAAAnkhMHLkSDN06FCzePFis3z5ctOnTx/Tu3dvM3Xq1DLneYmQQCAAAUsAIRAVAQIQgAAEIAABCEAAAhCAAAQgAAEIQAACEIAABNIS6N+/v1lvvfXMnnvumeTvrLPOstebNWtmfvjhB//e559/bpo0aWIaNWpkvvjiCzN48GBz1VVXmRdeeMH8/vvv5q233jKTJk0yc+fOLXPuBxJxMGzYMNOwYUMbZ9++fSN8VO2l+fPnm88++8wKu6o2JcQOgb8IIASiJkAAAhCAAAQgAAEIQAACEIAABCAAAQhAAAIQgEBaAi1btjSrVq0yH374oVmxYoXvd/z48fb60qVLzbhx45KuS+OnXr16pnnz5kbPt2rVynTs2NH3k8vBI488Yv78808b55tvvmlmzZqVSzAV9syxxx5rdtxxR3PeeedVWBwEDIFsCCAEyoYWfiEAAQhAAAIQgAAEIAABCEAAAhCAAAQgAAEIVEMCvXr1srmWAEgaPHLz5s0z33zzjT3WvzfeeMM/fvfdd+3xVlttZRo0aGAefvhhc88995jNNtvM95PtgTRspk+fbmrUqGFq1vxranvUqFFlglm2bJl5/fXXje59/PHHSffT3XMaSo8++qgVdq1cuTLpWQnApOEkp/wp/C+//NL3M2PGDF8DaMGCBeaTTz4xCxcu9O9zAIGqIFCrKiIlTghAAAIQgAAEIAABCEAAAhCAAAQgAAEIQAACECgeArvssoupVauW1cKRBs4OO+xgJk6cmJQBJ/jRRQlM5Hr27GkFIzvvvLM9f/bZZ03Xrl3tcbb/pAUkt+WWW5q1117bvPLKK+bpp582F110kR+U0jRw4EAroHIXjz/+eHPjjTfa9Ka698477xhp8cg8nXMSWD3xxBOmadOmZtGiRUaCsLp165ptt93WTJgwwXmzz8lM3e67725kDk5OWlH6GzRokLn22mt9vxxAoLIJoAlU2cSJDwIQgAAEIAABCEAAAhCAAAQgAAEIQAACEIBAkRGoX7++2XTTTW2q33vvPfsrYZBcly5d7O/s2bPtvkBz5szx9wfq3bu3SSQS9r7+BY/9izEPxowZY33269fPHHDAAfb4q6++8rVzpOXjhDx16tSx+xdpX6Jp06aZdPek3XTcccdZAVCPHj3Mueeea/cykubRxRdfnJQ6aQtJALT55pubxo0b23v333+/+eijj4wEZdJ6klt//fXNNttsY7p162bP+QeBqiKAJlBVkSdeCEAAAhCAAAQgAAEIQAACEIAABCAAAQhAAAJFREACEpk4k8BDzmn+nHrqqeaUU04x2gPo1Vdf9U21SUiyySabWC2a8mZTmjrfffedDfuggw4yEkqdeeaZNk6ZZRsyZIh5+eWXfQ2g0aNH2715JPyZOXNmxnvff/+91fKRKbg11ljDhn/55ZcbJ+gKpt9pFknYJQGYzMaNHTvW3HvvvWafffaxZvF22203c/fddwcf4xgCVUIATaAqwU6kEIAABCAAAQhAAAIQgAAEIAABCEAAAhCAAASKi4AEG3I///yzmTx5spEWjvbm0XVpxshpL563337bHm+//fb2Nx//JJyRa9SokXnttdes0EVm2uRkYk5O6ZGrV6+e2W677eyxBDqdOnVKe2/q1KnWr7R8NtxwQ7POOusYCYDklNew69u3r73UvHlz06JFC3v8448/hr1xDoGCIIAmUEEUA4mAAAQgAAEIQAACEIAABCAAAQhAAAIQgAAEIFDYBCTU0Z44EpYMHTrUrFq1yrRv394KTXbccUczadIkqx0kIYyczKPlwykeadrISdhy4oknJgUrjRxpJf3xxx/2+uqrr25WW221JD/p7jkTdXpuwIABSc85IU/SxcCJC1fm53AQKEQCCIEKsVRIEwQgAAEIQAACEIAABCAAAQhAAAIQgAAEIACBAiMgIUnXrl2twMUJZbbeemubyp49e5qbbrrJzJo1y0/17rvv7h+X50Am5hYsWGCDOOyww4zS4dzIkSOtOTZpCjnNo0WLFpkXX3zR7gk0ZcoUM8Hbw6dt27b2kah7G2+8sb33559/WgGTTNjJSTgkc3Jhd8cdd5gddtjBaG8kmaiTc2E44ZPMy+EgUAgEEAIVQimQBghAAAIQgAAEIAABCEAAAhCAAAQgAAEIQAACRUBA+wK5vYCUXGkAycn8mtMS0nnr1q2NM9em8/I4ZwpOYd55551JQcmUm9IjodQ111xj1ltvPWvC7YgjjjAy1/btt9+aLbbYwpqMS3Xvueees2mdO3eukeBKwiQJhLT3kY5HjBiRFOe4ceNMmzZtrEaUbijfBx98sPXjNIfeeOMNqyV15JFHmksvvTTpeU4gUJkE2BOoMmkTFwQgAAEIQAACEIAABCAAAQhAAAIQgAAEIACBIibQp08f39SahB+9evWyuZF2jtPE0YW9997bz2WtWrXs3kG6ULt2bZPp3H/w7wOZmZPr16/f31f+99O/f397Mn/+fKuFJM0gCWIkxJFWksy07b///kZ7A6W6p3yMGjXK7h20ePFiq0X0yiuvmKVLl5ru3bv/L7K/j7p06WKWLFlizc81aNDADB8+3Ky//vr27uDBg02TJk3s8bx58+z+RGUC4AIEKpFADU+lLVGJ8REVBCAAAQhAAAIQgAAEIAABCEAAAhCAAAQgAAEIFDEB7YOjfYEkWHHmz1x2JDipWbNmGeHH8uXL7R5Cbr+gTOcuPP2uWLHCClzq168fvOwfO5NtSo9z0ur5+eefTbt27ZLMx+l+unsyFyfhkcKSto/Ln663atXKBv/MM88YmYxbuHCh/a1Ro4aL1v6uXLnSfPPNN/ZZ90ySB04gUIkEEAJVImyiggAEIAABCEAAAhCAAAQgAAEIQAACEIAABCAAgeIjEBYCaQ8kHASKgQDm4IqhlEgjBCAAAQhAAAIQgAAEIAABCEAAAhCAAAQgAAEIVBkBmbCTyTtpOcl8HA4CxUIATaBiKSnSCQEIQAACEIAABCAAAQhAAAIQgAAEIAABCEAAAlVKQLurhM2/VWmCiBwCGQigCZQBELchAAEIQAACEIAABCAAAQhAAAIQgAAEIAABCEAAAiKAAIh6UGwEEAIVW4mRXghAAAIQgAAEIAABCEAAAhCAAAQgAAEIQAACEIAABCAQgwBCoBiQ8AIBCEAAAhCAAAQgAAEIQAACEIAABCAAAQhAAAIQgAAEio0AQqBiKzHSCwEIQAACEIAABCAAAQhAAAIQgAAEIAABCEAAAhCAAARiEEAIFAMSXiAAAQhAAAIQgAAEIAABCEAAAhCAAAQgAAEIQAACEIBAsRFACFRsJUZ6IQABCEAAAhCAAAQgAAEIQAACEIAABCAAAQhAAAIQgEAMAgiBYkDCCwQgAAEIQAACEIAABCAAAQhAAAIQgAAEIAABCEAAAhAoNgIIgYqtxEgvBCAAAQhAAAIQgAAEIAABCEAAAhCAAARCBFatWhW6wqkjsGjRIrPvvvuavn37mh9++MFdrva/P/74o1m6dGlRcogq05EjR5qhQ4eaxYsX55ynfISRc+Ql8OBvv/1mvv32W/P7778XRW6i6lFVJ3z58uWmT58+pnfv3mbq1Kl5SQ5CoLxgJBAIQAACEIAABCAAAQhAAAIQgAAEIACB6khg5513Ns2aNfP/2rdvb/bee28zfPhwk0gkKhzJlClTTK9evcx6661nunbtGju+YcOGmYYNG9rnJBwpNDd//nzz2WeflWtC3+VJE72vv/66efPNN828efPc5cjfTFw6depk1l9/fXPHHXdEPl/oFzVBf+CBB5qWLVuaDh06mObNm5uddtrJvPPOO3lNej7LLyph4TL94osvzODBg81VV11lXnjhhahHkq5FpS/bMJICzOGkVOrasmXLzNlnn20222wz2w927tzZNG3a1GyzzTbmiSeeyIFM5T0SrkfhmNu2bev37cF+3h1LaFgeF1UPJUB76623zKRJk8zcuXPLE7z/LEIgHwUHEIAABCAAAQhAAAIQgAAEIAABCEAAAhDIjsCMGTOsNoVWwOtPQoa3337bnHPOOaZnz55Gq7oryt18882mR48e5sMPP7RR/Pnnn7GjeuSRR4z8S4NIwpFZs2bFfrYyPB577LFmxx13NOedd15lROfHkYmLtExWrlxpfvnlF/+ZYjn4/PPPzfbbb2/Gjx9vhWs1a9a0gspPP/3UqC7l01V2+UmYJcFWq1atTMeOHTNmJSp92YaRMZIMHkqhrn333Xeme/fu5r777jNz5syxOW7QoIGtV9JiufzyyzNQKOzbv/76q+3fpTEX9VdejaeoelgRRGpVRKCECQEIQAACEIAABCAAAQhAAAIQgAAEIACB6kTg/PPPN2eddZY133PdddeZsWPHmo8//thceeWVZsiQIT6KP/74w2gyXho8jRs3Nl26dLGaJb4H70Ar699//307qSrNE/mJcnfffbepW7euadGihZk+fXqUl8hr0rCR/xo1atg/CYJGjRplLrrooiT/6dKR7p4mRj/44ANrFkqaUUr/aqut5octoVWdOnWM8vbuu+8aCdK6devmT97r3Jn0WrBggfnkk09sHtddd10bRqbw5UmmziSM0zMSDsRxcbnECasQ/UgwqUntWrVqmWuvvdYcddRR9vyWW24xK1as8JOcqY4Gy091Wdyk/bHpppvaMNKVn3u2TZs2to2oDUibTu7LL780EkhJcKp6I02SoEtXphI8PPzww9YMmTRSnIuqp+nSFw7DpVd1NSqvLh4JUdXea9eubTVH1LaknSfBUpQrlbp2+umnW20VtW9pA51xxhlmjTXWsEJS9SkSMDvnWEaVfZw6J+GrBE5OeKnw1He5ay78TGWVrh65tLpflasTrqsfkXbnJZdcYk488UTrZc0117RCePVn4XwpPenSrLCj+jnlL+g++ugj+14JtrHg/VjHXsJxEIAABCAAAQhAAAIQgAAEIAABCEAAAhCAQA4EvEnexNprr53wBD9JT3saOva6N3HoX/cEIwlPIGKv6xn9NWnSJHHnnXf6fiZMmJBo165dkh9vctW/Hzx4+umnEwsXLkyce+651r83+Rm8nfL4ggsusP532223hGcazB5vueWWSf7TpSPdPU/wkthkk02S0r/DDjskvv/+exu+p0Fj7ynf++23X5K/M8880/rZeOONk66Lk9Islyl8+XnssccSjRo18sPwhBP+sTdRLy+RLg4XV95XX311ZBiFevHrr7/2GZx88skpk5mpjrryE9/DDjvMD1Nl5JikKr/gs55Gkn1Wdd0T6iU8ra+ksBTeXnvtlfAm0W1aM5WpZ9bLf171Uy5VPU2VvnAYwfSmyqvi8bTVEuuss44fv9KuP+UxlSuFuuYJ7fw8ewLGVFm114Msg2Wvm5nqnPoOx9QTjtvwZs+e7V9Tmw6Gn66sMtUjG3iKf55A2cZ56623+j6C8QbzFSfNqeqhC1N59gRcfj517tqYn4CYB8lipVhiIzxBAAIQgAAEIAABCEAAAhCAAAQgAAEIQAAC6Qgccsgh9rb2nNC+D9K0OPLII41Wf2svngEDBpjWrVtbzYWLL77YakFIa2HgwIHWpJxWlu+5557GE5aYadOmRUbVr18/400+R95Ld3HMmDH2tp4/4IAD7PFXX31lNR10ki4d6e4pj8cdd5zVDJCZOk84ZTxhgdUUUR6DTto83iS92Xzzza1GlO7df//9Rqved9llFyPNDjntvyONEGkKxQlfmi7SSJBfsdFzMlkVx2XiEieMQvUjLRbn9t9/f3eY9BunjroH5Fd773gT2cabnLaXpVEkzYZU5Rd8VumRpkz9+vWN2og0gLSn1WmnnWZc25Eml8okTpl6c+EueKutka6epkpfOAwXYLq8SuNNGnmrr7661aSTCUM5nat9pXKlUNekoefcoEGD7KH23nryySf9P+1rE3RiGSz7OHVO2j5hFyyr4L10ZRWnHgXDyuY4nK84aU5VD4PxesLbpDbmCaBsewj6iXOMECgOJfxAAAIQgAAEIAABCEAAAhCAAAQgAAEIQCALAhL0OCfzQ5owd8KIZ555xtxxxx3mtddes+bcZDJo9OjR5uWXX7YCID2n80cffdRMnjzZmu5yYZX395133rHpkMmhgw46yHjaONY0m8KV+Sa5dOnIdM9bAW/zpLRL8HPKKafYMINmoewF79/xxx9vNGn86quv+ubiZEbv3nvv9U3gedpK5qWXXjIHH3ywTVem8JU+TfbKPfXUU5Zx0ByfvRHxLw6XiMeK5pJMoDnXtGlTd5j0G6eOBh84+uijrdm/ESNG2MuaCJ85c2bK8gs+KxNwEjyqfssknIRAEgrKfKKEKjJxKKdJ8FzKNF09TVW/gukLH6fKq9ItJ2Gm9q+65ppr7LlM7kkIGuVKpa6p/ORk+m6jjTayx2rvatfu7x//+Ie9HvwXLPts61wwnFTHqcoql3qUKo6o68F8Rd0PX4tTD8N5kanEYFsOh5nqHCFQKjJchwAEIAABCEAAAhCAAAQgAAEIQAACEIBAjgR++OEH/0lNkGqTdDlpP7g9S6Sp4pnDste//fZbOymuk3r16pntttvOXtf+GtrjIl9Owhk5aehICCWhixMKPPvss/aem9yNSke6ey6P0vLZcMMNrSaO2xj+559/tmEH//Xt29eeat8UN+kvgVkqFyd8aVrJifMWW2xhj/fZZx/7m+5fHC7pni/0e9Kocu6nn35yh0m/jm+6Ohp8wGkUdezY0b/sBHD+hRQH2ksmuE+U9tPZe++9bV1XXZgzZ459UoKlXMo0XT1NkaS0l1Pl1TN9aJ+TMMsz8Wb3i9EFJxSJCrRU6pq0FOWklaP+S06ajMcee6y/P1SURkyw7LOtczaSDP9SlVUu9ShDVEm3g/lKulGOk1R5yTbIWtk+gH8IQAACEIAABCAAAQhAAAIQgAAEIAABCEAgPQEnUJGwRSavnPkit8m4e9qd161b12hzdDmZkgpOkDu/5f3VhKyEPnIStrjNzV24mnh/991306YjXRpdHpV+mbsLOifkCV4LHrtwZQYvlYsTvpt0dlwVljQV0rm4XLbddtt0wRT0PSdsVCKlEdGzZ88y6XV8g+zkyZ2rjka5XOqqNNGck2bMUUcdZVQO0qjx9pAyL774ojUtJz+5lKmrT/luS+G8brDBBra9Slh111132SxJ4HbjjTe67CX9llJdCwqnR44caTX/ZM5PTgKxL774Iinv7iRY9nHqXNC/NGHiunBZ5VKP4sYlf8F0Bo+zSXOq+MJ5SeUv1XWEQKnIcB0CEIAABCAAAQhAAAIQgAAEIAABCEAAAlkSkCBF5se0V4icE4a0bdvWnmvPlPHjx5tdd93V7gPkVsJLm0IaGHLaI0WT4NoTaMqUKdZM1kknnWTvleefzK4tWLDABuFtnm4nr114msSVWTppKXgbnNvLUelw+Yi6p/1h5CQ0kIDJaUloold7tISdTOJpwv+9997zTeW5MNykp8y/OefupQvfaWCI8yuvvGJkTu6mm25yQUT+xuVSzEIg7Y0kgYU01B544AGz1VZb2T1rJLx48MEHrVBw0003tXzS1dFIgBEXo8ovwpu9pPagCXpphMk8oNIkLS6lQy6XMk1XT9WWskmfTUSKfw899JBNrzT3ZAJNWnVKeyqBWSnVtS233NKIs0z23XbbbXb/MmkBSQAibcA4zpVTujoX3PdM+0Rpj7DrrrsuTvBJfnKpR0kBZHESN835qoeZkoYQKBMh7kMAAhCAAAQgAAEIQAACEIAABCAAAQhAIAOBoUOHWmFDcPKzc+fOdrN4PSrTZ24SXoIhCUhkskqT39oTRXs/SFgiQZBMpx1xxBF2UlxmljSpHCUEkpkzCZGcCS4JTNq3b28nY994440yKXZmqFq3bm3uvPPOpPsKR1pA0hTSviap0iENp1T3nnvuOTsJPnfuXLP77rtbYZIENh999JE9dnvHuIjHjRtn2rRp408Ya+Jce//IOc0h5UN5OvLII+0eK5pkTxd+nz59zJprrmmWLFliJOhad911/X2WXLzh37hcMgmTwuEW0rk0rGSaT/Xot99+M9qrZdCgQVZgpzLSJvXa0yZTHZWAJo6LKj+nJRJ+3pkjlABV5ax24czByW8uZar2lqqeikE26QunN3jesmVLeyptJv3Jrb322la4KcFI0Ayf7pVSXatdu7YV/shkmfq9c845x/Z3a621li9sVp7TuTj9osxSivPs2bOtgF19repwti6XepRtHM5/3DTnqx66eFP9/k/vLpUPrkMAAhCAAAQgAAEIQAACEIAABCAAAQhAAAKRBNy+GJoc15/OJbS5/vrrzcSJE31tGwk4NAEsbQtNmEowIu2Yrl27mjFjxth9gLT/jzRyNDGoiXntYaHJe7cvRDgB8+bNswIONyEqgZK7Fvar80mTJtnL/fr1K3O7f//+9tr8+fNtvKnSkS6NyuOoUaPsvi5a2S9tJmnjLF261HTv3r1MnF26dLHCGpnuatCggRk+fLg/aT548GDLUg8pT5pUjRO+0qdwFJ7ClebTgQce6O+9VKtW2TXxcbl8+eWXRhPfcunM1lkPBfjv0EMPtXVQGhEykad6qHomQdzJJ59s+Waqo+LnTF05FsFrjktU+QX9uWeFSYKfHj16WGISJEqY6eqL/MUp03DY6eqpIoqTvnCYei54TXl1+VV8EqRJ8Cuh7AsvvGCuuOIKPZLkSq2uSQNK2jnKuxioD3TahuoLJcyWC3ILln2cflHPDxs2zLZpCcoVh+qM0yJSeFHhB6+pnOLUI8WVysm0oJzS7FwwjmC+dD9TmuUnTj2Uv2A8rs7pelxXwwOXiOsZfxCAAAQgAAEIQAACEIAABCAAAQhAAAIQgED5CMiUmjR8pJGj/YKinLRdpBGkvVzc5GOUv2yuafJUgpFUcTqTbZosdS5dOtLdUx5neUIshSUhgzN7pOutWrWywT/zzDNWI2rhwoX2N7x3j8zTffPNN/ZZ94xLV6rw3X1NeUq7SQI15Vf51l8wb85vNlwUhvynYujCLPRflfXMmTON9qySJlrYpauj2uNEAkcJ5pyLuhZVflH+XBiqT8G6oDQGOWcq01Rhp6qncdIXFWbwmoRV06dPN2eccYbVtFJe9thjD2viUCYfR48e7bJnf0u9rqlfUxlKoyxcr4LckqD8fZKuzsmLykttWn2Ba9MSYrp6GBV+1LVM9SgqbbqWqg+JisOFkSnN8henHspfunh0P51DCJSODvcgAAEIQAACEIAABCAAAQhAAAIQgAAEIACBvBEIC4F69uyZt7AJCAKVTUAaMJMnT7ZCCe2zJK087XEld/PNN5tjjjnGHvMPAlVJAHNwVUmfuCEAAQhAAAIQgAAEIAABCEAAAhCAAAQgUI0IyKyRNJtkUixoVqkaISCrJUTg7rvvtqbQpBk1YcIE8/HHH5sOHTqYG264AQFQCZVzsWcFTaBiL0HSDwEIQAACEIAABCAAAQhAAAIQgAAEIACBIiMgk0xh829FlgWSC4EkAjL1li/TjUkBcwKBchJACFROgDwOAQhAAAIQgAAEIAABCEAAAhCAAAQgAAEIQAACEIAABAqRAObgCrFUSBMEIAABCEAAAhCAAAQgAAEIQAACEIAABCAAAQhAAAIQKCcBhEDlBMjjEIAABCAAAQhAAAIQgAAEIAABCEAAAhCAAAQgAAEIQKAQCSAEKsRSIU0QgAAEIAABCEAAAhCAAAQgAAEIQAACEIAABCAAAQhAoJwEEAKVEyCPQwACEIAABCAAAQhAAAIQgAAEIAABCEAAAhCAAAQgAIFCJIAQqBBLhTRBAAIQgAAEIAABCEAAAhCAAAQgAAEIQAACEIAABCAAgXISQAhUToA8DgEIQAACEIAABCAAAQhAAAIQgAAEIAABCEAAAhCAAAQKkUDJCoFGjhxphg4dahYvXlyI3EkTBKotgWza5vLly02fPn1M7969zdSpU6stMzIOgcogsGrVqgqNJm7bj+tPic13H5FN3BUKK4vAizHNWWSvyr3m2i5+/PFHs3Tp0gpL/80332x69epltt9+e/Pwww+bTPVg0aJFZt999zV9+/Y1P/zwQ4Wli4AhUKgE8tkGMrW3QmVQndKVa98dZpTvsmbcYjK+r8JlwHn1I1AM/fUTTzxhTjjhBHPggQeaM844w7z44ovVr6CqYY6LoW6WQrHMmzePufyKKshEFbrdd989seGGG/p/HTp0SBx++OGJzz//PHaqfvrpp8Snn36a8Bqj/4yeX3vtte3ff/7zH/96Pg6i4stHuKUehieQS6y//vqJddddN+FN6pd6dos2f94gxpbRHnvskZSHM888015Xe507d65/77PPPks0btw40bBhw4Q3qeRfT3WQbdv85Zdf/Lb82muvpQo2QbtMiYYbRUCgR48e/ntQbaxdu3aJvfbaK3HvvfcmvEmMCs/Bl19+mdhll11sW+vSpUvG+DbddNPEeuutl7j99tsz+nUeotp+VLuN8ufCiPqN00fE5Ztt3FHpqexrxZjmuIzillvc8LL1l227UPizZ89OHHDAAYkWLVrY9rTOOuskdtxxx8Tbb7+dbfRp/T/55JP+u1Hj3eOPP94/TzXu/eabb3w/H3/8cdrwuVk+ApnGvHH60HD9b9WqVUJjs7Fjx5YvcdX46VzaQD7eU9UNebjuFvqYJpxeNzcxceJEOyeR7zkFxi0VN09TVW0tXIfor8tfEoXeX3/99df+mMr1Efq96KKLyp/5PIZA3cwjzL+DKvS6mf8cV16Is2bNst9RLVu29NtX69atE6eddlrCU+7IKiFR47esAihhz1WqCfTFF1/YVZJaEbNixQq7MvH55583u+22m/EaVyy517HHHmu8D2xz3nnn+f6bN29uvIpjvBew6dixo389HwdR8eUj3FIP45FHHjF//vmn0aqsN99803gNvNSzXJT5U7tRGX344Ye2TbpMjB8/3l7XquZx48a5y0bX1X7r1atnGjVq5F9PdVBRbZN2mYo414uBwIwZM+y78LfffjP608oXb9LYnHPOOaZnz562jVVUPqRN4H0g2DavONRPZ3LSsF25cqXxJjIyefXvR7X9qHYb5c8PJMeDuHwrIu4ckxz7sWJMc9zMxS23uOFl4y+XduEJ5KxWjt6LaiM1a9Y03veD8RYqGYWXT+ctirDBbbzxxuajjz4y3qRDhY1785nu6hJWpjFvnD7U1X99H6keqb999913zYABA8wrr7xSXVBWeT4r6z1V5RnNYwJc3S2WMY1Lr75xgn9qe1X1jnVpysSwqtJXnupSjGnOlF9XXvTXmUhV7P3K7K+9RT5m//33NyNGjDDSCOrcubPN3J133mm8BbMVm9EsQqduZgGrAr1WZt2swGxUaNCaf5R1A31HSduqbt269lvq559/Ng899JC1fqD5h7guinncZ0vdX61CyODZZ59tLrzwQmvO4tRTTzXLli0zw4cPN1dddZVNnrca035Ea7K5ffv2ZptttrHX1anpQ0puwYIF5pNPPjHe6kvjaZvYsH7//Xez2Wab2fv6p/MPPvjAfPvttzYcb8WzWW211fz7qnh16tQxnTp1MvqY97QcbIfurdizftLF5wfCQRkC4jh9+nRTo0YN+ychw6hRo+ykRdCzBEPe6lRTu3Zt06xZM+vXW21uB+Dyl6n8gmFxnBsBmZa5//77rQBo0qRJZocddrAT0kGh7BtvvGGOPPJIG4EmJOS22mor20nrOF05NWjQILJtpir7tdZaS0H6TpNdMgungRbt0sfCQYkQOP/8881ZZ51l6/h1111nvBXftk+88sorzZAhQ/xc/vHHH/YdNWXKFONp4hm9yzxNS/++DvQeff/9982cOXPsO01+otzdd99tB1l6d6qfztVlen+G236696lMW4Xf36nGAdmkNxPfcBpd2JniTtV/aaIjExcXR5wyVZ88bdo04600NDvttJP9TZXmKL8urmL7zVRuLj9xGFZku5DQ9tdffzW1atUy1157rTnqqKPs+S233JK0qCJTOjPVGbUd/cltsMEGdhzsadJHvltlkk4CZY2LtcgjyqV7Z8t/pvS4MNOxzRSHC6MUfuOOeePmVe8EfSN5WgnG0zKzAvhHH33ULphzYcThm658sqmT+tZSHrt27WrHYfogd4JPjRmbNm3qkpVUd7J5TgFkylPcehmnDaTq47N9T2XDMeo70wdXIgfF0nc73KeffrpdfOPO3TdIeEwSt+6lqlcu/Di/mRimGgNkiptxSxz62fuhv85tjs2RLqb+Wt9dDzzwgEu6qV+/vtl7773tolktdA++C31PVXhA3aw+dbMKq1m5opZShxZiqC151lCMZxXFzmfo+8qzcmC++uorc88995hBgwbZ8aXGn927d/cX3endrHlmXdM7LpWcQImsijGx4s00tpWfSnFVqeXkTZBYNa9rrrnGT4ZUsKVK6dnXTHiQrBmNoIqljmUmxyv0hLcC0lcTc34uuOACaxrOnU+YMMGGLVMcm2yySZJ/72Ml8f3339v7TjXb02ZIHHbYYUn+rr76ausnVXx+4jmIJKAyUXl4Gl4JmRvT8ZZbbpnk12v0CZlNceXmfj1psPWXqfySAuMkZwJLliyxZvvE35uEtuE8/vjjSeXiCWD88GXCUX5vvfVWey1TOclsoytb1zbTlb1rl3rG69D9Z3VOu/SLgYMiJ+Deha7NuexIhV91XSrRznkLGRIy2ebakX6bNGmS8FaeOS8JtS2ZXwn68RZb+PeDB08//XRi4cKFiXPPPdf69xZBBG9HHrv0ujbo2mm692e47ad6n4b9ZRoHuLiV11QmI116M/HNNm7BidN/peOiMDKVqRjIfG6wPNX3ykWlOZVf+0AR/YtbbspSJobyU5HtImgW5OSTT1Z0kS5TOl19TldnvMVQSXVB9ULt2NUP92597LHHEgrHXZcJMnfszMFlemfHSY8ymo5tpjgiQRXxxThjXle3XR8alV3nJ/iN5MZc+k5xLg7fdOWTTZ08+OCD/TqkunTZZZcltt56a/+a3kWeQMgmLVh3snlOD2fKUzDsVN9sCidTG8j0fon7nlJc2XBMl2aFVezO1d1M71zlMxM3+UlXf3U/6PIxpgmGF37Hxql7meqVC0NtiHHLBDvfU+zjFlfn6a//2o4h2zk2tbli76+fffZZ/13oTUYHu5EqPaZulm/+txTqZpVWwJiRe4JTv/0E+1E97lkpScgknN6Z++yzj52/d98z3oJXG4PMcbtr+sZJNX6T53RjikxjEvf+1vdVvse2NiOV9K9KzcGFpVxatSK1Z7mNNtrIqoHJjIZWm3l2AM0hhxxi73kfB2bMmDHG28PAaAWMnKTx0hDq1q2bNZtgL3r/PI52BeZxxx1nVTNl9sab7LKmq7SS7eKLL3Ze7a/UeF944QXjVRy7ylYXtYpTksRU8SUFwEkZAioruX79+tlVjDqWJFer4OS8xma0Gn311Ve32kEy7yencz2jMolbfvZB/uVMQJJ3p2Hz3nvv2XBkvk/OaRJ4naw13SgNA7e5dO/evWOVk9qjczrOVPbOr369SbakdukJnuwqa9plkBLHpUTAvfO8SQgzf/5828akhafVLd4+XNYskDcosqtK9C7TO1QrWwYOHGg1+KTZuueeexpvYs5qkESxUR8rkwb5cOnen+G2n6rdhv0p7+nGAeVJd5hvtnHH7b/ScdG9TGXq7f9i1B9rvONNqhlvjzarLau8h9Oczm95WBXSs+Fyi8OwotuFG8+Ik8yDRLk46XTPpaszMhHp2qw0fDT29YS+7lFbJ6SRJC17hSO/Ght/9913vh8d6F7csVW69KRjm00cSYkr4pNMY95ssyZNbJnh1SpeN+baeeedbTBx+GYqn0z9j0uv4nrppZesJQWNFeX0fSTtbFldkAacN/lt+yj3jH6zfS5Onlz48pvqmy1OG8j0fon7nlI6suGYKs0uX6X6W4h9d5C1vjO0sbv+nMnF8DvW+U9X9zLVKxdGLr9hhuH0ZYqbcUsu1OM/Q3+d2xxbMffXmic544wzzODBg21F0XjMzZnErzkV75O6Wf3qZsXXqvzFIOsmznmCHndof2W5y1MgsMeah5S2T9gF34W6l2r8VlVj4mzGtuG8Vci5B6zKnJNMex+wif79+yfcuWfeIqFVlXKS6gWd96FhpXw33HCDvdy3b197Ls0h55yEzq2wee6556wfrVDzVMyst5tuusle02ppueAz2nhKTlJCJ1H0zFDZa1Hx2Rv8iySg1Xxi6E1UJDwV34Q0TTzzRfaa2zjPU6W159IUkpP0Vs94arT2PE75WY/8ywsBbzLZ8pfEXc6t8vTs3fpl59m7T2jzaZWTa0NxyinYzrT6LVPZB/3TLvNSvARSgATcuy+8alar4tw7yFu0kLTa3xOM2JxIi0fvNvnzTKgm+fFMN1o/eu/p+XQuH5pASkOqdhpsy27la9T7NMpfunFAlP9wPuPyjQorXdz56L+CGhypyvT222+35euZSS2zKXw4zen8hrkU+nnccovDMOinItqFG1OqDaRqa8E0pCrrYHmmaksqN28i0NaJww8/3BZj8Dm1L08Y6Pcd3qSf9ePqhtKocVa27+xU6QnmK8w2Thw2cSXyL86YV1l1dTuOJpDKK/invtr7ALbE4vBNVz7Be3HqpDfRZeP1zAb7aXJaqJ7ZKntNqy/lgnUym+fi5CkYdqp6GacNKJ3p+njdj/OeypZjqjQrvlJwrn4X25gm2M50rE2lg3VNfWvwPF05pqtXwTDceChc7nEZRoWVLm7GLWHS+Tl35RWuQ/TXye+CVG2mmPvr448/3r779C0mizfethP5qVR5CoW6Wb7532Kum3mqQpUSjLd3qj+u9PbUKhOnt7+Pva/5SW8huu/XaQJ5Qk7/mrN2EDV+C47Xwt8swXv5HhPHGduWyXQFXigITSBJ/rTKTasAtC/Bgw8+aFf8S+rlFaK1r6l9enRP2gdykqbFdVqlJqcVap65Obsq8vLLL7fXtNFU2LlVnB07dvRvKW247AnIbrmcpzJnvIGu3ePC2Uj11GbtPc9Mn/2dPHmy8cxomEsuucSeSxtMLtvysw/xL2cCnjDOPqu2oTKR1pY2uNb1zTff3N57/fXX7T4DOtEGbnK5lFOmsrcB//2PdhmkwXF1IOBWfSuv6g9dG9NeaW6/O63yd1oA2u9O7VWuXr16ZrvttrPHa6yxht0XyJ5U8L+KaKf5GAdEZTvMN8pPurjz0X/FKVNvEGvtI3uLKKz2l8r+qaeeikquycZvZABFcDFcbnEYVnS7CO7J5U0cRlKMk87gg+VpS9IWlFNfscUWW9jj8Mo6l57yjo3Tsc02DpvQIv4XZ8ybbfbUz7ixl57Vd4z22JSLwzdO+aR7p9iI/v6333772SPtz+qc9imSc++hqO+zbJ6LkycXt35TtZM4bUDPp+vjdT+Oc2mOyzFVmuPEVcx+CrHvDvJs1aqVkaal/vTN46yNBP0Ej9OVYz7qVTAudxxm6K4Hf9PFzbglSCr/x/TX65hc5tiKub+W1QU5vec8gYG/l3X+a1f5QqRuVr+6Wb4aU7lPy8KJc94CV3fo/0rLVU57IZfHVdWY2I0T435zlSePcZ6tFcdTRfvRIOqII44wbdq0MRqAacJZ7p133rEb60rlSx9A2nBUKtpuk6e46fKEaNarzIsNGDAg6TEJllI5qZ7hciegctPG5nLa6O/EE09MCkwCvXfffddubKyy0YfjXXfdZf1oQuXGG2+0x7mWX1JknMQmIKFO3bp1rdB06NChVuVSH/yabJapPm04rnLTJLOc1C3lciknbWqdruxtwKF/tMsQEE5LloATlEuILvM7ro15tnGT8uzO1W61MbWc2lVVtpV8xZ2vcUASsL9PwnzdANP5zRR3PvqvOGWqcZEE70OGDDHPP/+8XQwjk39aHKM0BF06v95+IkGvRXscLrc4DCu6XbgJcEF9+eWX7SRiGHCcdIaf0XkubcmZSnB9g8JxggMdy7n0lHdsnI5trnH8lcLi+h93zLvttttmlTFNLF144YVW2KHFVDIJqW8mfTDH4RunfIL1RIlz53qnRDn3nRa8F3UteF/HUX7C1+LkKRyuzsPtJE4byNTHR8UTdc2l2XFzftx5Ko7hNLvnSvW3EPvuIGvPvn8ZM/HOTH3QX/g4XI75qlfheHQeZsi4JYpS1V2jv/4f+2zm2Iq5v9YciRbqucV5/yNQWEfUzf+VR3Wpm//LceEfSQ7g3MSJE01QGUNzxP/3f/9nbwdlBbqwfPly91is36oaE7txYrbfXLEylYOnghACqfPcddddyyTf21zUTkB7aox2AkQVQCsag0IgN/D6/vvvyzzvLmh/HzkNxiWIcKtgVBiyC5iNixNfNuGVst9XX33VLFiwwGbR2wTVTkq6/I4cOdKsXLnSaNWkbNqrbLVq3VOpNdIUUjm7j6Z8lp+Ln9/UBNQ5aR8uCXqcEFt5+IMAAEAASURBVM8zCWcf0Oo4z+yNcSt2dNHbzNPey6WcHnroobRlbwOO8Y92GQNSBXnRfl7aX80zBWP3KdFEtVZweKbJbNn+61//sm3frQyroGSUVLASkIujbLfLucULbdu2ted6B+r9qPem9gFyq0s0YNJKZDlNDGjRhPYEkrbthAkTzEknnWTvFcq/OO02zjgg2/yk4hsOJ1Pc+ei/4pTpvHnz7MonzwSTFQBpfxcNYrXaNywESue32IVAqcotDsOKbhcqE5WFVml75nbMVltt5e9pKO12LYRx++2la7/hOpjruSYk5BSX9rbQqna9u4Mul3d28Hl37PhH9Tn5isPFVci/cce82QqBXJ6175uEQFpFqPeuzuPwTVc+7l5l1EmXj0y/cfKUKQzdj9MGMvXxCifOe6oQOSrtheIKue+uCEZx6lW28aZiGA4nU9yMW8LEKuac/jq7ObZi7q+1L6PGeMFJ64qpVfkJlbpZfepmfmpM5YSiuUd9q8kSkb5XevToYb+bNOY9+eST/fn/f/zjH/6+qEqZZ4bZ7o2qBVJhFzV+c+O1qG8Wd68ixsT5GtuG85jreUEIgVIl3pkN08BHG25KfUvHQeckuZ5NP7tZqfx59kaDXsxee+1lBQuefUE7YS1NBwmEvH1+rCmrESNGJPlPdxIV36WXXprukWp7z5nF0Mblns3wJA6atHRCBr2M5LRySn9ynk1dq/l122235bX8bOD8y0hAHa/KxzlpAMlJUCfhnDpkOZWta6e5tLOWLVvacFKVvTYajuNol3Eo5d+P6oG3t5cV6GolvISEToNvjz32sIKIf//73zZiCXgl0MelJiDNOw18XPuSz86dO1vGOpapLzfRLMGQFjTovagVdFKPPvroo+3KcDeI0mpxMZeZOAnWo4RAMhGl/tiZPNWCCi3M8GxbG71XK9JFtdvw+9v1L+nGAXHTmIlvOJxMceej/4pTptdff72RAEhal97+Tr62lzSBwk7tLa7f8LOFep6p3OIw1KKfimwXMgciQbfamFaO6yNl0KBBdqyp8abK7rzzzsvYfrUgJh+uT58+Zs011zQyIahFOFpsIwFh0OXyzg4+747FPxVbzwZ23sbfLr5C/Y075g0L4+LmR5viSpD4xRdfGE3kSjsoThlmKp9M75R81cm4+YyTpzhhxWkDmfp4xRPnPRWnD6psjnEYVbSfYui7K4JBnHoVN95MDMPhZIqbcUuYWMWc019nN8dWzP21Fu1JW98tuKmYGpW/UKmb1adu5q/WVHxIsjCkbUH0rSShqubrpfHu7Xvna6dr8asWt8rpXebtf2cXzeo9GaW1GzV+O/vss9N+s1TUmDhfY9t8lUTNfAWUSzi1a9e2jzmNj3AYEuhoMlpOH5KanOrevbs9d88OHjzYTlbpoj5wVYE0cezMC8ifwh81apQ1nSLJnlZHq6PWZIoLL/yMwgtec/Y+o+KTX1xZAjIbJtevX78yN/v372+vzZ8/3zi22rdCEyWa9NSE5AsvvGCuuOKKWOVXJgIulIuABmNOeq7206tXLxuetITcHkC6sPfee/vx5NLOMpV9sA26Nh+85p6nXfrFUKkHKnMJH9TfaoWDPj5VTqonejnr5SsTRLKrHrT1WqmJLILIJHCR0ySR/nQuoY0m/6USLZ5y4q2JRk0ESlCkhQzSZtXqmTFjxtj3n/pRaVqKvSafpbWnduJs19uAAv/03tSfGzxJoOSuBbwlHbq26NpfsE26e8Fr8hc8d36i2m3YX6ZxQNh/UkL/PonLNxxWprhd/lO9u8LhKTnBa3o+Tpnqg02aszIDo7GLTANK4CAhUDA8cU3nN4pNIV+LW25xGFZGuzj00ENt+9SKVvV7aqNqgzJxoFVscdIZLs+oOqNrrk9wbSn8nPI7fPhw2/dKa0xa2d6Gxf6+LfKv9ORjbJyObZw4CrkOZpO2uGNeaW+6cnN9SFQ8zo8YOudtjGsP1UdLEzAO30zlk+mdEq5bSoBLt979Lp2uTsq/XK7PxclTVNjBa0pfnDaQqY9XPuK8p5TmXDiG06z4SsEVW9/t6nCwrblyCJaR/IXP5S94TXUvU70K+ndxu/jcb1yG4bAyxe3artpH1Dd3OLyo/MWp7+nGIuE40vl1PAr915VjsA7RX/81Zxcu76g6Vcz9tdujRIthCtFRNztZLZJc53+LuW4WYn1Ml6YTTjjBfru4RcOaJ9Z3lOaQZHHmiSee8B8fNmyY/cbRIj/Nnejd5zR5XJ2PGr+pPFPNk8R5t0X1Z+69mm5MrLAzfXP5mauEgxoeuL82zKmEyMJRaFJDH8ma0EjnpMEj80Ja9awPa016BZ9RON98842dtJadQDnZB9Rkltu3xIUv1a9Z3qSYKoA+zN1Ed6pnosKJis+Fz+//CKhBavIhWFb/u2t8U3w77bSTmT59ujnjjDPsxJb8SIvgvffes+aORo8e7T+Wrvx8TxzkhYDKTu1TbSXYThS4BKjq6MLty0WcrpyCbUpC2ExlH/Tvwo+6Rrt0dCr3V/2s6sNaa61lI5YAVy9IVzfUd2tFunshV27qSjc2tTFp+EgbL1Ufq3en1KqlpeUm6PJBRH2D+vdgvFFtMnwtfK60RLXbKH/pxgFR/nPNZ1RYqeLOZ/+l9KYrUzGfNm2a7Xc1dnEDTj0XTnM6v/Jfyi4dQ5fvimoXLnz9apw6c+ZMo/283ARB8H66dIbLU8+Fr2noLi0f9a1ur5+wHz0nf9L0k1BY7VV1Q396rwed0lPesbHCS8c2XRzBtBTrcdwxr9irDMJ9aDjf6hujvpFUt1Tm7h3rnovDN1P5pHqnRNUtLRzQODDYF2ksoHeNe9/n+lycPEWFHXUtThtI1ce7dMR9T8l/edu2i7O6/abj5likq7/OTy6/mdpjuF6FzxVn1LV09SrKfy5pzzZuxi25Uk7/HP31X31feccRxdhf6ztY1gqkQZDPb630NS7+Xepm9a2b8WtJ4fnUWHfGjBl2gbH2io9yqtv6xtH8v/vGkdAoOD6OGr+5sNKNKdKNSaLe33HGxC7eOON157eifqtUCFRRmSLc4iKglUiTJ0+2jVd29NWIJACSu/nmm80xxxxjj/lXegQo+9IrU3IEgepCgP6rupQ0+YQABCAAAQgUPwHGLcVfhuQAAhCAAAQgUB4CCIHKQ49n80JAq5ul4qc9aCQAkrqcJLraQ2TgwIF5iYNACpMAZV+Y5UKqIACBzATovzIzwgcEIAABCEAAAoVBgHFLYZQDqYAABCAAAQhUFQGEQFVFnngjCcg8RiGq0kYmlot5JUDZ5xUngUEAApVIgP6rEmETFQQgAAEIQAAC5SLAuKVc+HgYAhCAAAQgUJQEEAIVZbGRaAhAAAIQgAAEIAABCEAAAhCAAAQgAAEIQAACEIAABCCQnkDN9Le5CwEIQAACEIAABCAAAQhAAAIQgAAEIAABCEAAAhCAAAQgUIwEag0fPrwY002aIQABCEAAAhCAAAQgAAEIQAACEIAABCAAAQhAAAIQgAAE0hCoMW/evESa+9yCAAQgAAEIQAACEIAABCAAAQhAAAIQgAAEIAABCEAAAhAoQgKYgyvCQiPJEIAABCAAAQhAAAIQgAAEIAABCEAAAhCAAAQgAAEIQCATAYRAmQhxHwIQgAAEIAABCEAAAhCAAAQgAAEIQAACEIAABCAAAQgUIQGEQEVYaCQZAhCAAAQgAAEIQAACEIAABCAAAQhAAAIQgAAEIAABCGQigBAoEyHuQwACEIAABCAAAQhAAAIQgAAEIAABCEAAAhCAAAQgAIEiJIAQqAgLjSRDAAIQgAAEIAABCEAAAhCAAAQgAAEIQAACEIAABCAAgUwEEAJlIsR9CEAAAhCAAAQgAAEIQAACEIAABCAAAQhAAAIQgAAEIFCEBBACFWGhkWQIQAACEIAABCAAAQhAAAIQgAAEIAABCEAAAhCAAAQgkIlASQuBVq1alSn/3K9CAkuWLDH6w5UOgXy1uV9++aV0oJATCEAgLwS+/fZbM3v27LyERSAQqCoCvN+qijzxViUB+u+qpE/chUaA9lBoJUJ6IAABCECgOhOoTu/lkhQCLV261Fx88cWmY8eO5p///Gd1rssFmff//Oc/ZueddzbdunWzfzqeMGGCn9b33nvPdOnSJfJvt9128/1xUDgEsmlzhx56qOnQoYMZNGhQUgb+/PNPc84555ju3bubrbbaymyzzTbmlltuSfLDCQQgUPkELr30Utsfn3TSSWUi79mzpzn77LPLXM/mgt7Xrs/v2rWr2XXXXW3/8OmnnyYF07dvX3P00UcnXeMEAsVAINv3G+OgYijVwkrjySefbMdP4VQ988wzZpNNNjFvvfVW+FZezum/84KRQPJMgPaQZ6AEV9IEtttuO38c7sbjwd8PP/zQzq25axqra/7miiuuML/99pvP5sQTT7Tf7/6Fvw+0SLRTp07mwgsv9G8F3x0uXP0+/PDDvh8OIACB0iHAe7lwyrJW4SQlPynRR855551n5s+fb/TCWblyZX4CJpS8Ebj++uvtJL+EAN99950ZPny4OeOMM4wmPerUqWM22mgjc/DBB5tEIuHHqbLUoCB4zb/JQZUSyKbNPfroo+aDDz6w6f3111+T0n3WWWeZ//73v6Zfv352ACm/t99+u2nYsKEZMGBAkl9OIACByiOgfnrZsmVm/PjxZuzYsUbCGOckANZfedzcuXPN8uXLzSmnnGLD+vrrr82bb75pXnvtNXPuueea4447zgZ/yCGH2P6gPHHxLASqgkC27zfGQVVRSsUd5++//2770XAudF3fQitWrAjfyss5/XdeMBJIngnQHvIMlOBKmoAWWGmcL6dxvsb9Eug416xZM+P6+lNPPdW+T8aNG2dGjhxptHpeczlyEghpPB92mr/ROygoMHLhaewfdFtuuWXwlGMIQKBECPBeLpyCLDkh0COPPGJXGugFdcABBxQOaVLiE3jhhRfMhhtu6J9rwu+VV14xM2fOtKsVmzRpYleb+B68g9GjR9vTAw88MHiZ4wIgELfNyfTfsGHDzI477mi+/PLLpJQvXLjQaDDZo0cPc8MNN9h7e+65p9HKpCeffBIhUBItTiBQ+QTq169vhfA33nijUdusVSv98OHnn382X331lWnRokVSf58q5QpP723n9Owxxxxjhg4dajWDNCk+cOBAs9pqqzkv9vfHH380M2bMMI0bNzYbb7xx0j2dfP/992bOnDn23dKgQYOk+4sXLzZTpkwxNWrUsJrDa665ZtL98oSdFBAn1ZpALu83xkHVuspUSubL2/8FE0n/HaTBcTESoD2kHisVY3mS5uwIBDX9P/vsMzNv3jyjxSthp77eCW1OO+00I2sAWgyqhQbh8Xn42ajz8Lsjyg/XIACB6kmA93LFvZfTz+IUYX2T5kDNmjWNJqBwhUkgKABSCjXQ0CScJvFSufvvv9/UrVvXHHHEEam8cL2KCMRtc//617/sHlCXX3650Yr+oJs4caKRuRxNLjunCdnNN9/c1xxy1/mFAAQqn8Aaa6xh9t9/f3PPPfeYBx54wApkolIhwcnpp5+e1G7btWtnbrvttkghTVQYuqZnpCF60UUXGQmaZTZCpiTXXXddKxiWn8suu8xIY9BpiKpfufrqq3XLCn8GDx5sgiblDjroIDNkyBD7vlHY0jx0+5hJyHXttdeavfbayz5fnrBtAPyDwN8E8vV+YxxElcoXgfL0f3HSQP8dhxJ+CoUA7SH1WKlQyoh0FB4BCX3WWWcda32n8FJHiiAAgWImwHu5Yt/LJbcnkARAuMImoNUi2gNIdsq18uSTTz6x5t/WW2+9yIS/8847Ztq0aaZPnz4mvJI78gEuViqBOG1u6tSp5vHHH7f7ebRq1apM+iQIlNNq/6CTwFD1RSsBcBCAQNURkKBFq//UT991110mbM7RpezMM880H3/8sTXj9uyzz9pfaeroerbOCYX1vJzS4AQ+0hTS/nIyHSoTkxJMyd64c9pfTM9J+DRmzBjTu3dv88QTT5innnrKepGGkARL0kIdMWKE1WySoFquvGHbQPgHgb8J5OP9xjiI6hSHgBbT3H333Ul/r7/+eplHy9P/lQksxQX67xRguFxpBGgPjGcqrbJVk4i0cEoWXCZPnmyuueYaq00vKx65aAEJmdqoxuDuT4uzcBCAQOkS4L1cGO/lktMEKt0mUzo5k+1YmfVxTivM09l/1cpzueOPP949wm+REdCq+vXXX99IdTzKLVq0yF6WtlfQrb766vZUpuQQAAbJcAyByiegvlqCoKuuusrccsst5pJLLklKxPTp082kSZPsvl4nnHCCvbfpppuaL774wjz//PP2w7Ft27ZJz6Q7WWuttUzt2rWNzGmFnewKy8n2uLR4ZGbSuW+++cam49hjj/W1C5VmCXz0J7OiEko7J8G0nn/ppZfspfKG7cLlFwIikI/3G+Mg6lIcAlo0I5OdmVyu/V+mcIP36b+DNDiuCgK0B2MYz1RFzSvdOP/44w9fY1653GWXXez3QK45Vhu97rrr/Mdbt26dFL5/gwMIQKAkCPBeLoz3MkKgkmhOxZUJaXto5bY2E9dKEr38tfm3Jvz33nvvpMxoJffbb79tttlmG5PN5GFSIJxUKQFpA3z44YfmpptuMvXq1YtMiyZx5STsCTqtFpBDABSkwjEEqo6ATHI+/PDDZtSoUUZClqCTxqbc1ltvHbxsunXrZoVAs2fPzqof/+WXX4w+OLU/SthtttlmZtttt7UapXpHyFScBE916tSxwib5f+yxx+wGt+5ZaRE5U7HaJ0jmtaSlqHh++OEHuyJRfssbtouPXwiIQHnfb4yDqEdxCaj/03gr6KQBKTO8QZdr/xcMI9Mx/XcmQtyvaAK0B8YzFV3Hqlv4Wpj14IMPms8//9wKf6T5/9tvv1mT/elYOC3+sB+1Ue1BhINAvghokeK9997rB7f99ttbU+b+BQ6qlADv5cJ4LyMEqtJmUH0j16S+/po2bWq098txxx1nXnjhhTJCIK1+lepxeLKx+pIrvpzL7J+cVqe6Fapa2S8BoFYQ3XfffXafD/nRRGzQyWSJhIPhDduDfjiGAAQqj4DMP15wwQXWlOcNN9yQFLHbXyfponfirjvNvvD9VOdvvvmmvdWmTZsyXrSP3EMPPWRNvcmMxK233mreffddu3+Q87zrrrsmaQjpevv27a15SZmR0wpZ7XPUrFkz+/7Rx6xcecK2AfAPAgEC2sdKLtf3G+OgAEwOMxII97NhMz0yr1ve/i9jIjwP9N9xKOGnognQHnIfK1V02RB+8RHQN4AWeulPbUsLDDThft5559nMSANUi3wlGAou/NR+oXKpTP/bm/yDQB4I7L777v68koKL+obMQzQEUQ4CvJer/r2MEKgcFZhHcyMgNcDgR6mbIJSpoaCToEAmhFq0aGF69eoVvMVxERHQXk7hfYBGjx5thYA777yzWXvttU337t1tjl577TU7KasT7Tmi/aKkRYArbALS2KpV66/Xidq3JtHdXlHBe4WdC1IXl4CEKzLhKcG967/1rBtoSzPnoIMO8oPTuepEhw4d/GuZDrSPyrBhw6xmj7R8opzqWL9+/eyfzIVq74sVK1aYjTfe2HpXnZSQJ+xefvll89NPP5lLL73UHHXUUfa2VjU6IZAu5Bp2OC7OIZDN+02CyaBZVMZB1J98E5CwPNf+L/zhnipt9N+pyHC90AjQHowdv0eNlQqtrEhPYRE45JBDrDaQvunPPvtsO7fTrl07ozG2rIAEx+6az5HbZJNNCisTpKbkCHTs2NHoD1e8BHgvV/x7ueSEQJ9++qk17+I2rZ45c6Z58sknzQYbbFBmRXDxNo3iTbk2N9YG4Zog3HzzzY0+FP/973/bCcJ99tknKWNa3a0JEZkfwhUugUxtrn///kZ/Qffiiy8a2f3VCiI57RekCWJdl7aQ9hHRKv9ly5aZI4880vrhX2ESGDBggFEdeP/9961AQCa6VH4yF6bJf2nxDRo0yJx++umFmQFSlRMB7Qd0wAEHJD2rQXenTp2s8F4m3LbaaiszceJEM2HCBLs3T6NGjZL8B08kLJSJCbV5vbfHjx9vVxOec845diFA0K+O9dGpsLWiXYsK9Iw0LjRJuZFnclTC4zFjxth3/0477WSFyq+++qrZYYcdTMOGDW1wEmLJzKjeS2PHjvWjKE/YbjN0PzAOqj0BaZ/Feb+pL5WGrPbVcibkGAdV++qTdwBuJXYu/V+qxNB/pyLD9UInQHtIPVZiPFPotbdq06eFVn379rUmovU+0TyOxjH6ftc+nLNmzbJjHy2y0jdh8+bNzX777ZeUaL075D/opGXEJH6QCMcQqF4EeC9X/Hu55IRA2qvg6aef9lvK//3f/xn9de7cGSGQT6XqDrQCRKu0pTosjQE5TchdffXVRhN1QffUU09ZbZHDDjsseJnjAiOQS5vTKvugNpiyJLNwJ554oq0b0i7QC+Cf//yn2WOPPQosxyQnSMBtOqtrsvmsPVyk9SGnY9fO7QX+FSUBtVWn2eUyIGHP4YcfbkaOHGlk/sG522+/3a4IfOCBB2ybllBGH4bq41M5tXXVkyFDhhjZG5cAqWvXrua0006zv+45pcP1GxtuuKEV3vz3v/+1tyVIvv76651Xc/PNN1vzFHfddZddaKAbjRs3tv2JtJgkwNJY4eijj7bCI71/3njjDft8ecL2E8ABBAIE4rzfli9fbvvOoO18xkEBiBymJRDVT+sBp6Xr+vDy9n/hRNB/h4lwXggEaA+MZwqhHhZjGlK1najrEvo88sgjdhGnxvpa7KXxzmWXXWZ/lX89J8GOvgO0H4hz7t0R/j445ZRTEAI5SPxCoIQIRPUhyh7j1PhzGPmqDjU8TYxEvgIjHAjEJSBbsXPnzjXrrLNOSvuwmlzWR2tc8xNx48Zf1RNQ2arDd51+MEWyJbxo0SKjiVhc4ROQ+S1NWrqBvTQ5ZAfaCYJUnm5Ve+HnhhRGEdBKPQlpXBkH/eheVDtWHy8b4C1btiwjQAo+n82xmyR37wTVu2+//dZ+YKq/cHUuGKae0SboetdIUBR00hiWuS2lUWGpX3I2zMsbdjAejiHgCKR7v6kv1QKIoDk4xkGOHL+ZCKiP1sKLYP1xz+i9HDa5XN7+z4Ud95f+Oy4p/OWDAO2B8Uw+6lF1DCNV20l1XeN9LeAKfwvovSOLL9IACt+rjlzJMwSqO4FUfYi4ME79awF1sI6km8MI+svlGCFQLtR4BgIQgAAEIAABCEAAAhCAAAQgAAEIQAACEIAABCAAAQgUOIGaBZ4+kgcBCEAAAhCAAAQgAAEIQAACEIAABCAAAQhAAAIQgAAEIJADAYRAOUDjEQhAAAIQgAAEIAABCEAAAhCAAAQgAAEIQAACEIAABCBQ6AQQAhV6CZE+CEAAAhCAAAQgAAEIQAACEIAABCAAAQhAAAIQgAAEIJADAYRAOUDjEQhAAAIQgAAEIAABCEAAAhCAAAQgAAEIQAACEIAABCBQ6AQQAhV6CZE+CEAAAhCAAAQgAAEIQAACEIAABCAAAQhAAAIQgAAEIJADgRoJz+XwHI9AAAIQgAAEIAABCEAAAhCAAAQgAAEIQAACEIAABCAAAQgUMAE0gQq4cEgaBCAAAQhAAAIQgAAEIAABCEAAAhCAAAQgAAEIQAACEMiVAEKgXMnxHAQgAAEIQAACEIAABCAAAQhAAAIQgAAEIAABCEAAAhAoYAIIgQq4cEgaBCAAAQhAAAIQgAAEIAABCEAAAhCAAAQgAAEIQAACEMiVAEKgXMnxHAQgAAEIQAACEIAABCAAAQhAAAIQgAAEIAABCEAAAhAoYAIIgQq4cEgaBCAAAQhAAAIQgAAEIAABCEAAAhCAAAQgAAEIQAACEMiVAEKgXMnxHAQgAAEIQAACEIAABCAAAQhAAAIQgAAEIAABCEAAAhAoYAIIgQq4cEgaBCAAAQhAAAIQgAAEIAABCEAAAhCAAAQgAAEIQAACEMiVQMkKgX799VejP1xxE6Aci6v8Vq1alTbBuj9v3jyTSCRS+qPMU6LhBgQg8DeBWbNmmZkzZ8IDAgVNYOHChVmlT+/IBQsWZPUMniFQqATopwu1ZEhXVROgbVR1CRB/VRD4/fffzfz586siauKEAAQgUIZAdX0Xl5wQ6KGHHjJdu3Y1LVq0sH9dunQx48ePL1PgXKg6Ascdd5xp1qxZ0l/Lli2NBgbOUY6ORHH8SnBz2mmnmYYNG5qzzjqrTKI1WdunTx/TpEkT0759e7PBBhuYk08+2fzxxx++X8rcR8EBBKqcwBFHHGFatWpVJh2PPfaYWX/99c2ECRPK3MvHBfUjwfeD3ucDBgwwkydPTgp+hx12MP369Uu6xgkECoGA3msnnHCCbT+tW7c2bdu2NUOGDEmbtOnTp5s999zTvhs33nhj06ZNG6N3YtDFGTsF/XNcfQmceeaZth899NBDy0Do3LmzGThwYJnr2Vygn86GFn6rggBjmKqgTpzFSCDcn7sx+IwZM5KyM2nSJNOoUSM7vxa1WCVVm1Mgelbj9qZNm9oxUbt27cyDDz7oh58qDffcc4/vhwMIQKB0CDBOrdqyrFW10ec/9gsvvNBsttlmdtJIH9WPPvqoOeaYY8xnn31m1l577fxHSIhZE/j+++/Nmmuuafr37+8/u/rqq5u6dev655Sjj6LgDzQZfNJJJ1kNH61iXrlyZZk0/+Mf/zCffPKJFRRtueWWZsSIEWbUqFFGg0C9BOQo8zLYuACBKiPw22+/meXLl5eJX9fVxoNC+zKeynHhu+++s2Gfe+65ZsmSJWbKlCl2IceLL75oLr/8cnPqqafa0I8++mj7MVqOqHgUAhVCQBPszzzzjDnkkEPMjjvuaIU5N9xwg10Ecfzxx5eJc8WKFVag+dNPP5nzzjvP+rv++uvtu1ET9ltssYV9Js7YqUzgXKiWBGbPnm2WLl1q1G8++eSTSeNt9av6K4+jny4PPZ6tDAKMYSqDMnGUAgH152ov7nvc5UkLvoJO3+5a5KI/LQjTYs6gS9XmNMbReOjPP/80l156qWnQoIEZM2aMee655+wcncIIvlOCYW677bbBU44hAIESIcA4tWoLsuSEQOPGjTOdOnXyqeqjWppAWkXcs2dP/zoHVUtAK8zTrYylHKu2fLKJffjw4WbzzTe3QpxddtmlzKMa/EkAtN1229lJXHnQoE6ro3XdOcrckeAXAsVH4JdffrGLLWrUqGE0ca2PvKCbO3eumTZtmtV06NChQ/BWmePatWubCy64wL/+5Zdfmv33399cddVVZu+99zbSlDj99NNNzZrJysyZ4vj222/NN998YxeKrLPOOn74Oihv+tOFnRQRJyVNQGZOxo4da3bbbTdz991327zut99+RnX+4YcfNlFCII1RVX/OP/98c84559hnVMdV1x944AFfCKQbmcZO9mH+QcAjoMVWMr17xRVXGNVB9avpnL6XJHTfaKON7ErvdH51j346EyHuFxOB8o4BgnmlbQRpcFwMBLQYVwKaVE6LvyS02Xnnnc37778fKQRK9ay+9X/++WczePBg31qIxkJBayB6NtxuUoXHdQhAoDQIME4tOx9SWfMJyTMoJVCfggIgZWe99dazuQpPFpVAVks6C5Rj8RSvVgY9/vjjpnnz5pGJ1sBSWnhfffWV1RaSpyeeeML6lfDIOcrckeAXAsVF4Nhjj7Xmq/r27WvNPnbs2NFqQrhcyETkpptuaicit9lmGyvAcffi/Cq8iy66yEigLKGz3B577GEOO+ww//F0cWhApUUgEk4pjZrklEaR25usPOnPFLafQA6qBQEJdLTadd999/XzK4Fot27drJDUvxg4cHtbyfShc9tvv71Za621zKeffuou8QuBrAisscYa1uyb+qh///vfKZ+V8Fz9qTSz99lnH9tPaqHO1KlTUz4TdYN+OooK14qBQHnGAHHyR9uIQwk/hUzg+eeft4uljjzySNO7d2/z8ccfm7C5uFTpd4vCJk6cmGRFINPChFThcR0CECgNAoxTT/cLsrLnE0pOCOST9A40YaQXTr169YxMUOEKh8Dnn39uBxHa00ErvqUGnMpRjqnIFMb1OAJWreDXCmlpA8k8oyZ0ZRs4rEruckSZOxL8QqDqCGiV3rBhw5L+XnnllTIJmjNnjrn22mvNhx9+aE086MPun//8p/UnLZ7777/fHHXUUUabLz711FNGe/Vl67SSXU7CZOecECdTHNqfRc9pj5XXX3/dCoKklfHII4/YoMqT/kxhu7TyWz0IaEJdTpo8Qad9KrWSVqvNw65x48b2ktpP0NWvX7+M/2zGTsGwOK6eBGRWUyZ91I8vWrQoEoImwD/44APbZ+ubSX23+ssorbXIAAIX6acDMDiscgKMYYwp7/ioyguRBFQKAZlznzdvnv8XHqv85z//MRqTaCGV22tO4+g4TnsB6/tfi1q6d+9uNZyjTMervUqD2v3JrC4OAhAobQKMU/8q30qfT/AmUUrWXXnllQlPAyHhqbeWbB6LMWPXXHNN4qCDDkp4m30nPHv5tow23HDDxNdffx2ZHcoxEkvBXfQGj7Ysvc0dy6TNG1wmvM7N3lebbNiwYeLZZ58t489doMwdCX4hUDUEDjjgAL+9qs2G//773/+mTJi3B1jCm3i0972Jbfus2r+nIZHyGXdD8TZp0sSdJv2q3/BMUdhrniAp0atXL3ucLg5vb0Abvyd49sP68ccfE545uISnSeRfCx7ETX8uYQfj4bj0CFx22WW2vqlOBp2neWavezawg5ft8eLFixOembeEp7meUN3zTB0mvIVL1r+nHeT7z3bs5D/IQbUjoH7U0+yx+b7rrrtsXfL2m7LnniZkwtufwR575t/svRNPPDGJkeqh+nxvAjnpujuhn3Yk+C1UAoxhMo/BGMMUau2t3HRFtRXNyzjnLSBIeItVEt5iLntJY3m9RzzteufF/qZ7L3h71CU8c3D220DvFs8SSMJbfOA/79Kgcb778zRS/fscQAACpUVAbZ5x6l9lWhXv4pLVBJLa6k033WTNGlxyySWlLUItstxdeOGF1nzYyJEjzRtvvGG0AbI2sL355pvL5IRyLIOkKC9IfVybSGrFqcw5eZO8VjPA7ZkQzBRlHqTBMQSqjkDdunX9VYFuheCNN95YJkHaZ0crebSHiVb7SVtIJrHkZOKqR48etv1vttlm5rrrrjPLly8vE0amCwsXLrT2w5s1a1bGa7o4tMeFnLSANtlkE/un9HjDLrNgwQJ7L9f0xwnbRsC/akNA9q3lPMFOUp5de/AmP5Ku60Rm315++WXbfj777DNrb1/a6zKT4MKTv2zGTvKPg4AIDBw40GqmaX8pmZsIOmkJyMn8YNBtvfXW9tSZKgzeS3dMP52ODvcqmwBjmPRjMMYwlV0jCze+WrVq2e9zfaO7P5damXDXuF0m3KWNrHojE7fa2P29995z3tL+ajxz2223WYsBBx54oN2f01sQbOd/3INqr9qbzv2988477ha/EIhNQHuOb7DBBv7fwQcfHPtZPFYNAcapmecq8l0ytfIdYCGE9+6779qPHm8Vgxk9erTRniS4wiUgtWJtiCyTPEFHOQZpFO+xJoS1UbZMv3krmW1GtGn2VlttZU1IeStQ/cxR5j4KDiBQEATC7099KAadTEbIPvjvv/9uTURo4/qnn37aTmTLX40aNez+QPqIvPPOO60QSMJ/CXuzcdprRa5t27ZlHosTx1577WV22WWXpGe1T1E+0p8q7KTIOKkWBGR6Sy5s4lbjmzp16hhnGz8MQ+ZSgqZVVC/VZrSXRCqXauyUyj/XqycBmeyVSd7DDz/cXH755bZPdiSiTPLonkwDyanOZuPop7Ohhd/KIMAYJvMYjDFMZdTEwo5DY/v+/ftHJlKLOOX0HtFf0GlBr/b6jOtatmxp7rvvPmseV+be3n//feNp+Md9HH8QyEhAZmk9bTLfn/Y7xBU2Acapf5VPZb6Lk2dzCrt+xErdJ598YiTxld3SMWPGGGdrPdbDeKoSArJFLte6dWs/fsrRR1H0B56ZP5sH7YngnGeKyXimb+wqIneNMnckiu9XdpzdBp+aVNKkvNsrKniv+HJGijMRePPNN622kDQ6nUD3o48+8oVAel51wTM/ZP/0kamJQu37FZ6cSRXXDz/8YK6++mqjVYKemaJIb6nicIN/1U9NgoadBNTScsol/ZnCDsfFeekT8MyX2ExKs8fVN+3FonGO065wFCQ4VZ2OctJkl/bQ/vvvH3XbXosaO6X0zI1qTUBamqqbEtA7AY+AdOjQwXLRXkDat8251157zb7HO3Xq5C5l/KWfzogIDwVIgDGMseN3974qwCIiSVVIQAtYJKjR4s2LL744KSUa12sMLUsuq622WtK94Im07qXVHFxU4BbMaL4OB4F8EpDVCf3hiosA49TKfReXlBBI5jf0wazfo48+2r6YXPVv06aN3czOnfNbNQSk2uvt0WSkAuzZkzXTpk0zt9xyi50MlKkwOcqxasom11gnT55sZMLm119/tUFoQ2GtaJbZJm/PDjvxIKHArbfeaicftJJfE2RTp061ZqL0EGWeK/2qf65Pnz5GdWDWrFm2fDUxrsGXt2eM0cSSZ/PVnHXWWWU+Hqo+5aQgHwQkzJV76qmnrKk1lbk0cJ3TKkFpA2qCUR+JEgrrmXQCIAkOpTW0ZMkS6191ScfasFzvjbBLF4fqoybfH3/8cSPtYPVJ6m9eeukl07NnT9OoUSMbXC7pzxS22yQ9nF7OS5eAtMs0ce7teWeuuOIKa5JYZk9l8lbmDpzTx86kSZPMjBkzrGlCra719ki0bUT1/ZFHHrEmurQqTC7O2MmFzS8EogjIFKf6v6DTu1omftT/NW3a1NY59dfjxo0z6r9kujeVo59ORYbrxUSAMUzq8RFjmGKqyRWTVo2vtXDgmGOOsSbggrH07dvX3H///Vazf99997W39F644YYbfG9aoCXNZo3BjzjiCKvdrDmDESNGGGkFeft7+n71rLeHnX+uA5kq1TsKBwEIlD4BxqnRcxUV8i4upS2mPNvVdrPn8AbWOt99991LKatFmxdvwiPRvXt3u+GsKydtgOx9cPp5ohx9FEVxcNJJJyWVpytXb4LVT/+9996b8DS9fH/alH2fffZJeCtHrR/K3EdVdAeeia2EN3mU8OxFJ5YtW2Y3D/UmLm0+PGGfLXNPi6Po8lXdE+xp7NhyDXPwPtxsmapsnRs0aJD/7lU79+x9J9Zd9//Zuw84J8r8j+O/VRSxi4AIKigqIoJwYMWCYgcVsYCiomLD3v82rGA5LKCeZ+/YK2fBiij2drazC4JiwQJSBSH/+T7ek5tkk0022c0mM5/n9dpNMpnMPPN+pj51Jfd1UCjkBpD154WgEDgxduxY/9Nqr0FGefI8ocFhNXisBo8MMsxT5g36I08E3dDltY6g3/JE8LDq4uTjEdSATwQtktzvi4l/rmWnRJoPsRCYOnVqYsstt0zub+3atUvccMMNKdveq1cvd67UgMvBOCop18egYDKhfTLIOEn+Jp97p+TMvIm9gM7fOselh5NPPtmdX4NWm8mvggoc7hlJ52ydHzUA+ODBgxNBwXtynvQ3nKfTRfhcbgLcw+R3D8Y9TLntuaWPT7ZjRTHRs3xQWJMIWu9Xi1jQGtldMw4//HD3Xfi64O+19RpUFEz06NEjeW+vabp/D8YWSi4z2295fkwS8QaBSAlwn5qaH1Lqa3GV9qbolyuyheUmoMFjf/zxR9daRIMiE+IhoDRXjX51DVdTS4B4aERjK9Wtly4jvpm/arxrAFC1/lJQCzGO8cpLa3Xrp1p5mbqrUhqnd+GgLq9+/fVX162n9gd1ddWkSRO34fqslmJqCaRj3+8bxahokFotx59H8lmHfqN4BJmd1bqKLTb+NS27mO3kt5UroHOfasCGu0L1W6PzpmrX+uNL+2/wAODOpRpXK9sxwr2TF+S1JgGdu7V/+etyeF5957tvDU+fO3euBQWY7hzuu3MNf1/Ie87Thajxm7oQ4B6mdvdg3MPUxV5Xmcuo6VhJP4enb2FQ+c9dTzJdU9Ln1f2Lul9ebbXVqj1DpM/LZwQQiLYA96mZ80NKdS2mECjaxxdbhwACCCCAAAIIIIAAAggggAACCCCAAAIIIIAAAjEVWCym281mI4AAAggggAACCCCAAAIIIIAAAggggAACCCCAAAKRFqAQKNLJy8YhgAACCCCAAAIIIIAAAggggAACCCCAAAIIIIBAXAUoBIpryrPdCCCAAAIIIIAAAggggAACCCCAAAIIIIAAAgggEGkBCoEinbxsHAIIIIAAAggggAACCCCAAAIIIIAAAggggAACCMRVoNG0adPiuu1sNwIIIIAAAggggAACCCCAAAIIIIAAAggggAACCCAQWQFaAkU2adkwBBBAAAEEEEAAAQQQQAABBBBAAAEEEEAAAQQQiLMAhUBxTn22HQEEEEAAAQQQQAABBBBAAAEEEEAAAQQQQAABBCIrQCFQZJOWDUMAAQQQQAABBBBAAAEEEEAAAQQQQAABBBBAAIE4C1AIFOfUZ9sRQAABBBBAAAEEEEAAAQQQQAABBBBAAAEEEEAgsgIUAkU2adkwBBBAAAEEEEAAAQQQQAABBBBAAAEEEEAAAQQQiLMAhUBxTn22HQEEEEAAAQQQQAABBBBAAAEEEEAAAQQQQAABBCIrQCFQZJOWDUMAAQQQQAABBBBAAAEEEEAAAQQQQAABBBBAAIE4C1AIFOfUZ9sRQAABBBBAAAEEEEAAAQQQQAABBBBAAAEEEEAgsgKRLQSaNWuW6Y+AAAKlE1i0aFHOleWaR9//9ttvOZfDDAggEC+BKVOm2OTJk+O10Wxt5ASmT59e621KJBL266+/Wq7rZ60XzA8QqEcBztn1iMuiK06A46HikowII4AAAgjERCBO1+jIFQLdc889tvXWW1vXrl3dn96/+OKLMdl1K28zBwwYYO3bt7chQ4ZkjXw+82T9MV+URGD27Nl21llnWYcOHezcc8/NuM5c80yaNMn23Xdf22CDDWzjjTe2jTbayO6///6My2IiAgiUTmDo0KG24YYb2pFHHlltpT179rSTTz652vTaTNC5Q8vXX5cuXaxXr17umvDhhx+mLKZPnz42aNCglGl8QKASBP7880875ZRTrFu3bu7atskmm9ioUaNyRl3HQP/+/a1jx46m33Tq1Ml0n0tAoCYBztk16fBd3AQ4HuKW4mxvbQU222yz5H24vx8Pv7777rvuOd9P07268tjOP/98mzt3bnJ1RxxxhLtXSU747xtVYNF9zBlnnJH8Knzv75er1zvvvDM5D28QQCA6AkcddZR7DkrfokcffdTWW289e+WVV9K/qpPP4XMN+Qx/kTaqE9kyWsill17qHrBVqPDdd9/ZTTfdZCeccIK98cYb1rhx4zKKKVG599577Z133nEQM2fOzAiSzzwZf8jEkgnohH3aaafZzz//7GopL1y4sNq6c80zf/58l7mrms7HHnusNW/e3K6++mrTg5suCp07d662TCYggEBpBHQtnTNnjj3//PP2+OOPmwpjfFDhrv6KCd9//7398ccfdvTRR7tlffnllzZhwgQbN26cnXrqqTZ48GC3eGWGN2vWrJhV8VsEGkTgpJNOsqeeesr69u3rMkh0b3PNNde4/XngwIEZ4/T111/bAQccYIsvvrgrgF1nnXXs888/txVWWCHj/ExEwAtwzvYSvCJgLj+Aexj2BASyC6iClY4RBd3n6xqiAh0fWrdubf5eXc/pem5/9tln7a677jLVnld+m4IKhHQ/nx7Umlm/CRcY+eXp3j8cunfvHv7IewQQiIjAvHnzMp4fNF35hzpH1EcIn2uUZ0E+g1nkCoGefPJJa9WqVXL/USI/99xzNnHiRJeZnPyCNw0qoK76rrjiCttiiy3sk08+yRiXfObJ+EMmllRg9OjRrnaPbgr79euXcd255lGG79SpU10BkG8V1rZtW9cySJllFAJlZGUiAiUTWGaZZUwPcZdddpnttNNO1qhRzbcPKtD94osvbPXVV0+5JmeLsJanc4gP+u1BBx1kl19+uWsZpPPBYYcd5jLE/Tx6/fHHH02Z5S1atLB27dqFv3LvdV759ttv3fV/+eWXT/n+999/t08//dSqqqpcK8Zll1025ftilp2yID7EWkDdmyqzZKuttrIRI0Y4Cx1Dqnn74IMPWrZCIO37yjB57LHHkvevO++8c6wt2fj8BThn1+56kL8sc1aiAMcDx0Ml7relinO4pf9HH31kP/30k6nySnrQvbovtDnuuONMvQGooqcycFVhpbYh/d6/tr9nfgQQiK5Asc/pYZn0c03c8xlqzsUJy1XI+3ABkKKsi5gyeJRBRCgfgb///e9uzKbzzjvPdXWSKWb5zJPpd0wrrYBqMy+22GJuvIJsa841zzfffON+qq7gfFBNID20KZOWgAACDSuw9NJL2x577GE33HCD3Xrrra5AJlOMVHBy/PHHJ1t5ah61YFDLvkyFNJmW4X+jVrxnnnmmqRBZTbnVNehKK63kMs41zznnnGMqJFbhlIJaCg0bNsy9V+HPMcccY+Eu5fbee28bPny4uyfQstUyw4+xonPNxRdfbD6TvZhluwjwD4H/CowfP97UHZwKfnxQgaMqN/jW0H66f9U+/dJLL7mCIrWGJSBQWwHO2flfD2pry/yVJ8DxwPFQeXttecdYhT4rrrii6wmkvGNK7BBAoNIEinlOz2dblTcR53yGyI0JpJoIGgNIfQuqVsMHH3xg++yzjzVt2jSf/YF5SiDw2WefubFe1PS4TZs2GdeYzzwZf8jEkguoAChXyDWP7+JJx2s4KGN2xowZ4Um8RwCBBhBQprRq/+laet1111m2LjxPPPFEe//99103bmrBoO7c1FJH02sbfKa5fq+gOPgCH9Xg0dgour4rI10FU+pv3AeNv6LfqfBpzJgxtv3229sDDzxgDz/8sJtFhUQqWFJL4TvuuMO1bFLFA4Vil+0Wwj8E/iugykgKas0WDqq0pHtW1XRLD6oYoe4RFixYYKptu9tuu7mWsf/4xz/cb9Ln5zMC6QKcs/O/HqTb8Tl6AhwPHA/R26tLv0WqOKVedt577z276KKLXEVNtXIupBWQYq8KMroH93+qnEVAAIHoCuiYv/7661P+VOktPRTznJ6+rGyf45zPELmWQOqXVF3G+KCaP/Qt6jXK41U1rFdeeWWXsZEtRvnMk+23TK88gW233daNc6DM5UmTJtlyyy1nb775pmvJl62gsPK2khgjUNkCup6qIOjCCy90g9qfffbZKRv01Vdf2VtvveXGPTn88MPdd+uvv7795z//sSeeeMI9OK699topv6npg84DSyyxhKk7rfSgDHIF9T2uwmJ1LeqDMtAVj0MOOSTZ+kJxVoGP/vbcc09XEcHPr3OMfv/000+7ScUu2y+XVwQk4CsyLLXUUikgSy65pPusrm/Tuyr0+7yug506dbL27du7Vm0jR4503Ruq1RoBgVwCnLPN8rke5HLk+2gIcDxwPERjT264rVDFFN9iXrHYZptt3PNAoTFSRZhLLrkk+fM111wzZfnJL3iDAAKRENAxr67lc4X7778/OUttntOTP8rjTZzzGSJXCKSalqoVrEGfVEtBFxbVRNbD9i677JLH7sAs9SmgmuHvvvuuXXnlldakSZOMq8pnnow/ZGLFCigTVyd7jYGgMaJ0vG644YZuEEp9R0AAgfIQ2H///e3OO++0u+++2xWyhGOlQesVNt544/Bk69q1qysEmjx5stWmEGj69OmuJcQqq6ySsjx9UNeRm266qWv1++qrr7qu4lTw1LhxY1fYpHnuu+8+N8Ct3iuoJrDGKlLQOEG33HKLqdWp1vPDDz+4Gon6rthlaxkEBLyAv4apsCccVBtOIb0ASNPUjbGCWkz7wlbVwO3Vq5frxpBCIMfDvzwEOGd/6ZRquh7kwcgsERHgeOB4iMiu3CCboYpZt912m3388ceu8Ect/zV2YXoll/TI+Vb86dN1z64xiAgI1JXAqFGj7MYbb0wubvPNN3ddmScn8KZBBXTMKy84HNRTh4YICYdCn9PDy8j1Ps75DJErBFJi64Faf6uuuqqp3/XBgwfbk08+SSFQriOhBN+rmz4FlQD7UmDVeFWBnWqT3HzzzS5TL9c8a621llsO/6IjoDRVVzc+qIucf/3rX248ET+NVwQQaFgBde14+umnu+5W/SD3PkZ+fB3/2b/66b7lg5+e63XChAlulkzne2WS33777a6rN3UjcdVVV9nrr7/uxg/yy1WGebiFkKavu+66rvstdSOnFj8a56h169buHkEPswrFLNstgH8IhAQ0jpWCChrDQV0d6JjQfWp6UD/7Cmrp5oOOPfVhPW7cuIIHYfbL4jU+Apyz/0rrbNeD+OwJbKkEOB7+2g84HjgeChHQ8aOKXvrT/YsybpXhftppp7nFqWa9KmKrYChc2VfjhSowPINj4F89Cuywww5u/Fi/ikzPkP47XhtGID0/IL07SeUBFvucns+WxTmfIXKFQGpiFt6RfOaTmoATGl6gd+/e1cYBeuihh1yh3dZbb+26BMtnnobfEmJQ3wLqL1Q1pWnBV9/SxS9f6dSo0V+XE52DlYmuBwWF8HfFr4kllIOAMg/UzaoqV/hrrOLlb7TVMmfvvfdORlWftU+oS6t8g8ZRueKKK1zLngEDBmT8mfaxvn37ur9DDz3U1Kfw/PnzrV27dm5+7ZMq5EkPzzzzjE2bNs2GDh1qBx54oPtatRp9IZAmFLrs9HXxGYFu3bo5BBXe+P1RY2ppDDy1kgsHFUyqRu0aa6zhXt9+++3k16pJqy4X1Z1u+D43OQNvEMgiwDnb3D2KP/6yMDE5JgIcDxwPMdnV63Uz+/fv71oDKR/n5JNPdvclqqiie2z16hK+d1eX0ArrrbdevcaJhSPQoUMH0x+hcgVUqbPQ5/T0AqZsCnHPZ4hUIdBrr73mBp9W5lPnzp3deCLXXnuty3zadddds+0DTC+hwF577WX6C4exY8ea+oBVbRKFfOZxM/KvLAQ+/PBD16WSHyh+4sSJ9uCDD1rLli2TtfBzzaNucpThq5pFynx94YUXTDeV+qzxggjlKzBw4EA3VoUyK1UgoC66NA6MugtT5r/GZRkyZIgdf/zx5bsRxKzWAuqiql+/fim/0013x44dXddv6sJto402svHjx9uLL77oxuZp3rx5yvzhDyosVBcTc+bMMZ1Dnn/+eVeb8JRTTrHVV189PKt7r/ODlq2aQsoQ12/U4kI3f22DbmGVuT5mzBh3Htpyyy1N5yedV3r06GHNmjVzy1Ahlrqn073D448/nlxHMcv2g0wmF8ab2Auo9ZkKQHWvoxbQOj+qFZv29QMOOCDpo3OpWkVrPCt1IafW0RokWYWVPXv2dJkq6lLxiCOOSP6GNwjkK8A5O/P1gHN2vntQtObjeOB4iNYeXfqtUUWrPn36uC6idT+tvDbdx+j+RuNwTgrG+NW9jypZ6ZlwtdVWs9133z0lorr31/zhoGd/MvHDIrxHIF4CvsVgIc/p2aTIZ0iViVQhkGoXqAawmqWqNrqCMnuGDRtmygQilKeAMv1z1WrNZ57y3Lrox0rjgzzyyCPJDdVA1n4wa98VU655VHigTFjNp6A+h5XB7MdCSC6cN2UnoJrrPqimugYNVasPBb3352I/D6+VJ6Dzs87B4aDCnv3228/uuusuU/cPPlxzzTWuRuCtt97quvdUoYweDHUdzhZ0s6f9ZPjw4e7YVwFSly5d7LjjjnOv/neOtSrAAABAAElEQVSKh79WtGrVyhXeKJNcQa0jLr30Uj+rjRw50nVPcd1115kqgyi0aNHCdtxxR9eKSecXnbc05ooKj3SP8PLLL7v5ilm2WwD/EEgTUFe3KrzR/amud9rnzz33XLc/+lnV9ZvOnb7v/AsuuMDVhLv33ntNf2ohpP31hBNO8D/hFYGMApyz878eZARkYqQEOB44HiK1Q9fzxmQ6XrTKTNNV6DN69GhXyUX3+qrspfudc845x73636lgR88BGg/EB3/vn/58cPTRR1MI5JF4RSBCApnOIdo835uMz2tQbyPFPKenk/lzDfkM/5OpCppCJf73MRrv1A/p999/b+pTXYlOKG8BZSLr4PcngEyxzWeeTL9jWuUIKOPru+++cxlgqi3kCxIqZwviGVN1v6W08zf2qt2ufqB9+qlvaD8wejyFKn+rVXtGhTQ+jcNbpO8ynbt1HVYf4OrWyt/UhX9XyHufSe6bemu/mzJlinswVcGN3+fCy9ZvNLik7gdUUBQOah2kMekURy1L1xnfh3mxyw6vh/cIeAGdD2fMmGHaX9ODzqUqIEofYFkDl+o32k8z7ePpy+EzApyza389YK+JrgDHA8dDdPfuut8y3e+rEl/6vUi26brfV+XN9GcBPQ+qyyU906d/V/exZokIIFDuAtnOIYq3zhfpw7cU+5xeW4845TNEshCotgnO/AgggAACCCCAAAIIIIAAAggggAACCCCAAAIIIIBA1ARS+3eJ2taxPQgggAACCCCAAAIIIIAAAggggAACCCCAAAIIIIBATAUoBIppwrPZCCCAAAIIIIAAAggggAACCCCAAAIIIIAAAgggEG0BCoGinb5sHQIIIIAAAggggAACCCCAAAIIIIAAAggggAACCMRUgEKgmCY8m40AAggggAACCCCAAAIIIIAAAggggAACCCCAAALRFqAQKNrpy9YhgAACCCCAAAIIIIAAAggggAACCCCAAAIIIIBATAWqEkGI6baz2QgggAACCCCAAAIIIIAAAggggAACCCCAAAIIIIBAZAVoCRTZpGXDEEAAAQQQQAABBBBAAAEEEEAAAQQQQAABBBBAIM4CFALFOfXZdgQQQAABBBBAAAEEEEAAAQQQQAABBBBAAAEEEIisAIVAkU1aNgwBBBBAAAEEEEAAAQQQQAABBBBAAAEEEEAAAQTiLEAhUJxTn21HAAEEEEAAAQQQQAABBBBAAAEEEEAAAQQQQACByApQCBTZpGXDEEAAAQQQQAABBBBAAAEEEEAAAQQQQAABBBBAIM4CFALFOfXZdgQQQAABBBBAAAEEEEAAAQQQQAABBBBAAAEEEIisAIVAkU1aNgwBBBBAAAEEEEAAAQQQQAABBBBAAAEEEEAAAQTiLEAhUJxTn21HAAEEEEAAAQQQQAABBBBAAAEEEEAAAQQQQACByApQCBTZpGXDEEAAAQQQQAABBBBAAAEEEEAAAQQQQAABBBBAIM4CFALFOfXZdgQQQAABBBBAAAEEEEAAAQQQQAABBBBAAAEEEIisAIVAkU1aNgwBBBBAAAEEEEAAAQQQQAABBBBAAAEEEEAAAQTiLEAhUJxTn21HAAEEEEAAAQQQQAABBBBAAAEEEEAAAQQQQACByApQCBTZpGXDEEAAAQQQQAABBBBAAAEEEEAAAQQQQAABBBBAIM4CFALFOfXZdgQQQAABBBBAAAEEEEAAAQQQQAABBBBAAAEEEIisAIVAkU1aNgwBBBBAAAEEEEAAAQQQQAABBBBAAAEEEEAAAQTiLEAhUJxTn21HAAEEEEAAAQQQQAABBBBAAAEEEEAAAQQQQACByApEqhBowYIFyYRauHChLVq0KPk5/F1yIm/KQiCcNqRbWSRJnUaC9K1TzrJcGGlclskSqUixj0UqOdmY/wqwX7MrRFWAfTuqKct2FSLA8VCIGr8pdwH263JPIeKHAALZBOJ8/opMIVDv3r2tTZs2Nn/+fJs3b561bdvWNE1h/Pjx1rJlSxs+fHi2fYDpDSRAujUQfIlWS/qWCLoBV0MaNyB+TFbNPhaThI7ZZrJfxyzBY7S57NsxSmw2NacAx0NOImaoQAH26wpMNKKMAAJOIO7nr8gUAs2dOze5SycSCVcYVFVV5aapYEgtTAjlJ0C6lV+a1GWMSN+61CzPZZHG5ZkuUYoV+1iUUpNt8QLs116C16gJsG9HLUXZnmIEOB6K0eO35SrAfl2uKUO8EEAgl0Dcz19VQYFJIhdSJXyvgh5tSuPGjV10Z8+ebUsvvbT5gqCZM2facsstVwmbEqs4km7RTm7SN9rpq60jjaOfxg29hexjDZ0CrL8+BNiv60OVZZaDAPt2OaQCcSgXAY6HckkJ4lGXAuzXdanJshBAoJQCcT9/RaYQqJQ7DetCAAEEEEAAAQQQQAABBBBAAAEEEEAAAQQQQAABBMpdIDLdwZU7NPFDAAEEEEAAAQQQQAABBBBAAAEEEEAAAQQQQAABBEopQCFQKbVZFwIIIIAAAggggAACCCCAAAIIIIAAAggggAACCCBQIgEKgUoEzWoQQAABBBBAAAEEEEAAAQQQQAABBBBAAAEEEEAAgVIKUAhUSm3WhQACCCCAAAIIIIAAAggggAACCCCAAAIIIIAAAgiUSKDRtGnTSrQqVoMAAggggAACCCCAAAIIIIAAAggggAACCCCAAAIIIFAqAVoClUqa9SCAAAIIIIAAAggggAACCCCAAAIIIIAAAggggAACJRSgEKiE2KwKAQQQQAABBBBAAAEEEEAAAQQQQAABBBBAAAEEECiVAIVApZJmPQgggAACCCCAAAIIIIAAAggggAACCCCAAAIIIIBACQUoBCohNqtCAAEEEEAAAQQQQAABBBBAAAEEEEAAAQQQQAABBEolQCFQqaRZDwIIIIAAAggggAACCCCAAAIIIIAAAggggAACCCBQQgEKgUqIzaoQQAABBBBAAAEEEEAAAQQQQAABBBBAAAEEEEAAgVIJUAhUKmnWgwACCCCAAAIIIIAAAggggAACCCCAAAIIIIAAAgiUUIBCoBJisyoEEEAAAQQQQAABBBBAAAEEEEAAAQQQQAABBBBAoFQCsSoEWrRoUalcWU8dCcyaNcv0R6gMgXyOsenTp1fGxhBLBBAoW4EpU6bY5MmTyzZ+RAyBbAK1vQZyH5RNkukIIIAAAggggAACcRSo7f208ql+++23OFKxzXkIxClvoaILgU488UTbcMMNU/7+9re/2bx581KSefbs2XbWWWdZhw4d7Nxzz035jg+lF8gn3e655x7beuutrWvXru5P71988cXSR5Y15iWQ6xj7888/7ZRTTrFu3brZRhttZJtssomNGjUqZdn57BcpP+ADAgjUm8BRRx3ljtf0FTz66KO23nrr2SuvvJL+VZ181rXaX9e7dOlivXr1siFDhtiHH36Ysvw+ffrYoEGDUqbxAYFyFcjnGpged+6D0kX4jAACCCCAAAIIIBBXgULupydNmmT77ruvbbDBBrbxxhu7vKj7778/roQNtt3kLTQYfbUVN6o2pYIm/Pjjj7bsssuaMoN8WGKJJWyppZbyH11G1WmnnWY///yzqfR34cKFye940zAC+aTbpZde6k7Qyvz77rvv7KabbrITTjjB3njjDWvcuHHDRJy1ZhRQZnCuY+ykk06yp556yvr27esKgO6991675pprrFmzZjZw4EC33Hz2i4wRYCICCNS5gCpT/PHHH9WWq+m6js6fP7/ad3Ux4fvvv3frPfroo02Fy19++aVNmDDBxo0bZ6eeeqoNHjzYraZ///7u/FEX62QZCNS3QD7XwPQ4cB+ULsJnBBBAAAEEEEAAgbgK1PZ+Ws+rqjT466+/2rHHHmvNmze3q6++2oYOHeoqNXbu3DmulCXfbvIWSk6edYUVXQikrWrdurWdccYZWTdw9OjR1rFjR3fQ9+vXL+t8fFFagVzp9uSTT1qrVq2SkVJG4HPPPWcTJ050J+zkF7xpcIFcx5ia3T777LO21VZb2YgRI1x8d9ppJ9tss83swQcfTBYC6Ytc+0WDbywRQACBjAK///67ffrpp1ZVVeVa3aqCRjiokPfrr7+2Fi1aWLt27cJfVXvfqFEjd832X3zxxRd20EEH2eWXX+5aBrVt29YOO+wwW3zxxf0s7jXXOqZOnWrffvutu4Ysv/zyKb8tNv41LTtlRXyInUBtroFhHO6Dwhq8RwABBBBAAAEEEIirQCH306pIqGc0FQCpcrmCniPVMkiVkikEKt+9qdhn8/CWkbcQ1jCr+EKg1M2p/kmtDRZbbDFX+lv9W6aUq0C4AEhx/Omnn1zmojIQCeUlkOsYGz9+vKnprgp+fFAGsS6677zzjp/EKwIIVKiAWmmqpZ8fE2yZZZaxiy++2HbeeWe3Reecc4670U4kEu6zWvEMGzYs761dZ511XEvQM88801TorC7jBgwYYCuttJIrSNaCalqHbv6POeaYlC7l9t57bxs+fLi7rhQT/1zLznsjmTGyAoVeA7kPiuwuwYYhgAACCCCAAAII1EKgkPvpb775xq1BXcH50L17d9OzqiovEspToJhn83y2KO55CxU9JpAS+PPPPzdl5qiWsDKV1JVMOKgAiFB+ArnSTd0NaQwgjT9x5JFH2gcffGD77LOPNW3atPw2JuYxynWMqQBPQbUuwkEZXEpnlfL7kGu/8PPxigAC9S+gwtvrr78+5e+ll16qtmIVhKhgRq0177jjDlNtm7///e9uPrXi0dgmOn+r0PfWW291rXOrLSTHBF+IrNZECipQ8oVKudah8cj0OzX/HzNmjG2//fb2wAMP2MMPP+yWVUz8cy3brYB/sRaozTUwDMV9UFiD9wgggAACCCCAAAJxFSjkflpDDygoLzEcVAg0Y8aM8CTel0CAvAWzYvMt6iKZKrol0KabburGBFKGk7p4uf32212tYBUcpGc41wUWy6gbgXzSbcqUKa67H7/GpZde2lRqT6g8AX+BDY/Vpa1Ycskl3cbMmjXL1DVTPvtF5W09MUagcgWUCX3ZZZfl3IDw4Jpt2rSxLbbYwp5++mn3O/X/q6DxhXTDre8KCcstt5xpzD91BZAealqHaoC99dZbdsghhyRbI1544YWuwEqFVnvuuacVGv98lp0eVz7HTyDfa2C6DPdB6SJ8RgABBBBAAAEEEIijQCH309tuu62tsMIKdt1119mkSZNMz5Nvvvmm62VIz6yE0gqQt2BWbL5FXaRYRRcCHXfccSkGqoGszJ0bbrjBLrroopTv+FA+AvmkmwrxVGtcA4O/9957dskll7hBwVVwsMsuu5TPxhCTnALK+FVQYU84qCaAgh+bI5/9Ivx73iOAQP0KNG7c2N59992UlagFzXnnnZcyTZUwbrnlFvvss89s+vTp9sMPP7guIDWTmt+rgFeVM1599VXXjdvhhx9uWnZtgpa7YMECW2WVVar9rKZ1aDw5hfvuu88ef/zx5G/VikiDhCoUGv98lp1cIW9iK5DvNTAdiPugdBE+V6LAqFGj7MYbb0xGffPNN3fPackJvEEgRgIcDzFK7BhtKvt1jBK7ATe1kPtp/UaV/TSu7CeffOIqIW+44Yau9yi/vAbcpNitmryFmvNGSpW3UNGFQOlHzR577OEKgdK7hEufj8/lJZAt3VQ4oL9VV13VtfgaPHiwaaBkCoHKK/1yxUbjdigoYzgc1AWTCvXSB5D382TbL/z3vCKAQP0L+BZ7fk2LL764f+te1Z2junpTrRYds61bt3bn6ffff999X1VV5Vrpqhs2VdS46qqr7PXXX3dj+6QsKMcHDeypsNZaa1WbM5919OrVq1orpHXXXdd1R1ls/LMtu1pEmRBLgUKvgcLiPiiWu0ykNnqHHXZw47f5jcp0Dvff8YpA1AU4HqKewvHcPvbreKZ7qbe60Ptp3Xf84x//SEZXz67/+te/TOPCEEovQN5C7ryR+s5biFQhkM90WmONNUq/N7PGggUypZuaCoYzG/2A4+oWjlBZAt26dXMRHjdunMsk1oeZM2e6vlm7du2adWMy7RdZZ+aLBhVQqy51y6mgY1eZ8n6sqPB3DRpJVl4vAirQmTZtmg0dOtQOPPBAt46PP/7Y/PGrCdoX+vbt6/4OPfRQ07hC8+fPT3YJmSti6gP6iiuucK2HBgwYkHH2bOto166dm1/7pwqp0sMzzzxTcPxzLTt9XXyOp0BtroEqTPVdp3IfFM/9JWpb3aFDB9MfAQEEzB0LHA/sCVET4DwftRQtz+0p9H46fWs03q3yJ6hYni5THp/JWzCXr5Yp36KuUqhiC4HUVdjFF19su+22m6nQ56uvvnLdC2jMgHAm0Ycffui6qFGms8LEiRPduEEtW7asViu4rlBZTnaBfNLttddesxNPPNH23ntv69y5s+uz89prr3UZy7vuumv2hfNNgwjkOsZU2759+/Y2duxYN77I+uuv71oGzJkzxw444AAX53z2iwbZOFaaU2DgwIGmfeDtt982Fdaq6y+l8d133+26/9JYLEOGDLHjjz8+57KYofIEmjZt6iKtVpprr7226fwd7nbtoYcesvHjx7vWQirY1zVYNbnSawGFt1w35rfddpvpHKH5n3/+edc16CmnnGKrr756eFb3vqZ1qEstFTarJZKu+1tuuaUrhH7hhResR48e5gcMLST+uZa90047VYsrE+InkM81UCo6l6r7W41hpQFsuQ+K377CFiOAAAIIIIAAAghUFyjkflrdf6si4cYbb+wqJer5T8+N+qzxggjlJ0DeQvZ8i7rKW6jYQqDmzZu7blw0BpAPauo3YsSIlBpnd955pz3yyCN+FjcQmAYD69SpE4VASZXSvckn3dZbbz1TDWv1Ia6asArKqBs2bJjLwCtdbFlTPgL5HGM333yzHXHEES5NVVCgk/u5555rO+64o1tFPvtFPnFhntIL+MHttGbdaGncFrUEUtB7fwy7CfyrGAEV2PjWXOFI+xZf/rvu3btbv3793HV20KBBroBHBS0vv/yy+1mrVq1cwdBTTz3lPq+88sp26aWXhheZ8l7nBu0zw4cPN1Xq0BhAXbp0MY0ZplcfFD/fWjTXOkaOHGmnnXaaGxRUFQoUWrRo4c4/xca/pmX7uPKKQK5roIT++OMPd+7UeZT7IPYZBBBAAAEEEEAAAQT+J1Db+2nlO6lyovKrFPRsqefWs88++38L5V1JBMhbyC9vpBR5C1VBNyuJkqR6Pa1Eg0X//PPPbtwYBveqJ+R6WGw+6TZ37lw3aNuKK67oCg3qIRosssQCs2fPthkzZpgybTOFfPaLTL9jWsMJqFsvZVpqoD8Ftd5o0qRJsiBIac65ueHSp9A1qyBGhXi+a6rwcpTG6V1zqrXtb7/95lrman9Q4aD2AwV9njJliiu00bHvCwnDy6zte59h7lsU5bMO/ebbb781XVNUGBUOxca/pmWH18P7eAvUdA3UuVQPq+FjjvugeO8vbD0CCCCAAAIIIIBAqkBt7qf1jPjdd9+559HVVlutTp5DU2PDp3wEyFuoXd5IfeYtVHwhUD47HPMggAACCCCAAAIIIIAAAggggAACCCCAAAIIIIAAAnETWCxuG8z2IoAAAggggAACCCCAAAIIIIAAAggggAACCCCAAAJxEKAQKA6pzDYigAACCCCAAAIIIIAAAggggAACCCCAAAIIIIBA7AQoBIpdkrPBCCCAAAIIIIAAAggggAACCCCAAAIIIIAAAgggEAcBCoHikMpsIwIIIIAAAggggAACCCCAAAIIIIAAAggggAACCMROgEKg2CU5G4wAAggggAACCCCAAAIIIIAAAggggAACCCCAAAJxEKhKBCEOG8o2IoAAAggggAACCCCAAAIIIIAAAggggAACCCCAAAJxEqAlUJxSm21FAAEEEEAAAQQQQAABBBBAAAEEEEAAAQQQQACB2AhQCBSbpGZDEUAAAQQQQAABBBBAAAEEEEAAAQQQQAABBBBAIE4CFALFKbXZVgQQQAABBBBAAAEEEEAAAQQQQAABBBBAAAEEEIiNAIVAsUlqNhQBBBBAAAEEEEAAAQQQQAABBBBAAAEEEEAAAQTiJEAhUJxSm21FAAEEEEAAAQQQQAABBBBAAAEEEEAAAQQQQACB2AhQCBSbpGZDEUAAAQQQQAABBBBAAAEEEEAAAQQQQAABBBBAIE4CFALFKbXZVgQQQAABBBBAAAEEEEAAAQQQQAABBBBAAAEEEIiNQGwKgWbOnGn6I5SPQD5p8vvvv5v+COUvUJfp+dtvv5X/BhNDBBBoMIFJkybZxIkTG2z9rBiBfARqey1btGiR/fTTT5ZIJLIuXvP88ssvWb/nCwQQQAABBBBAAAEEoixQ23ts8hWjvDcUtm1xzU+o6EKgwYMHW+vWrVP+1lhjDZs3b15yL7j99tutS5cutvrqq7u/DTfc0J5//vnk97wpvUA+aXLLLbfYBhtsYEpP/en9008/XfrIssacAnWVngsWLLDDDz/c2rRpY2uuuaatvfbaNnz48JzrZwYEEKh7gf33398di+lLvu+++2zllVe2F198Mf2rOvl83HHHpVzTdf0eOHCgvffeeynL79Gjh/Xt2zdlGh8QKAeBQq5lKtDs3bu3rbLKKrbuuutay5Yt7aijjjIty4evvvrKdtppJ/ddu3btbK211jJdfwkIIIAAAggggAACCERdoJB7bPIVy2+vOPHEE93z/oABA6pFrlOnTnbYYYdVm16bCeQn1KxV0YVAU6dOtWWXXdYOOuig5J8KhpZaaqnkVp9xxhnWokULO+uss0w72TfffOPmnTFjRnIe3pRWIJ80Offcc61Dhw42cuRIO+mkk+yHH36wQw891P7444/SRpa15RSoq/TUyf7+++93mVxXX321tW3b1kaMGGE33XRTzjgwAwII1K3A3LlzM55vNX3hwoUplS3qcs3fffedW/axxx5rBx98sCsMVsWN7bbbznRe8GHQoEHuWu4/84pAuQgUci3Tvv7aa6/Z0UcfbXfddZdtvfXWdvfdd9s111zjNmv+/Pmu0PPf//63nXbaae5YWHrppU0PUe+++265bDrxQAABBBBAAAEEEECgXgQKuccmX7FekqKohU6ePNlmz55tY8eOtQcffDBlWbNmzTL9FRPIT8ihF3Q5UbEhqBGZ2H777WuM/0cffZTyfb9+/RIrrLBCYty4cSnT+VA6gXzSJDgxpERov/32c+mW/tuUmfjQIALpaZLpGMuVntOmTUsErQsSe+65Z3IbgoLaRFAbOrHVVlslp/EGAQRKI6DjOGiVUG1lt956qzsXP/XUUynfBU3yEy+//HJiwoQJCR276SGotJEIWg8lPv300/SvUj5nWu9//vOfRPv27RPNmzdPfPnll27+oGJAIug2K+W3udah85DiqLimh2LjX9Oy09fF5+gKFHItCyq3JFZaaaXELrvskoTRcnSvGlRyctOefPJJ9/miiy5KzvPKK6+4acccc0xyGm8QQAABBBBAAAEEEIiaQCH32DLIlQ8VNadK2B497wc9eiVatWqVCHp8SgSV3ZLRDiqCJ4LGG8nP/o2e+1966aVq6em/D7+SnxDWqP6+olsC5Sjfcl937NgxZbamTZu6z4stFvlNT9nucvqQT5qo+75w+P77762qqsq16gpP533DC9RFeqqm/59//mm77bZbcoOWX35569q1qwWFTMlpvEEAgfITOOSQQ1zXVH369HFdWqkV56OPPpqMqFpzrr/++rb77rvbJptsYscff3zyu3zeaHlnnnmmqTWEbxm444472r777pv8eU3rmDJlivXs2dPUvFxxVCtDtTQKbonc74uJf65lJyPIm1gIFHItW3LJJS0o8LEvvvjCjQckqAceeMB5de7c2b368a/UPaIPm2++uS233HL24Ycf+km8IoAAAggggAACCCAQOYFC7rGFQL5iee4K6tFALbv0LH3ttddmjaTygfXcv84669iuu+7qnuc33XRT++yzz7L+JtMX5Cf8T6XiS0I+/vhjC1oDuW4yTj/9dFPTr2xBGUjjx4+3Jk2aWPfu3bPNxvQSCmRLE3U3pDGANP6EMvrU3cmBBx5oQU3wEsaOVdVWoND01MldQeMchIMu2toXpk+fHp7MewQQKIGA+l2+4oorUv6ee+65amv+9ttv7eKLL3bn6TFjxtgSSyxhanqv8Mknn5j6Ytb5W4MvPvzww6ax+WobVICkoIxyH3whTq51aKwx/U7jpwQ1iFxB0J133mmjR492iyom/rmW7ePKazwECr2WXXjhhfbzzz/bZptt5ro5VKGnxr3SuEAK6tZYIb3rt2WWWYbro5PhHwIIIIAAAggggEBUBQq9xyZfsXz3iFNPPdWNNaz8hmzDtaiy5jvvvOPyFpSXrzwGPddrqJDaBvIT/hJrVFu4cpo/6CbK1YJULUqN9XPdddeZMnaUyZOemax4X3rppa6WpQaKUskjoeEFsqXJ119/bf37909GUBkdqvVKKG+BQtMz6IrJbVj6cdm4cWM3febMmbbiiiuW98YTOwQiJqCb5gsuuCDnVj3zzDPJeTRY/bbbbmsqDFKYN29e8lWtFvRdIUEtJVS4pIzy9FDTOnQt8WOt+Bs/3Wg+8cQTFnSxZfvvv78VGv98lp0eVz5HW6DQa9nAgQMt6KrQVXxRKzrt60cccYT5a6BqwOkaqH33q6++MrWUDbqDc+MlrrnmmtFGZesQQAABBBBAAAEEYi1Q6D02+Yrlu9soj1djnf7f//2fBV1eu/x6xdZX9FRrHz3HB93DuXFQ9Z0qk6oXBFUsDbqZt/XWW0+T8wrkJ/zFVNEtgTQgvQaS1yC6enhWBrQGmBo5cmS1nUAZPldeeaVrPnb22WdX+54JpReoKU3U3E+1xtUVmGqRK/NDGSI62AnlKVBMei677LJuo37//feUjVMXcQo6YRMQQKC0AksttZSrOBH0wZt8veyyy6pFQpUwVJMnGNPEtWRQayF/7Kr7KlXYUKvOoM9fu+SSSywYA6XaMnJN0I2/WiYF/QdXm7WmdejmUEGtgHSTqD/FRzeXv/zyi/uu0Pjns2y3Av7FRqDQa9kBBxzgjhHVdlOXh8F4XK713PXXX+/sVICqwkodY7ovevvtt12LdlWc8OuMDTIbWlECw4cPt2B8x+TfPvvsU1HxJ7II1KUAx0NdarKschFgvy6XlIh2PPz9bm3zi8hXLO/9Ql3CqQFHMO6w6xouHFv19qGQ3hhg4403dtN9d9nuQx7/yE/4C6miWwKlp7NKCFWKqK5dwuH11193/Q0GA0/ZQw89ZGo5RGhYgXzSRAU/+ltttdVcrde99trLjTMRDPTVsJFn7dUEik3PlVde2S0zvTtHHcuqCa1azwQEECi9QPr1slGj1NsGddWoLlnVGkfX4DZt2tgjjzziMqkVW43lppYNGuPkn//8pysEUqUNFRrXJqgfaIW111672s/yWcfOO+9s22yzTcpvNU5RXcQ/27JTVsaHWAgUci1Toenjjz/uun5TLTiF7bbbzjbaaCPXzaIqwCisu+66rrW7+xD8076r40p9XBMQKFcBtcBs1qxZMnrKjCEgEFcBjoe4pny0t5v9OtrpWy5bV8g9to87+YpeovxeF1tsMVO32Pvtt5+dd955Lu/Ax1K9kmQKixYtcpN9jwmZ5sk0jfyEv1RSc3MySVXQNPUVqBDuGuODDz4w1TpTUzN1T+P7Va+gzYpcVPNJEx3wiy++eHLb/QlA6UgoL4G6SE8N7qagms66ACioX1Ad076k303kX1kKqIWGui9S0LGqTHld0BXC37kJ/IuUwIQJE1wrIbXE9ZnV//73v5OFQNpY7Qvq3lN/KszXDZjGD0svYMoG88MPP9iwYcNMLZMOPvjgjLNlW4fPcNT+6c8t4QUo810tnQqJf65lh9fD+3gI1OZapoJT7dNffvmlwwkPXKuH1aZNm9rkyZOzwql1u1rc7bHHHlnn4QsEGlpALUD1R0AAAXPHAscDe0LUBDjPRy1Fy3N7CrnH1paQr1ie6RmOlXo6UPqqIqkv4NH37du3d7NpLCCNL+zDuHHjXH5Tx44d/aScr+Qn/I+oYguB1Dfg0KFDbe+997a2bdva559/bqNGjXKZSupOQ0FNBfVwrNdBgwa5mpZ+0zVuQZ8+ffxHXkskkE+aaEynwYMHm7pH6datm2kQOHVBpIxlZSASykegrtJTNfJ1En/sscfs/PPPd902qhscde+oJqKE8hXo3bu3vffee677Rl20lTGuh4GnnnrKdMFWy72TTjrJzjrrrPLdCGJWsIAyqhXUVae6WlOaq8WtD+quVS0ddOOmgn1leOs3NRUAqeBQrYZmzZrl5te+pPcaCFLX+/RQ0zq0P6ogWV3HqjWwxiTSeevpp5+2nj17WvPmzd3iCol/rmX7MYjS48vn6Arkey3Tw85bb71l6qdcDz26v7nqqqvcg49au6lChPrBVteFCtpnVUtuiy22cMeRjonRo0e77hHUEo2AAAIIIIAAAggggEBUBQq5x1YeBfmKlbFHqMv49LGDlafUuXNnl8+w6qqruuce5Ss8++yzpudsdZ+dLZCfkE0mmB70i1+RIXhwTgQFBIlgrJDkX/fu3RPBDpHcnqCPwERQmzL5fXjeHXbYITkfb0onkE+aTJs2LRFkkCSCjMJk2gWZbYnbbrutdBFlTXkJ1GV6Tp06NbHlllsmVlppJZfuQd+giRtuuCGveDBTwwkEXWwlgotyIhjnJTFnzpxE0NoyEWRKuggFGZkuLYNWHA0XQdZckEBQ4O7SNf3Hd9xxh0tTpa0PQ4YMSV5rg5a4iT333NMdx/o+KBRKBAU3yXN5kMGdGDt2rP9ptdeg0Dc5b9CFUCK48UsEBYmJIMM8Zd6uXbsmgm7o3LRc6whaUySCSh/Jc4vuBYKaRYmgRZL7fTHxz7XslEjzIRYC+VzLevXq5c6VQYtXZ3LjjTcmdOz4+1Tdu+66666JoNaa+z7owzrl+6DwMqH9NugSLhambCQCCCCAAAIIIIBAvAVqe49NvmJ57i/KZ9CzeHo4+eST3bNQ0LtI8qtgnPiE8u59HqHymoKCvURQQTQ5T/ob8hPSRVI/V+ljDWVEZf+VBnf68ccf3WDRGjiXEB2BuXPnusHBggM+WVs7OlsXvy3JNz1nzpzpxjoId40TP63K2WJ166XLiO+TVa23NFi5arYrKD05N1dOevqYqum8atCou6r0oDRO75pT3Tf++uuvrjtW7Q/q6qpJkybup/oc3MC5Fgw6rv2+kb7c2nwOCh3dcnyLonzWod8oHrqmpHcNW2z8a1p2bbaLeaMjUNO1TOdNtZxMP750P6tWbzpO/L7tRbSPq3s4vWrsrbo4jvyyeUUAAQQQQAABBBBAoBIEanuPnW8+VCVsexTiqDwGPQf5/KPwNuk7P8xAeLrSMCgEdHkNftiB8PeFvI9rfkLFFwIVktj8BgEEEEAAAQQQQAABBBBAAAEEEEAAAQQQQAABBBCIusBfI3dHfSvZPgQQQAABBBBAAAEEEEAAAQQQQAABBBBAAAEEEEAgZgIUAsUswdlcBBBAAAEEEEAAAQQQQAABBBBAAAEEEEAAAQQQiIcAhUDxSGe2EgEEEEAAAQQQQAABBBBAAAEEEEAAAQQQQAABBGImQCFQzBKczUUAAQQQQAABBBBAAAEEEEAAAQQQQAABBBBAAIF4CDSaNm1aPLaUrUQAAQQQQAABBBBAAAEEEEAAAQQQQAABBBBAAAEEYiRAS6AYJTabigACCCCAAAIIIIAAAggggAACCCCAAAIIIIAAAvERoBAoPmnNliKAAAIIIIAAAggggAACCCCAAAIIIIAAAggggECMBCgEilFis6kIIIAAAggggAACCCCAAAIIIIAAAggggAACCCAQHwEKgeKT1mwpAggggAACCCCAAAIIIIAAAggggAACCCCAAAIIxEiAQqAYJTabigACCCCAAAIIIIAAAggggAACCCCAAAIIIIAAAvERoBAoPmnNliKAAAIIIIAAAggggAACCCCAAAIIIIAAAggggECMBCgEilFis6kIIIAAAggggAACCCCAAAIIIIAAAggggAACCCAQHwEKgeKT1mwpAggggAACCCCAAAIIIIAAAggggAACCCCAAAIIxEiAQqAYJTabigACCCCAAAIIIIAAAggggAACCCCAAAIIIIAAAvERoBAoPmnNliKAAAIIIIAAAggggAACCCCAAAIIIIAAAggggECMBCgEilFis6kIIIAAAggggAACCCCAAAIIIIAAAggggAACCCAQHwEKgeKT1mwpAggggAACCCCAAAIIIIAAAggggAACCCCAAAIIxEiAQqAYJTabigACCCCAAAIIIIAAAggggAACCCCAAAIIIIAAAvERoBAoPmnNliKAAAIIIIAAAggggAACCCCAAAIIIIAAAggggECMBCgEilFis6kIIIAAAggggAACCCCAAAIIIIAAAggggAACCCAQHwEKgeKT1mwpAggggAACCCCAAAIIIIAAAggggAACCCCAAAIIxEiAQqAYJTabigACCCCAAAIIIIAAAggggAACCCCAAAIIIIAAAvERiFQh0J9//plMuYULF9qiRYuSn8PfJSfypiwEwmlDupVFktRpJEjfOuUsy4WRxmWZLJGKFPtYpJKTjfmvAPs1u0JUBdi3o5qybFchAhwPhajxm3IXYL8u9xSKT/zYF+OT1nW1pXHeZyJTCDRw4ED729/+ZvPnz7d58+ZZt27dbP/993f7yKuvvmobbLCBjRo1qq72GZZTRwKkWx1BluliSN8yTZg6jBZpXIeYLCqjAPtYRhYmVrgA+3WFJyDRzyrAvp2Vhi9iKMDxEMNEj8Ems1/HIJErZBPZFyskocoomnHfZyJTCKSCHx8SiYQtWLDAqqqq3CS9VwsTQvkJkG7llyZ1GSPSty41y3NZpHF5pkuUYsU+FqXUZFu8APu1l+A1agLs21FLUbanGAGOh2L0+G25CrBfl2vKxC9e7IvxS/Nitzju+0zVTz/9lCgWsRx+rxZAKvxp3Lixi86cOXOsSZMmyYKg2bNn2zLLLFMOUSUOIQHSLYQRwbekbwQTNW2TSOM0ED7WuQD7WJ2TssAyEGC/LoNEIAr1IsC+XS+sLLRCBTgeKjThiHaNAuzXNfLwZQkF2BdLiB2RVcV9n4lMIVBE9kc2AwEEEEAAAQQQQAABBBBAAAEEEEAAAQQQQAABBBCoE4HIdAdXJxosBAEEEEAAAQQQQAABBBBAAAEEEEAAAQQQQAABBBCIiACFQBFJSDYDAQQQQAABBBBAAAEEEEAAAQQQQAABBBBAAAEEEAgLUAgU1uA9AggggAACCCCAAAIIIIAAAggggAACCCCAAAIIIBARAQqBIpKQbAYCCCCAAAIIIIAAAggggAACCCCAAAIIIIAAAgggEBagECiswXsEEEAAAQQQQAABBBBAAAEEEEAAAQQQQAABBBBAICICVYkgRGRb2AwEEEAAAQQQQAABBBBAAAEEEEAAAQQQQAABBBBAAIH/CtASiF0BAQQQQAABBBBAAAEEEEAAAQQQQAABBBBAAAEEEIigAIVAEUxUNgkBBBBAAAEEEEAAAQQQQAABBBBAAAEEEEAAAQQQoBCIfQABBBBAAAEEEEAAAQQQQAABBBBAAAEEEEAAAQQQiKAAhUARTFQ2CQEEEEAAAQQQQAABBBBAAAEEEEAAAQQQQAABBBCgEIh9AAEEEEAAAQQQQAABBBBAAAEEEEAAAQQQQAABBBCIoACFQBFMVDYJAQQQQAABBBBAAAEEEEAAAQQQQAABBBBAAAEEEKAQiH0AAQQQQAABBBBAAAEEEEAAAQQQQAABBBBAAAEEEIigQEUWAs2cOdP0lyv89ttvuWaxRYsW5ZyHGepHQPY//fSTJRKJ+lkBSy25QD7HUz7zlDzirBABBCpKYNKkSTZx4sSKijORjZ9APvehYRVdH3/55ZfwJN4jULECnKcrNumIeD0LcGzUMzCLL0uBefPm2c8//1yWcSNSCCAQP4G4XosrqhDo9ttvty5dutjqq6/u/jbccEN7/vnnU/bWBQsW2OGHH25t2rSxNddc09Zee20bPnx4yjz6oEKk4447zpo1a2YnnXRSte+ZUH8Cyrjr3bu3rbLKKrbuuutay5Yt7aijjjKlXaaw4447WtOmTW2//fbL9DXTykAgn+Mpn3n8ppDmXoJXBBpGYP/993fX0fS133fffbbyyivbiy++mP5VnXzWdbl169bJP13zBw4caO+9917K8nv06GF9+/ZNmcYHBMpBIN/70HBcv/rqK9tpp53c/VC7du1srbXWMt3zhsPgwYOTx4U/RtZYYw1TpgoBgbDAiSee6PaVAQMGhCe79506dbLDDjus2vTaTOA8XRst5m0IAe5hGkKddVaiQPr53N9ffP311ymb89Zbb1nz5s1dHlymyirZjjktRL/Vffuqq67q8ubWWWcdu+2225LLzxaHG264ITkPbxBAIDoC3Kc2bFo2atjV127tZ5xxhm2wwQYuQ0gPzPfee68ddNBB9tFHH9kKK6zgFqYHm0cffdT69+9vW2yxhXuIHjFihCtwOPTQQ908yrw68sgjXSsU1bpcuHBh7SLC3EUJHHzwwfbBBx+4Qrju3bvbHXfcYXfffbfphkAnhHDQDcIbb7zhJuXT+iv8W96XRiCf4ymfeXxsSXMvwSsCDScwd+5c++OPP6pFQNN1zayvjOfvvvvOLfvUU0+1WbNm2aeffuoqe4wdO9bOO+88O/bYY12cBg0a5B5Gq0WQCQg0sEA+96HhKM6fP98VaE6bNs1OO+00d7966aWXuvshZdj/7W9/c7NPnTrVll12Wdtrr72SP19yySVtqaWWSn7mDQISmDx5ss2ePdt03nzwwQdT9hmdV/VXTOA8XYwevy2FAPcwpVBmHVEQ0Plcx0t6HowqfIWD8mtUyUV/qhCmCrzhkO2Y0z2O8uX+/PNPGzp0qC2//PI2ZswY+9e//uXy8bSM8DUlvMxNN900/JH3CCAQEQHuUxs2ISuqEOjZZ5+1jh07JsX0wKyWQKoh3LNnT9e89PHHH7ftttvOrr/+ejff7rvvbu3bt7c777zTfCHQTTfdZJ07dzYVKm2zzTbJ5fGm/gV0I6ACoM0228xl6GmNusCrxZamh8Pvv/9uF1xwgUsjFfQRylMgn+Mpn3m0daR5eaYxsUIgl8D06dNdhYyqqipTxrUe8sLh+++/t88//9y1dNA1uaawxBJL2Omnn56c5ZNPPrE99tjDLrzwQttll11MLSWOP/54W2yx1MbMudYxZcoU++abb1xlkhVXXDG5fL0pNv41LTtlRXyItIC6OcnnPjSMoPtY7T//93//Z6eccor7Svu49vVbb701WQikL9TKPVPr9vDyeI+ABFRgqO6Wzz//fNOzkM6rNQU9U6nQvW3btq6md03z6jvO07mE+L6SBIq9BwhvK8dGWIP3lSCgCiUqoMkWVPlLhTZbb721vf322xkLgbL9Vvk7v/76qx1zzDHJ3neUJ5feA0z6cZNteUxHAIFoCHCfWj0/pFT5Cak5KGW+P4ULgBRVdRGm4DOC9CCtWga77babm65/yojq2rWry5zyE1WT4f7777fVVlvNT+K1RAK6yVCrrS+++MK1xNJqH3jgAbd2FcyFg2p9q7bi5ZdfHp7M+zITyOd4ymcebRZpXmaJS3QQyEPgkEMOcd1X9enTx3X12aFDB9ci1/9UXa6uv/76LiNyk002cQU4/rt8XrW8M88801SJQAXKCuoyct99903+vKZ16IZKFUVUOKU4KpNTLYr8eHTFxD/XspMR5E0sBPK9Dw1j+LGt1PWhD5tvvrktt9xy9uGHH/pJvCJQK4Gll17adfumc9S1116b9bcqPNf5VK3xd911V3eeVOWszz77LOtvMn3BeTqTCtMqQaCYe4B8to9jIx8l5ilngSeeeMJVljrggANs++23t/fff9/Su4vLFn9fKWz8+PEpvQjkqpiQbXlMRwCBaAhwn3p8MiFLnZ9QUYVASaXgjTKDdDFp0qSJqUsxBT3IKKgGZThoDCHVYFAtHwVfaBSeh/elE1BtbtWWVWsgdeenzD31ExtuVvzxxx+7rvyOOOIIl7lYutixptoK5HM85TMPaV5beeZHoH4FVEvviiuuSPl77rnnqq3022+/tYsvvtjeffdd18WDHuzOPfdcN59a8dxyyy124IEHmgZffPjhh03j+dU2qCa7gioQ+OALcXKtQ+ME6ncaY+Wll15yBUFqHTx69Gi3qGLin2vZPq68xkMg3/vQsEaLFi3cRx0/4bDMMssk71v9dF0nlQGj8bDUWk5dqBAQyCagbjXVpY/O4zNmzMg4mzLA33nnHXfO1nOVzt06X/reEzL+KMtEztNZYJjcIALcw5gVe3/UIAnHSksuoOERfvrpp+SfzzPzEbnnnntM9ySqSOXHmtN9dD5B4z8rz0eVWrp16+ZaOGcaikHHq3ry8X8a3oGAAALRFuA+9a/0LXV+QkV1Bxc+BNRfui5WGkhOpYgKv/32m3v1n92H4F/jxo3dW40pk94FjJ+H19IJaJDvl19+2TUl1gVeGYYq7PHppJioVrcGH1QBESEeAqR5PNKZrawcAT2kqUvOXOGZZ55JzqIB7bfddltXGKSJfuwgvaplg74rJKgFqa4VqkCQHmpah2oqvvbaa3b00Ue7lkj6rTJEVavxySefNA1kW2j881l2elz5HG2BQu5D1QpD96baLzXepWrNvvLKK/bDDz/YmmuumQTbaqut3DGkFtXq1vC6665zXR2rYDO98lPyR7yJtYAy7TTOlLoavOiii0zPTgq+AF2tfXR+VKaeHw9ChfTKrFOBvbqHW2+99fI25DydNxUzlkCAe5ia78G4hynBTlghq1DlahXW+KBrh69koq7aX3jhBdtpp53cGISqiLLSSivZQw89lKzw5X+X7VXz6jqkwiRda0aOHFmtu1sdr2effXZyERoqQBVeCAggEF0B7lPNtarMlVdR13tARbYEUubNlVde6bosCF8s1K+ggi5W4aAu4hT0cEJoeAE1JdaAgqp9qK59VlllFVdL3I/jpK763njjDRs2bJhr6dXwMSYG9S1Amte3MMtHoPYCGnA+XDNQ7y+77LJqC1KGtGryaAwT1fZTayF/3VUXV8q81jl/gw02sEsuucT++OOPasvINUGZ66ol2Lp162qz1rQOZWIqqBWQMjP1p/goE/SXX35x3xUa/3yW7VbAv9gIFHIfqsJRFUTq+NH4h+pvXy3cVaHJL0+AGsdS18q77rrLVaRRhv7s2bNdZkpsgNnQWgscdthhrpBQ40upu4lwUCsBBXU/GA4bb7yx++i7Kgx/V9N7ztM16fBdqQW4hzEr9v6o1GnG+hpGoFGjRi5PRvky/s/HRN32675d3farNbLufTXUggZ2V35NPkH3M1dffbXrMWDPPfd0FVn23ntvdw/jf6/jVWPT+T9lihIQqK2Axs1s2bJl8m+fffap7SKYv8QC3Kfmzquo6ySpuJZAr7/+uuvjulWrVq4GgmpE+qAuDxR8zQU/XV29qJWJ75PUT+e19ALKHNSgyer6TbUSFbbbbjvbaKONXHdCahGkWiIKGsxWfwrKrHvzzTddN0K6GQnXVnEz8K+iBUjzik4+Ih9hgfA1VpupB8VwUJcRqhWo1jiqTa6B6x955BGXka35qqqq3PhAOm//85//dIVAagmqyhy1CRprRUE1A9NDPuvYeeedbZtttkn5qcYpqov4Z1t2ysr4EAuBQu9DdU8T7lpF+6WOGY0lkS3oeFPNWt3jEhDIJqDueNUN83777efGXdT50odMXfLoO3UNpBBuoe8m5PjHeToHEF+XXIB7mNz3YNzDlHy3LLsV6t5+r732yhgvVeJS0HVEf+GgSika6zPfsMYaa9jNN9/shmlQbzCq9LL11lvn+3PmQyCngLqlbdasWXI+jXdIKG8B7lP/Sp9SXotTc3PKe/+wDz74wFSaq2ZjY8aMMd+Puo+2BjJVUI1KPewoqA9s9XXta7W5ifxrMIEvv/zSrVvjNPmgblCaNm3qapRoWr9+/aqNA6SxG9T0WAVGdOnn5aLzSppXdlqqhYYf4FOZSspk8uNAhb+r7K0k9pkEJkyY4FoLqVWCCvEV/v3vfycLgfRZ+0L//v3dnx4ylVGorifSM2c0b6agbrHUMlS1BA8++OBMs2Rdh7/51/7p7wvCC1ClBLVwKiT+uZYdXg/v4yFQm/tQFZxqn84U1Npdren22GOPTF+7abq3VQh3Gecm8A+BNAG1MtO+qQJ6X8CjWdq3b+/m1FhAGrfNh3HjxrnreMeOHf2knK+cp3MSMUMZCnAPY+7+PdP9URkmF1EqsYAqmaigRvkvZ511VsradV+ve2h17bb44ounfBf+oIq8atUcrlTgK8woT4+AQF0KqNcJ/REqS4D71NJeiyumEEhdvOlhWK+DBg1yFx2/a2sMAg1Up1q9emB57LHHXAuSTp06ucHl1F2Gmpn58N5777kuNzRGkIIGQFUNTHUzU+h4BX7ZvNYsoIdQZRBfddVV7kFUtbpVaKd+ydVFj4K6i9NfOKjQT/Nefvnl4cm8LwOBfI6nXPOQ5mWQkAVGoXfv3qb0nTRpkjumlTGum6+nnnrKlLGkAj6N95T+8FDg6vhZmQmoAF9B40eoqzWlufr+9kG1BNUCVBmMekhURQD9pqYCIBUcqtXQrFmz3Pzal/ReA5a3bdvWLzr5WtM6tD+qEoi60VILYl3jdR/x9NNPW8+ePd3Yc1pQIfHPtWw/SHoyoryJvEC+96F62HnrrbdcP9DqmlC1a7fYYgt3jGh/V8UXddGlWmEK6hZl6NChpu5TdAx8/vnnNmrUKHccqWtdAgK5BNQVZ/ozjq7V6uJH579VV13V7XM6Xz/77LNuDDV115wtcJ7OJsP0ShLgHib7/RH3MJW0J9dPXHV/rYoDBx10kOsCLrwW5b3dcsstrmX/brvt5r7SdWHEiBHJ2VQJTC2bdQ+uMTjVulnd3t5xxx2mVkEag84H/VZjHYaD7oN0jSIggED0BbhPzZxXUS/X4uDhsyJC0C91ImgBkgjG9an2t8MOOyS3YerUqYktt9wyEbQacfMFg+UmbrjhhuT3enPkkUdWW4aWG2QIpczHh/oRuPHGGxNBzdVkGihdd91110RQizDrCoPMtkRwg5H1e75oOIF8jqd85knfAtI8XaQ8PwddbCWCzKNE0F90Ys6cOYmghWYiyLh0kQ0KeN1xHrTiKM/IE6usAkGLHZeu6TMED24uTZW2PgwZMiR5fda5Pejv212D9X1QKJQIMq2T5/ugMD8xduxY/9Nqr0GFjeS8QXP+RPDwlwgKEhNBhnnKvEF/5ImgGzo3Ldc6gn7LE8HDavK+QNf7oAZ8ImiR5H5fTPxzLTsl0nyIhUA+96G9evVy58qgtXoiGEcl5Z6oefPmCe2TQcZJ0isYwDvRrVu35LGhfTgYNygRZNYn5+ENAl5A52+d49LDySef7PahoNVm8qugAkdCz1H+uUnX8MGDByeCgvfkPOlvOE+ni/C53AS4h1nJJUmx90fllq7Ep+4Fsh0rWpPyxoLCmkTQer/aioPWyO56cvjhh7vvwteFcH5dUFEw0aNHj5T7F92/B2MLJZeZ7bc8PyaJeINApAS4T03NDyl1fkKV9qYoliuqlY9qHoS7HYvidlbyNv3444+udrfSqKZa4dpGdZuiWuS+y6lK3m7inp8AaZ6fU0PPpW69dBnxzfzV8lIDgPpxB3Qu1sDnhMoSULd+qpWXqbsqpXF6Fw7qevXXX391XVNpf9Dx26RJE7fRktfjAwAAGORJREFU+qyWYjqH63zv941iRDRIrZbjrx35rEO/UTzUtWh6d7LFxr+mZReznfy2cgVqug/VeVO1a/3xpf1XgyzrVeNqZTtGggIj072TWq5zXq3cfaO+Y65zt/Yvf10Or0/fZbqXnjt3rgUFmO4c7rtzDf+ukPecpwtR4zd1IcA9TO3uwbiHqYu9rjKXUdOxkn4OT9/CoPKfu55kuqakz6v7F3W/vNpqq1V7hkifl88IIBBtAe5TM+eHlOpaHNlCoGgfNmwdAggggAACCCCAAAIIIIAAAggggAACCCCAAAIIIFCzwGI1f823CCCAAAIIIIAAAggggAACCCCAAAIIIIAAAggggAAClShAIVAlphpxRgABBBBAAAEEEEAAAQQQQAABBBBAAAEEEEAAAQRyCFAIlAOIrxFAAAEEEEAAAQQQQAABBBBAAAEEEEAAAQQQQACBShSgEKgSU404I4AAAggggAACCCCAAAIIIIAAAggggAACCCCAAAI5BBpNmzYtxyx8jQACCCCAAAIIIIAAAggggAACCCCAAAIIIIAAAgggUGkCtASqtBQjvggggAACCCCAAAIIIIAAAggggAACCCCAAAIIIIBAHgIUAuWBxCwIIIAAAggggAACCCCAAAIIIIAAAggggAACCCCAQKUJUAhUaSlGfBFAAAEEEEAAAQQQQAABBBBAAAEEEEAAAQQQQACBPAQoBMoDiVkQQAABBBBAAAEEEEAAAQQQQAABBBBAAAEEEEAAgUoToBCo0lKM+CKAAAIIIIAAAggggAACCCCAAAIIIIAAAggggAACeQhQCJQHErMggAACCCCAAAIIIIAAAggggAACCCCAAAIIIIAAApUmQCFQpaUY8UUAAQQQQAABBBBAAAEEEEAAAQQQQAABBBBAAAEE8hCgECgPJGZBAAEEEEAAAQQQQAABBBBAAAEEEEAAAQQQQAABBCpNoCILgWbPnm36yxWmT59e4yz5LqfGhfBlwQL5+icSCfv1119t0aJFBa+LH9a/QL7pmU9Mch27+SyDeRBAIFoCU6ZMscmTJ0dro9ia2AkUcn3jPih2u0kkNphzdiSSkY2oIwGOhzqCZDEIIIAAAgjUsUCcrtEVVQh0//3327bbbmtdunRxf9tss429/PLLKcn/559/2imnnGLdunWzjTbayDbZZBMbNWpUyjz5LCflB3yoU4F8/T/88EPr37+/dezY0aVjp06d7J577qnTuLCw4gXyTU+/pgEDBlj79u1tyJAhfpJ7zefYTfkBHxBAoCQCQ4cOtQ033NCOPPLIauvr2bOnnXzyydWm12bCWWed5Zavdej63qtXL3d+0DUgHPr06WODBg0KT+I9AhUhUOj1jfugikjesosk5+yySxIi1IACHA8NiM+qK0Jgs802S96H6148/e/dd9+19Hv1rbfe2s4//3ybO3duchuPOOIIl2eTnPDfN6rIq/ycM844I/lVeHnh9d15553JeXiDAALRETjqqKNcHn36Fj366KO23nrr2SuvvJL+VZ18Dp9ryGf4i7RRnciWaCHDhg1zO8hee+1lEydONO0wxx57rCsIWm655VwsTjrpJHvqqaesb9++7iJ077332jXXXGPNmjWzgQMHunnyWU6JNimWq8nH/+uvv7YDDjjAFl98cZfxuM4669jnn39uK6ywQizNynmj80lPH38dj++88477OHPmTD/ZveZz7Kb8gA8IIFASge+++87mzJljzz//vD3++OOmwhgf6qIF4Pfff29//PGHHX300a6V75dffmkTJkywcePG2amnnmqDBw92q1OlAF3LCQhUmkAh1zfugyotlcsnvpyzyyctiEnDC3A8NHwaEIPyFlAFK93nK+g+X8eMCnR8aN26tfl7deW9zZ8/35599lm76667TLXnb7rpJjerCoR0P58e1JpZvwkXGPnl6d4/HLp37x7+yHsEEIiIwLx58zKeHzR94cKF7hxRH5saPtco34J8BrOKKgRSiwOVEvrwyy+/uAKgDz74wHr06GG//fabuyBttdVWNmLECDfbTjvtZKrd8OCDDyYLgXItxy+f1/oRyMf/8ssvdzcKjz32WDLNd9555/qJEEstSiCf9NQKZs2aZVdccYVtscUW9sknn6SsM99jN+VHfEAAgZIJLLPMMqaHuMsuu8x0XW3UqObbB3Xh+cUXX9jqq69urVq1yhlPLU8Plj7otwcddJDpWqCWQW3btrXDDjvMVQzw8+j1xx9/NGWWt2jRwtq1axf+yr2fOnWqffvtt+46svzyy6d8//vvv9unn35qVVVV1qFDB1t22WVTvi9m2SkL4kOsBQq9vnEfFOvdpuiN55xdu+tB0eAsoKwFOB44Hsp6B23gyIVb+n/00Uf2008/mSqvpAfdq/tCm+OOO87UG4Bq7ysDVxV3axvS7/1r+3vmRwCB6AoU+5welkk/18Q9n6GiuoMLFwApUVdaaSWXtost9tdmjB8/3tTlhjKofFCmTufOnVMynXMtx/+W1/oRyOWvjMaXXnrJFd6lz1s/MWKpxQikp1H6cemX/fe//90VBJ133nl+UvI132M3+QPeIIBASQWWXnpp23///V3twFtvvTXrulVwoi4f1RWr5ld3Ebvssot99dVXWX+T6Qu1/jzhhBNswYIFNnr0aDeLlnv44YcnZz/nnHNsyy23tAMPPNBd988+++zkdyr86devn1u/WgGri9gzzzzTFWRpJi1bXcbqu/32288VTqsVsQ/FLNsvg1cEJFDI9Y37IPadYgU4Z+d/PSjWmt+XvwDHA8dD+e+llRVDFfqsuOKKlRVpYosAAhUhUMxzej4bGPd8hooqBAonqJqUvvbaa7bUUku5MQT0nWotKKjGcDioFrJqKKg0MT1kWk76PHyuP4FM/t98842pWaAy/1TLZLfddrN9993X/vGPf7h0rL/YsORiBTKlp5b52WefmVoMqbl5mzZtqq2mkGO32kKYgAAC9SagTGnV/mvatKldd911lt6do1/xiSeeaO+//77rxk0tOdWdm1rqaHptg6/Qod8rKA76U1ANHo0Rt88++7guJlUwpf7GfdDYgPrd1VdfbWPGjLHtt9/eHnjgAXv44YfdLCokUh/Bzz33nN1xxx2uZZMKqhWKXbZbCP8Q+K9AIdc37oPYfYoV4Jyd//WgWGt+X/4CHA8cD+W/l5Z/DDW2j7pSeu+99+yiiy5yrenVA08hrYC0taq8rXtw/xeujFX+GsQQAQRqK6Bj/vrrr0/5U+X/9FDMc3r6srJ9jnM+Q839uWQTK4PpGudn2rRprnuYJk2auBjNmDHDvapgKByWXHJJ91HdUaV3B5NpOeHf8r5+BTL5q+sUhTfffNM6depk7du3Nw2OPHLkSNetz8UXX1y/kWLpBQtkSk8tTLXqV155ZVeol2nhhRy7mZbDNAQQqD8B1aRVQdCFF15oo0aNsnDLG61VrX3eeustNyafb7Gz/vrr23/+8x974okn3IPj2muvnXcENdbfEkss4bp6Tf+RKgooqO9xdfOibiZ9UAa64nHIIYckWwYrzirw0d+ee+7pCqX9/CqY1u+ffvppN6nYZfvl8oqABAq5vnEfxL5TFwKcs83yuR7UhTXLKH8BjgeOh/LfS8s7hqqgG+6ef5tttnHPA4XGWpW0L7nkkuTP11xzzZTlJ7/gDQIIREJAx7y6ls8VVHnch9o8p/vf5PMa53yGiiwE0kB0KkFUN1RqKuaDMoIUVNgTDipxVEgvAMq2nPBveV9/Atn8NT6DglqN+ExG1TzRuBCqIUIhUP2lSTFLzpaeag3w7rvv2pVXXmm+wDZ9PbU9dtN/z2cEECiNgLp4u/POO+3uu+92hSzhtX7++efu48YbbxyebF27dnWFQJMnT7baFAJNnz7dtQhdZZVVUpanDxtssIFtuumm9uijj9qrr77quqBTwVPjxo1dYZPmue+++9wAt3qvoJrAGqtIQeME3XLLLa6Votbzww8/uBqJ+q7YZWsZBAS8QCHXN+6DvB6vxQpwzv7SEdZ0PSjWmN9XjgDHA8dD5eyt5RdTVcy67bbb7OOPP3aFP2r5P3fuXNczT02x9a340+fRPbvGICIgUFcCqqR44403Jhe3+eab2w033JD8zJuGFdAxr3zBcFBPHenDRRT6nB5ebq73cc5nqLhCIO00J598srVs2dJdhHwrHyWyH4tEmTnhoOZkmi886HNNywn/lvf1I1CTv+9fVjW8fdC4T+q7cdy4cQUPPuiXxWvdC9SUnsqkVVCpvy/5Vy1nNSVXDaKbb765Vsdu3ceeJSKAQL4COheffvrppkFkR4wYkfIzFdZnCn56+Hqdab70aRMmTHCT1lprrfSvTJnkt99+u+vqTd1IXHXVVfb6668nxw/SD1RxINxCSNPWXXdd1zWsupFTi5899tjDWrdubU8++aTrxk7zFLNs/Z6AQFigNvem/nfcB3kJXosV4Jz9l2C260Gxvvy+sgQ4HjgeKmuPLa/Y6vhRRS/96Z5eGbfKcD/ttNNcRFWzfvbs2a5gKFzxU+OFKqhLaQIC9Smwww47JPOVtJ5Mz5D1uX6WnVsgPT8gvTtJDeFS7HN67liYxTmfoaIKgT755BMbPHiwqTm3Mn3UvVQ4aOBnBRUUKGNHQeMWfPDBB64mspsQ/Mu1HD8fr/UjkMt/jTXWcDVK3n777WQEVINEXQ0pzdNPFMmZeNMgArnSs3fv3tXGAXrooYdcyzwNGr/CCiu4QdsV+VzHboNsICvNKaDWlo0a/XU5UTNfZaLrQUEh/F3OBTFDRQgoM6179+6u4MQX8Cji/kZbLXP23nvv5Lbos/YJde2Zb9A4KldccYVr2TNgwICMP9M+1rdvX/d36KGHmvoU1rhk7dq1c/Nrn/T3AuEFPPPMM6472aFDh9qBBx7ovlKtRtVo9KHQZfvf84qAF8j33lTzq2BSXRpzH+T1eK0LAc7Z5u5RMl0P6sKXZVSWAMcDx0Nl7bHlGdv+/fu71kB6plcFbeXPqMKu7rHVC0j43l1dQiuoFx8CAvUp0KFDB9MfoXIFVKlTw74U8pyeXsCUTSHu+QwVUwikLt4OOugg19WbMpXV9ZQPelhWqa9q+CqTaezYsa7FgcYiUE3hOXPm2AEHHOBmz2c5frm81r1APv7KfFMLEXX9poO/Z8+e7mZCXQkdccQRdR8plliwQD7puddee5n+wkHHqPr9VQ0iBRXu5Tp23Yz8KzuBgQMHujG7VGirAgF10aVzr7oLU+a/xmUZMmSIHX/88WUXdyJUuIC66uzXr1/KAnTT3bFjR9f1m7pw22ijjWz8+PH24osvurF5mjdvnjJ/+IMKC9XFhK7XEydOtOeff97VJjzllFNs9dVXD8/q3uuhU8tWTSE9eOo3anGhm7+2bdu6ih9jxoxxrYa33HJLVyHkhRdesB49elizZs3cMtT6R93TvfbaayndxhWzbD/IZLUIMyG2AvncmwpH51K1kNV4VupCjvug2O4y9bLhnLMzXw84Z9fL7lb2C+V44Hgo+520zCOoilZ9+vRxXUTrfnrXXXd19zHKe9M4nJMmTXLP9qpkpWfC1VZbzXbfffeUrdK9v+YPB7UyIhM/LMJ7BOIl4FsMFvKcnk2KfIZUmYopBFL3UX6gXPXrHA6qZalCIAV1LaWCAjVNVYakdqJzzz3XdtxxR/d9vstxM/OvzgXy9b/gggtcCfC9995r+lPNWI0RFB4Dqs4jxwJrLZBveqYvWAV96S26ch276cvgc3kIqOa6D2qxp0FD1epDQe/VMohQ2QI6VnXMhoMKe/bbbz+76667TN0/+HDNNde4GoG33nqrux6rUEYPhsOGDfOzVHvVdVr7yfDhw039jasAqUuXLnbccce5V/8DxcOfN1q1auUKb1RZQEEFyZdeeqmf1UaOHOm6p7juuuvs2muvddNbtGjh7gXUikkFWI888oi7rqjwSAVFL7/8spuvmGUnI8AbBEIC+Vzf1AWuzp2+73zug0KAvK2VAOfs/K8HtYJl5ooU4HjgeKjIHbeBIp3peFFUMk1X5ZXRo0e7Cti611dlL93vnHPOOe7V/04FO3oO0HggPvh7//Tng6OPPppCII/EKwIREsh0DtHm+d5kfF5Dsc/p6WT+XEM+w/9kqoKmUIn/fYzOO/VHOmPGDFNmDqFyBTRgl9JRrb18xnLlbg0x9wIqONAJ35/0/XS9cuyGNcr/vbrfUqalv7FXSw71A+2PV6WnHxi9/LeGGGYSUO0ZFdL4NA7Po+8yHccaKFZ9gOvc7W/qwr8r5L3PJPdNvbXfTZkyxT2Y6lrv97nwsvUbDS6pMVbSu5BVd7EqyFYctSydl3wf5sUuOxwH3iPgBWq6vulcqspLqvQSDtwHhTV4n48A5+zaXw/ycWWeyhTgeOB4qMw9t2Firft9VeJLvxfJNl33+6rAlf4soOdBdbmkFkDp3zXMlrFWBBBoSIFs5xDFSecLDfkSDsU+p4eXlc/7OOUzRLYQKJ+EZh4EEEAAAQQQQAABBBBAAAEEEEAAAQQQQAABBBBAIKoCqf27RHUr2S4EEEAAAQQQQAABBBBAAAEEEEAAAQQQQAABBBBAIGYCFALFLMHZXAQQQAABBBBAAAEEEEAAAQQQQAABBBBAAAEEEIiHAIVA8UhnthIBBBBAAAEEEEAAAQQQQAABBBBAAAEEEEAAAQRiJkAhUMwSnM1FAAEEEEAAAQQQQAABBBBAAAEEEEAAAQQQQACBeAhQCBSPdGYrEUAAAQQQQAABBBBAAAEEEEAAAQQQQAABBBBAIGYCVYkgxGyb2VwEEEAAAQQQQAABBBBAAAEEEEAAAQQQQAABBBBAIPICtASKfBKzgQgggAACCCCAAAIIIIAAAggggAACCCCAAAIIIBBHAQqB4pjqbDMCCCCAAAIIIIAAAggggAACCCCAAAIIIIAAAghEXoBCoMgnMRuIAAIIIIAAAggggAACCCCAAAIIIIAAAggggAACcRSgECiOqc42I4AAAggggAACCCCAAAIIIIAAAggggAACCCCAQOQFKASKfBKzgQgggAACCCCAAAIIIIAAAggggAACCCCAAAIIIBBHAQqB4pjqbDMCCCCAAAIIIIAAAggggAACCCCAAAIIIIAAAghEXoBCoMgnMRuIAAIIIIAAAggggAACCCCAAAIIIIAAAggggAACcRSgECiOqc42I4AAAggggAACCCCAAAIIIIAAAggggAACCCCAQOQFKASKfBKzgQgggAACCCCAAAIIIIAAAggggAACCCCAAAIIIBBHAQqB4pjqbDMCCCCAAAIIIIAAAggggAACCCCAAAIIIIAAAghEXoBCoMgnMRuIAAIIIIAAAggggAACCCCAAAIIIIAAAggggAACcRSgECiOqc42I4AAAggggAACCCCAAAIIIIAAAggggAACCCCAQOQFKASKfBKzgQgggAACCCCAAAIIIIAAAggggAACCCCAAAIIIBBHAQqB4pjqbDMCCCCAAAIIIIAAAggggAACCCCAAAIIIIAAAghEXoBCoMgnMRuIAAIIIIAAAggggAACCCCAAAIIIIAAAggggAACcRSgECiOqc42I4AAAggggAACCCCAAAIIIIAAAggggAACCCCAQOQFIlUItGDBgmSCLVy40BYtWpT8HP4uOZE3ZSEQThvSrSySpE4jQfrWKWdZLow0LstkiVSk2McilZxszH8F2K/ZFaIqwL4d1ZRluwoR4HgoRI3flLsA+3W5pxDxQwCBbAJxPn9FphCod+/e1qZNG5s/f77NmzfP2rZta5qmMH78eGvZsqUNHz482z7A9AYSIN0aCL5EqyV9SwTdgKshjRsQPyarZh+LSULHbDPZr2OW4DHaXPbtGCU2m5pTgOMhJxEzVKAA+3UFJhpRRgABJxD381dkCoHmzp2b3KUTiYQrDKqqqnLTVDCkFiaE8hMg3covTeoyRqRvXWqW57JI4/JMlyjFin0sSqnJtngB9msvwWvUBNi3o5aibE8xAhwPxejx23IVYL8u15QhXgggkEsg7uevqqDAJJELqRK+V0GPNqVx48YuurNnz7all17afEHQzJkzbbnllquETYlVHEm3aCc36Rvt9NXWkcbRT+OG3kL2sYZOAdZfHwLs1/WhyjLLQYB9uxxSgTiUiwDHQ7mkBPGoSwH267rUZFkIIFBKgbifvyJTCFTKnYZ1IYAAAggggAACCCCAAAIIIIAAAggggAACCCCAAALlLhCZ7uDKHZr4IYAAAv/fnh0TARACAQx8jL0I7F2NTnCRahVkZtsQIECAAAECBAgQIECAAAECBAgQIECAQClgApXaWgQIECBAgAABAgQIECBAgAABAgQIECBAgACBQODf5zOBAmgJAgQIECBAgAABAgQIECBAgAABAgQIECBAgEAtYALV4noECBAgQIAAAQIECBAgQIAAAQIECBAgQIAAgUBgzcwNOhIECBAgQIAAAQIECBAgQIAAAQIECBAgQIAAAQKhwAPKQTkd9W+fywAAAABJRU5ErkJggg==;" parent="1" vertex="1">
          <mxGeometry x="1504" y="462" width="1694.96" height="396" as="geometry" />
        </mxCell>
        <mxCell id="cRZGMACJkbLvTWC903yB-170" value="&lt;div style=&quot;font-size: 30px;&quot;&gt;&lt;font style=&quot;font-size: 30px;&quot;&gt;Human Interaction (Data Collection)&lt;/font&gt;&lt;/div&gt;&lt;div style=&quot;font-size: 30px;&quot;&gt;&lt;font style=&quot;font-size: 30px;&quot;&gt;&lt;br&gt;&lt;/font&gt;&lt;/div&gt;&lt;div style=&quot;font-size: 30px;&quot;&gt;&lt;font style=&quot;font-size: 30px;&quot;&gt;&lt;br&gt;&lt;/font&gt;&lt;/div&gt;&lt;div style=&quot;font-size: 30px;&quot;&gt;&lt;font style=&quot;font-size: 30px;&quot;&gt;&lt;br&gt;&lt;/font&gt;&lt;/div&gt;&lt;div style=&quot;font-size: 30px;&quot;&gt;&lt;font style=&quot;font-size: 30px;&quot;&gt;&lt;br&gt;&lt;/font&gt;&lt;/div&gt;&lt;div style=&quot;font-size: 30px;&quot;&gt;&lt;font style=&quot;font-size: 30px;&quot;&gt;&lt;br&gt;&lt;/font&gt;&lt;/div&gt;&lt;div style=&quot;font-size: 30px;&quot;&gt;&lt;font style=&quot;font-size: 30px;&quot;&gt;&lt;br&gt;&lt;/font&gt;&lt;/div&gt;&lt;div style=&quot;font-size: 30px;&quot;&gt;&lt;font style=&quot;font-size: 30px;&quot;&gt;&lt;br&gt;&lt;/font&gt;&lt;/div&gt;&lt;div style=&quot;font-size: 30px;&quot;&gt;&lt;font style=&quot;font-size: 30px;&quot;&gt;&lt;br&gt;&lt;/font&gt;&lt;/div&gt;&lt;div style=&quot;font-size: 30px;&quot;&gt;&lt;font style=&quot;font-size: 30px;&quot;&gt;&lt;br&gt;&lt;/font&gt;&lt;/div&gt;" style="rounded=1;whiteSpace=wrap;html=1;fontSize=10;fontColor=#000000;" parent="1" vertex="1">
          <mxGeometry x="1610" y="146.5" width="550" height="240" as="geometry" />
        </mxCell>
        <mxCell id="IZo8DEPc2uxiSEUsqaxp-110" value="" style="shape=ext;double=1;rounded=1;whiteSpace=wrap;html=1;strokeWidth=1;fontSize=10;fillColor=default;" parent="1" vertex="1">
          <mxGeometry x="36" y="225" width="720" height="250" as="geometry" />
        </mxCell>
        <mxCell id="IZo8DEPc2uxiSEUsqaxp-111" value="Repetition 3" style="text;html=1;align=center;verticalAlign=middle;resizable=0;points=[];autosize=1;strokeColor=none;fillColor=none;fontSize=10;" parent="1" vertex="1">
          <mxGeometry x="60" y="224" width="80" height="30" as="geometry" />
        </mxCell>
        <mxCell id="IZo8DEPc2uxiSEUsqaxp-108" value="" style="shape=ext;double=1;rounded=1;whiteSpace=wrap;html=1;strokeWidth=1;fontSize=10;fillColor=default;" parent="1" vertex="1">
          <mxGeometry x="58" y="247" width="720" height="250" as="geometry" />
        </mxCell>
        <mxCell id="IZo8DEPc2uxiSEUsqaxp-109" value="Repetition 2" style="text;html=1;align=center;verticalAlign=middle;resizable=0;points=[];autosize=1;strokeColor=none;fillColor=none;fontSize=10;" parent="1" vertex="1">
          <mxGeometry x="82" y="246" width="80" height="30" as="geometry" />
        </mxCell>
        <mxCell id="IZo8DEPc2uxiSEUsqaxp-48" value="" style="shape=ext;double=1;rounded=1;whiteSpace=wrap;html=1;strokeWidth=1;fontSize=10;fillColor=default;" parent="1" vertex="1">
          <mxGeometry x="76" y="270" width="720" height="250" as="geometry" />
        </mxCell>
        <mxCell id="IZo8DEPc2uxiSEUsqaxp-14" value="" style="endArrow=classic;html=1;strokeColor=default;startArrow=none;" parent="1" source="IZo8DEPc2uxiSEUsqaxp-19" edge="1">
          <mxGeometry width="50" height="50" relative="1" as="geometry">
            <mxPoint x="126" y="429" as="sourcePoint" />
            <mxPoint x="316" y="429" as="targetPoint" />
          </mxGeometry>
        </mxCell>
        <mxCell id="IZo8DEPc2uxiSEUsqaxp-16" value="t=1" style="text;html=1;align=center;verticalAlign=middle;resizable=0;points=[];autosize=1;strokeColor=none;fillColor=none;" parent="1" vertex="1">
          <mxGeometry x="105" y="443" width="40" height="30" as="geometry" />
        </mxCell>
        <mxCell id="IZo8DEPc2uxiSEUsqaxp-18" value="&lt;div&gt;t=T&lt;sub&gt;m&lt;/sub&gt;&lt;/div&gt;" style="text;html=1;align=center;verticalAlign=middle;resizable=0;points=[];autosize=1;strokeColor=none;fillColor=none;" parent="1" vertex="1">
          <mxGeometry x="300" y="442" width="50" height="30" as="geometry" />
        </mxCell>
        <mxCell id="IZo8DEPc2uxiSEUsqaxp-20" value="" style="endArrow=none;html=1;strokeColor=default;" parent="1" target="IZo8DEPc2uxiSEUsqaxp-19" edge="1">
          <mxGeometry width="50" height="50" relative="1" as="geometry">
            <mxPoint x="126" y="429" as="sourcePoint" />
            <mxPoint x="316" y="429" as="targetPoint" />
          </mxGeometry>
        </mxCell>
        <mxCell id="IZo8DEPc2uxiSEUsqaxp-19" value="" style="shape=waypoint;sketch=0;fillStyle=solid;size=6;pointerEvents=1;points=[];fillColor=none;resizable=0;rotatable=0;perimeter=centerPerimeter;snapToPoint=1;strokeWidth=4;" parent="1" vertex="1">
          <mxGeometry x="116" y="419" width="20" height="20" as="geometry" />
        </mxCell>
        <mxCell id="IZo8DEPc2uxiSEUsqaxp-21" value="" style="shape=waypoint;sketch=0;fillStyle=solid;size=6;pointerEvents=1;points=[];fillColor=none;resizable=0;rotatable=0;perimeter=centerPerimeter;snapToPoint=1;strokeWidth=4;" parent="1" vertex="1">
          <mxGeometry x="313" y="419" width="20" height="20" as="geometry" />
        </mxCell>
        <mxCell id="IZo8DEPc2uxiSEUsqaxp-23" value="" style="shape=curlyBracket;whiteSpace=wrap;html=1;rounded=1;labelPosition=left;verticalLabelPosition=middle;align=right;verticalAlign=middle;fillColor=#000000;" parent="1" vertex="1">
          <mxGeometry x="338" y="369" width="20" height="120" as="geometry" />
        </mxCell>
        <mxCell id="IZo8DEPc2uxiSEUsqaxp-24" value="Simulation Start" style="text;html=1;align=center;verticalAlign=middle;resizable=0;points=[];autosize=1;strokeColor=none;fillColor=none;" parent="1" vertex="1">
          <mxGeometry x="70" y="389" width="110" height="30" as="geometry" />
        </mxCell>
        <mxCell id="IZo8DEPc2uxiSEUsqaxp-28" value="&lt;font style=&quot;font-size: 23px;&quot;&gt;Pre-Period&lt;/font&gt;" style="text;html=1;align=center;verticalAlign=middle;resizable=0;points=[];autosize=1;strokeColor=none;fillColor=none;" parent="1" vertex="1">
          <mxGeometry x="156" y="299" width="130" height="40" as="geometry" />
        </mxCell>
        <mxCell id="IZo8DEPc2uxiSEUsqaxp-30" value="&lt;font style=&quot;font-size: 23px;&quot;&gt;Mitigation Period&lt;br&gt;&lt;/font&gt;" style="text;html=1;align=center;verticalAlign=middle;resizable=0;points=[];autosize=1;strokeColor=none;fillColor=none;" parent="1" vertex="1">
          <mxGeometry x="431" y="299" width="190" height="40" as="geometry" />
        </mxCell>
        <mxCell id="IZo8DEPc2uxiSEUsqaxp-31" value="" style="endArrow=classic;html=1;strokeColor=default;startArrow=none;" parent="1" edge="1">
          <mxGeometry width="50" height="50" relative="1" as="geometry">
            <mxPoint x="348" y="379" as="sourcePoint" />
            <mxPoint x="708" y="379" as="targetPoint" />
          </mxGeometry>
        </mxCell>
        <mxCell id="IZo8DEPc2uxiSEUsqaxp-32" value="&lt;font style=&quot;font-size: 10px;&quot;&gt;No Mitigation&lt;/font&gt;" style="edgeLabel;html=1;align=center;verticalAlign=middle;resizable=0;points=[];fontSize=23;" parent="IZo8DEPc2uxiSEUsqaxp-31" vertex="1" connectable="0">
          <mxGeometry x="-0.6389" y="-3" relative="1" as="geometry">
            <mxPoint x="1" y="-7" as="offset" />
          </mxGeometry>
        </mxCell>
        <mxCell id="IZo8DEPc2uxiSEUsqaxp-33" value="" style="endArrow=classic;html=1;strokeColor=default;startArrow=none;" parent="1" edge="1">
          <mxGeometry width="50" height="50" relative="1" as="geometry">
            <mxPoint x="348" y="404" as="sourcePoint" />
            <mxPoint x="708" y="404" as="targetPoint" />
          </mxGeometry>
        </mxCell>
        <mxCell id="IZo8DEPc2uxiSEUsqaxp-34" value="&lt;font style=&quot;font-size: 10px;&quot;&gt;Mitigation 1&lt;br&gt;&lt;/font&gt;" style="edgeLabel;html=1;align=center;verticalAlign=middle;resizable=0;points=[];fontSize=23;" parent="IZo8DEPc2uxiSEUsqaxp-33" vertex="1" connectable="0">
          <mxGeometry x="-0.6389" y="-3" relative="1" as="geometry">
            <mxPoint y="-7" as="offset" />
          </mxGeometry>
        </mxCell>
        <mxCell id="IZo8DEPc2uxiSEUsqaxp-35" value="" style="endArrow=classic;html=1;strokeColor=default;startArrow=none;" parent="1" edge="1">
          <mxGeometry width="50" height="50" relative="1" as="geometry">
            <mxPoint x="348" y="429" as="sourcePoint" />
            <mxPoint x="708" y="429" as="targetPoint" />
          </mxGeometry>
        </mxCell>
        <mxCell id="IZo8DEPc2uxiSEUsqaxp-36" value="&lt;font style=&quot;font-size: 10px;&quot;&gt;Mitigation 2&lt;br&gt;&lt;/font&gt;" style="edgeLabel;html=1;align=center;verticalAlign=middle;resizable=0;points=[];fontSize=23;" parent="IZo8DEPc2uxiSEUsqaxp-35" vertex="1" connectable="0">
          <mxGeometry x="-0.6389" y="-3" relative="1" as="geometry">
            <mxPoint y="-7" as="offset" />
          </mxGeometry>
        </mxCell>
        <mxCell id="IZo8DEPc2uxiSEUsqaxp-37" value="" style="endArrow=classic;html=1;strokeColor=default;startArrow=none;" parent="1" edge="1">
          <mxGeometry width="50" height="50" relative="1" as="geometry">
            <mxPoint x="348" y="478" as="sourcePoint" />
            <mxPoint x="708" y="478" as="targetPoint" />
          </mxGeometry>
        </mxCell>
        <mxCell id="IZo8DEPc2uxiSEUsqaxp-38" value="&lt;font style=&quot;font-size: 10px;&quot;&gt;Mitigation 12&lt;br&gt;&lt;/font&gt;" style="edgeLabel;html=1;align=center;verticalAlign=middle;resizable=0;points=[];fontSize=23;" parent="IZo8DEPc2uxiSEUsqaxp-37" vertex="1" connectable="0">
          <mxGeometry x="-0.6389" y="-3" relative="1" as="geometry">
            <mxPoint y="-7" as="offset" />
          </mxGeometry>
        </mxCell>
        <mxCell id="IZo8DEPc2uxiSEUsqaxp-39" value="" style="shape=waypoint;sketch=0;fillStyle=solid;size=6;pointerEvents=1;points=[];fillColor=none;resizable=0;rotatable=0;perimeter=centerPerimeter;snapToPoint=1;strokeWidth=1;fontSize=10;" parent="1" vertex="1">
          <mxGeometry x="396" y="431" width="20" height="20" as="geometry" />
        </mxCell>
        <mxCell id="IZo8DEPc2uxiSEUsqaxp-40" value="" style="shape=waypoint;sketch=0;fillStyle=solid;size=6;pointerEvents=1;points=[];fillColor=none;resizable=0;rotatable=0;perimeter=centerPerimeter;snapToPoint=1;strokeWidth=1;fontSize=10;" parent="1" vertex="1">
          <mxGeometry x="396" y="444" width="20" height="20" as="geometry" />
        </mxCell>
        <mxCell id="IZo8DEPc2uxiSEUsqaxp-41" value="" style="shape=waypoint;sketch=0;fillStyle=solid;size=6;pointerEvents=1;points=[];fillColor=none;resizable=0;rotatable=0;perimeter=centerPerimeter;snapToPoint=1;strokeWidth=1;fontSize=10;" parent="1" vertex="1">
          <mxGeometry x="396" y="456" width="20" height="20" as="geometry" />
        </mxCell>
        <mxCell id="IZo8DEPc2uxiSEUsqaxp-42" value="" style="shape=waypoint;sketch=0;fillStyle=solid;size=6;pointerEvents=1;points=[];fillColor=none;resizable=0;rotatable=0;perimeter=centerPerimeter;snapToPoint=1;strokeWidth=4;" parent="1" vertex="1">
          <mxGeometry x="704" y="369" width="20" height="20" as="geometry" />
        </mxCell>
        <mxCell id="IZo8DEPc2uxiSEUsqaxp-43" value="" style="shape=waypoint;sketch=0;fillStyle=solid;size=6;pointerEvents=1;points=[];fillColor=none;resizable=0;rotatable=0;perimeter=centerPerimeter;snapToPoint=1;strokeWidth=4;" parent="1" vertex="1">
          <mxGeometry x="704" y="394" width="20" height="20" as="geometry" />
        </mxCell>
        <mxCell id="IZo8DEPc2uxiSEUsqaxp-44" value="" style="shape=waypoint;sketch=0;fillStyle=solid;size=6;pointerEvents=1;points=[];fillColor=none;resizable=0;rotatable=0;perimeter=centerPerimeter;snapToPoint=1;strokeWidth=4;" parent="1" vertex="1">
          <mxGeometry x="704" y="419" width="20" height="20" as="geometry" />
        </mxCell>
        <mxCell id="IZo8DEPc2uxiSEUsqaxp-45" value="" style="shape=waypoint;sketch=0;fillStyle=solid;size=6;pointerEvents=1;points=[];fillColor=none;resizable=0;rotatable=0;perimeter=centerPerimeter;snapToPoint=1;strokeWidth=4;" parent="1" vertex="1">
          <mxGeometry x="704" y="469" width="20" height="20" as="geometry" />
        </mxCell>
        <mxCell id="IZo8DEPc2uxiSEUsqaxp-46" value="&lt;div&gt;t=T&lt;/div&gt;" style="text;html=1;align=center;verticalAlign=middle;resizable=0;points=[];autosize=1;strokeColor=none;fillColor=none;" parent="1" vertex="1">
          <mxGeometry x="696" y="489" width="40" height="30" as="geometry" />
        </mxCell>
        <mxCell id="IZo8DEPc2uxiSEUsqaxp-47" value="Simulation End" style="text;html=1;align=center;verticalAlign=middle;resizable=0;points=[];autosize=1;strokeColor=none;fillColor=none;" parent="1" vertex="1">
          <mxGeometry x="666" y="331" width="100" height="30" as="geometry" />
        </mxCell>
        <mxCell id="IZo8DEPc2uxiSEUsqaxp-103" value="Repetition 1" style="text;html=1;align=center;verticalAlign=middle;resizable=0;points=[];autosize=1;strokeColor=none;fillColor=none;fontSize=10;" parent="1" vertex="1">
          <mxGeometry x="100" y="269" width="80" height="30" as="geometry" />
        </mxCell>
        <mxCell id="IZo8DEPc2uxiSEUsqaxp-112" value="" style="shape=waypoint;sketch=0;fillStyle=solid;size=6;pointerEvents=1;points=[];fillColor=none;resizable=0;rotatable=0;perimeter=centerPerimeter;snapToPoint=1;strokeWidth=0.5;fontSize=10;" parent="1" vertex="1">
          <mxGeometry x="53" y="212" width="20" height="20" as="geometry" />
        </mxCell>
        <mxCell id="IZo8DEPc2uxiSEUsqaxp-115" value="" style="shape=waypoint;sketch=0;fillStyle=solid;size=6;pointerEvents=1;points=[];fillColor=none;resizable=0;rotatable=0;perimeter=centerPerimeter;snapToPoint=1;strokeWidth=0.5;fontSize=10;" parent="1" vertex="1">
          <mxGeometry x="45" y="204" width="20" height="20" as="geometry" />
        </mxCell>
        <mxCell id="IZo8DEPc2uxiSEUsqaxp-116" value="" style="shape=waypoint;sketch=0;fillStyle=solid;size=6;pointerEvents=1;points=[];fillColor=none;resizable=0;rotatable=0;perimeter=centerPerimeter;snapToPoint=1;strokeWidth=0.5;fontSize=10;" parent="1" vertex="1">
          <mxGeometry x="36" y="196" width="20" height="20" as="geometry" />
        </mxCell>
        <mxCell id="IZo8DEPc2uxiSEUsqaxp-120" value="" style="shape=waypoint;sketch=0;fillStyle=solid;size=6;pointerEvents=1;points=[];fillColor=none;resizable=0;rotatable=0;perimeter=centerPerimeter;snapToPoint=1;strokeWidth=0.5;fontSize=10;" parent="1" vertex="1">
          <mxGeometry x="714.5" y="212" width="20" height="20" as="geometry" />
        </mxCell>
        <mxCell id="IZo8DEPc2uxiSEUsqaxp-121" value="" style="shape=waypoint;sketch=0;fillStyle=solid;size=6;pointerEvents=1;points=[];fillColor=none;resizable=0;rotatable=0;perimeter=centerPerimeter;snapToPoint=1;strokeWidth=0.5;fontSize=10;" parent="1" vertex="1">
          <mxGeometry x="706.5" y="204" width="20" height="20" as="geometry" />
        </mxCell>
        <mxCell id="IZo8DEPc2uxiSEUsqaxp-122" value="" style="shape=waypoint;sketch=0;fillStyle=solid;size=6;pointerEvents=1;points=[];fillColor=none;resizable=0;rotatable=0;perimeter=centerPerimeter;snapToPoint=1;strokeWidth=0.5;fontSize=10;" parent="1" vertex="1">
          <mxGeometry x="697.5" y="196" width="20" height="20" as="geometry" />
        </mxCell>
        <mxCell id="7cj05tstd-9p_z6Wy1r_-1" value="" style="rounded=1;whiteSpace=wrap;html=1;labelBackgroundColor=none;fontFamily=Verdana;fontSize=14;fillColor=#fad7ac;strokeColor=#b46504;" parent="1" vertex="1">
          <mxGeometry x="521.5" y="239" width="217" height="220" as="geometry" />
        </mxCell>
        <mxCell id="7cj05tstd-9p_z6Wy1r_-2" value="" style="rounded=1;whiteSpace=wrap;html=1;labelBackgroundColor=none;fontFamily=Verdana;fontSize=14;fillColor=#b0e3e6;strokeColor=#0e8088;" parent="1" vertex="1">
          <mxGeometry x="138" y="239" width="217" height="220" as="geometry" />
        </mxCell>
        <mxCell id="7cj05tstd-9p_z6Wy1r_-3" value="" style="rounded=1;whiteSpace=wrap;html=1;fontSize=13;strokeColor=#82b366;fillColor=#d5e8d4;strokeWidth=2;gradientColor=#97d077;" parent="1" vertex="1">
          <mxGeometry x="720.5" y="681" width="243" height="120" as="geometry" />
        </mxCell>
        <mxCell id="7cj05tstd-9p_z6Wy1r_-4" value="" style="rounded=1;whiteSpace=wrap;html=1;fontSize=13;strokeColor=#b85450;strokeWidth=2;fillColor=#f8cecc;gradientColor=#ea6b66;" parent="1" vertex="1">
          <mxGeometry x="529.5" y="809.5" width="218" height="110" as="geometry" />
        </mxCell>
        <mxCell id="7cj05tstd-9p_z6Wy1r_-5" value="" style="whiteSpace=wrap;html=1;aspect=fixed;fontSize=13;fillColor=#dae8fc;strokeColor=#6c8ebf;strokeWidth=2;rounded=1;gradientColor=#7ea6e0;" parent="1" vertex="1">
          <mxGeometry x="130" y="580" width="380" height="380" as="geometry" />
        </mxCell>
        <mxCell id="7cj05tstd-9p_z6Wy1r_-6" value="&lt;b&gt;&lt;font style=&quot;font-size: 14px&quot;&gt;Human-Interaction Phase&lt;/font&gt;&lt;/b&gt;" style="text;html=1;align=center;verticalAlign=middle;resizable=0;points=[];autosize=1;strokeColor=none;fillColor=none;" parent="1" vertex="1">
          <mxGeometry x="227" y="599" width="180" height="20" as="geometry" />
        </mxCell>
        <mxCell id="7cj05tstd-9p_z6Wy1r_-7" style="edgeStyle=orthogonalEdgeStyle;rounded=0;orthogonalLoop=1;jettySize=auto;html=1;exitX=0.5;exitY=1;exitDx=0;exitDy=0;fontSize=10;" parent="1" source="7cj05tstd-9p_z6Wy1r_-8" target="7cj05tstd-9p_z6Wy1r_-45" edge="1">
          <mxGeometry relative="1" as="geometry">
            <Array as="points">
              <mxPoint x="330.5" y="704" />
              <mxPoint x="304.5" y="704" />
            </Array>
          </mxGeometry>
        </mxCell>
        <mxCell id="7cj05tstd-9p_z6Wy1r_-8" value="Collect Human Decisions &lt;b&gt;h&lt;/b&gt; for Training Instances" style="rounded=1;whiteSpace=wrap;html=1;" parent="1" vertex="1">
          <mxGeometry x="245.5" y="642" width="170" height="50" as="geometry" />
        </mxCell>
        <mxCell id="7cj05tstd-9p_z6Wy1r_-9" style="edgeStyle=orthogonalEdgeStyle;rounded=0;orthogonalLoop=1;jettySize=auto;html=1;exitX=1;exitY=0.5;exitDx=0;exitDy=0;entryX=0;entryY=0.5;entryDx=0;entryDy=0;" parent="1" source="7cj05tstd-9p_z6Wy1r_-10" target="7cj05tstd-9p_z6Wy1r_-76" edge="1">
          <mxGeometry relative="1" as="geometry" />
        </mxCell>
        <mxCell id="7cj05tstd-9p_z6Wy1r_-10" value="Observing Discretion Behavior: Collect Accept/Reject Values &lt;b&gt;a&lt;/b&gt;&lt;sub&gt;d&lt;/sub&gt; for subset of Training Instances" style="rounded=1;whiteSpace=wrap;html=1;" parent="1" vertex="1">
          <mxGeometry x="246.5" y="819" width="198.5" height="91" as="geometry" />
        </mxCell>
        <mxCell id="7cj05tstd-9p_z6Wy1r_-11" style="edgeStyle=orthogonalEdgeStyle;rounded=0;orthogonalLoop=1;jettySize=auto;html=1;exitX=1;exitY=0.5;exitDx=0;exitDy=0;entryX=0;entryY=0.5;entryDx=0;entryDy=0;fontSize=10;" parent="1" source="7cj05tstd-9p_z6Wy1r_-12" target="7cj05tstd-9p_z6Wy1r_-91" edge="1">
          <mxGeometry relative="1" as="geometry" />
        </mxCell>
        <mxCell id="7cj05tstd-9p_z6Wy1r_-12" value="Train Discretion Model p(a|x)" style="rounded=1;whiteSpace=wrap;html=1;" parent="1" vertex="1">
          <mxGeometry x="548.5" y="850.5" width="130" height="30" as="geometry" />
        </mxCell>
        <mxCell id="7cj05tstd-9p_z6Wy1r_-13" style="edgeStyle=orthogonalEdgeStyle;rounded=0;orthogonalLoop=1;jettySize=auto;html=1;exitX=0;exitY=0.5;exitDx=0;exitDy=0;entryX=1;entryY=0.5;entryDx=0;entryDy=0;fontSize=10;" parent="1" source="7cj05tstd-9p_z6Wy1r_-16" target="7cj05tstd-9p_z6Wy1r_-8" edge="1">
          <mxGeometry relative="1" as="geometry" />
        </mxCell>
        <mxCell id="7cj05tstd-9p_z6Wy1r_-14" style="edgeStyle=orthogonalEdgeStyle;rounded=0;orthogonalLoop=1;jettySize=auto;html=1;exitX=0.5;exitY=1;exitDx=0;exitDy=0;entryX=0;entryY=0.5;entryDx=0;entryDy=0;" parent="1" source="7cj05tstd-9p_z6Wy1r_-16" target="7cj05tstd-9p_z6Wy1r_-104" edge="1">
          <mxGeometry relative="1" as="geometry">
            <Array as="points">
              <mxPoint x="588" y="748" />
            </Array>
          </mxGeometry>
        </mxCell>
        <mxCell id="7cj05tstd-9p_z6Wy1r_-15" style="edgeStyle=orthogonalEdgeStyle;rounded=0;orthogonalLoop=1;jettySize=auto;html=1;exitX=0;exitY=0.75;exitDx=0;exitDy=0;entryX=1;entryY=0.5;entryDx=0;entryDy=0;dashed=1;" parent="1" source="7cj05tstd-9p_z6Wy1r_-16" target="7cj05tstd-9p_z6Wy1r_-59" edge="1">
          <mxGeometry relative="1" as="geometry" />
        </mxCell>
        <mxCell id="7cj05tstd-9p_z6Wy1r_-16" value="X" style="shape=table;startSize=100;container=1;collapsible=0;childLayout=tableLayout;fontStyle=1;align=center;fillColor=#f5f5f5;horizontal=1;gradientColor=#b3b3b3;strokeColor=#666666;" parent="1" vertex="1">
          <mxGeometry x="561.5" y="632" width="53" height="70" as="geometry" />
        </mxCell>
        <mxCell id="7cj05tstd-9p_z6Wy1r_-17" value="" style="shape=tableRow;horizontal=0;startSize=0;swimlaneHead=0;swimlaneBody=0;top=0;left=0;bottom=0;right=0;collapsible=0;dropTarget=0;fillColor=none;points=[[0,0.5],[1,0.5]];portConstraint=eastwest;" parent="7cj05tstd-9p_z6Wy1r_-16" vertex="1" visible="0">
          <mxGeometry y="30" width="100" height="23" as="geometry" />
        </mxCell>
        <mxCell id="7cj05tstd-9p_z6Wy1r_-18" value="X1" style="shape=partialRectangle;html=1;whiteSpace=wrap;connectable=0;fillColor=none;top=0;left=0;bottom=0;right=0;overflow=hidden;" parent="7cj05tstd-9p_z6Wy1r_-17" vertex="1">
          <mxGeometry width="33" height="23" as="geometry">
            <mxRectangle width="33" height="23" as="alternateBounds" />
          </mxGeometry>
        </mxCell>
        <mxCell id="7cj05tstd-9p_z6Wy1r_-19" value="X2" style="shape=partialRectangle;html=1;whiteSpace=wrap;connectable=0;fillColor=none;top=0;left=0;bottom=0;right=0;overflow=hidden;" parent="7cj05tstd-9p_z6Wy1r_-17" vertex="1">
          <mxGeometry x="33" width="21" height="23" as="geometry">
            <mxRectangle width="21" height="23" as="alternateBounds" />
          </mxGeometry>
        </mxCell>
        <mxCell id="7cj05tstd-9p_z6Wy1r_-20" value="Y" style="shape=partialRectangle;html=1;whiteSpace=wrap;connectable=0;fillColor=none;top=0;left=0;bottom=0;right=0;overflow=hidden;" parent="7cj05tstd-9p_z6Wy1r_-17" vertex="1">
          <mxGeometry x="54" width="46" height="23" as="geometry">
            <mxRectangle width="46" height="23" as="alternateBounds" />
          </mxGeometry>
        </mxCell>
        <mxCell id="7cj05tstd-9p_z6Wy1r_-21" value="" style="shape=tableRow;horizontal=0;startSize=0;swimlaneHead=0;swimlaneBody=0;top=0;left=0;bottom=0;right=0;collapsible=0;dropTarget=0;fillColor=none;points=[[0,0.5],[1,0.5]];portConstraint=eastwest;" parent="7cj05tstd-9p_z6Wy1r_-16" vertex="1" visible="0">
          <mxGeometry y="53" width="100" height="24" as="geometry" />
        </mxCell>
        <mxCell id="7cj05tstd-9p_z6Wy1r_-22" value="" style="shape=partialRectangle;html=1;whiteSpace=wrap;connectable=0;fillColor=none;top=0;left=0;bottom=0;right=0;overflow=hidden;" parent="7cj05tstd-9p_z6Wy1r_-21" vertex="1">
          <mxGeometry width="33" height="24" as="geometry">
            <mxRectangle width="33" height="24" as="alternateBounds" />
          </mxGeometry>
        </mxCell>
        <mxCell id="7cj05tstd-9p_z6Wy1r_-23" value="" style="shape=partialRectangle;html=1;whiteSpace=wrap;connectable=0;fillColor=none;top=0;left=0;bottom=0;right=0;overflow=hidden;" parent="7cj05tstd-9p_z6Wy1r_-21" vertex="1">
          <mxGeometry x="33" width="21" height="24" as="geometry">
            <mxRectangle width="21" height="24" as="alternateBounds" />
          </mxGeometry>
        </mxCell>
        <mxCell id="7cj05tstd-9p_z6Wy1r_-24" value="" style="shape=partialRectangle;html=1;whiteSpace=wrap;connectable=0;fillColor=none;top=0;left=0;bottom=0;right=0;overflow=hidden;" parent="7cj05tstd-9p_z6Wy1r_-21" vertex="1">
          <mxGeometry x="54" width="46" height="24" as="geometry">
            <mxRectangle width="46" height="24" as="alternateBounds" />
          </mxGeometry>
        </mxCell>
        <mxCell id="7cj05tstd-9p_z6Wy1r_-25" value="" style="shape=tableRow;horizontal=0;startSize=0;swimlaneHead=0;swimlaneBody=0;top=0;left=0;bottom=0;right=0;collapsible=0;dropTarget=0;fillColor=none;points=[[0,0.5],[1,0.5]];portConstraint=eastwest;" parent="7cj05tstd-9p_z6Wy1r_-16" vertex="1" visible="0">
          <mxGeometry y="77" width="100" height="23" as="geometry" />
        </mxCell>
        <mxCell id="7cj05tstd-9p_z6Wy1r_-26" value="" style="shape=partialRectangle;html=1;whiteSpace=wrap;connectable=0;fillColor=none;top=0;left=0;bottom=0;right=0;overflow=hidden;" parent="7cj05tstd-9p_z6Wy1r_-25" vertex="1">
          <mxGeometry width="33" height="23" as="geometry">
            <mxRectangle width="33" height="23" as="alternateBounds" />
          </mxGeometry>
        </mxCell>
        <mxCell id="7cj05tstd-9p_z6Wy1r_-27" value="" style="shape=partialRectangle;html=1;whiteSpace=wrap;connectable=0;fillColor=none;top=0;left=0;bottom=0;right=0;overflow=hidden;" parent="7cj05tstd-9p_z6Wy1r_-25" vertex="1">
          <mxGeometry x="33" width="21" height="23" as="geometry">
            <mxRectangle width="21" height="23" as="alternateBounds" />
          </mxGeometry>
        </mxCell>
        <mxCell id="7cj05tstd-9p_z6Wy1r_-28" value="" style="shape=partialRectangle;html=1;whiteSpace=wrap;connectable=0;fillColor=none;top=0;left=0;bottom=0;right=0;overflow=hidden;" parent="7cj05tstd-9p_z6Wy1r_-25" vertex="1">
          <mxGeometry x="54" width="46" height="23" as="geometry">
            <mxRectangle width="46" height="23" as="alternateBounds" />
          </mxGeometry>
        </mxCell>
        <mxCell id="7cj05tstd-9p_z6Wy1r_-29" style="edgeStyle=orthogonalEdgeStyle;rounded=0;orthogonalLoop=1;jettySize=auto;html=1;exitX=0.5;exitY=1;exitDx=0;exitDy=0;entryX=0;entryY=0.25;entryDx=0;entryDy=0;fontSize=14;" parent="1" source="7cj05tstd-9p_z6Wy1r_-30" target="7cj05tstd-9p_z6Wy1r_-104" edge="1">
          <mxGeometry relative="1" as="geometry" />
        </mxCell>
        <mxCell id="7cj05tstd-9p_z6Wy1r_-30" value="Y" style="shape=table;startSize=100;container=1;collapsible=0;childLayout=tableLayout;fontStyle=1;align=center;fillColor=#f5f5f5;gradientColor=#b3b3b3;strokeColor=#666666;" parent="1" vertex="1">
          <mxGeometry x="624.5" y="632" width="27" height="70" as="geometry" />
        </mxCell>
        <mxCell id="7cj05tstd-9p_z6Wy1r_-31" value="" style="shape=tableRow;horizontal=0;startSize=0;swimlaneHead=0;swimlaneBody=0;top=0;left=0;bottom=0;right=0;collapsible=0;dropTarget=0;fillColor=none;points=[[0,0.5],[1,0.5]];portConstraint=eastwest;" parent="7cj05tstd-9p_z6Wy1r_-30" vertex="1" visible="0">
          <mxGeometry y="30" width="100" height="23" as="geometry" />
        </mxCell>
        <mxCell id="7cj05tstd-9p_z6Wy1r_-32" value="X1" style="shape=partialRectangle;html=1;whiteSpace=wrap;connectable=0;fillColor=none;top=0;left=0;bottom=0;right=0;overflow=hidden;" parent="7cj05tstd-9p_z6Wy1r_-31" vertex="1">
          <mxGeometry width="33" height="23" as="geometry">
            <mxRectangle width="33" height="23" as="alternateBounds" />
          </mxGeometry>
        </mxCell>
        <mxCell id="7cj05tstd-9p_z6Wy1r_-33" value="X2" style="shape=partialRectangle;html=1;whiteSpace=wrap;connectable=0;fillColor=none;top=0;left=0;bottom=0;right=0;overflow=hidden;" parent="7cj05tstd-9p_z6Wy1r_-31" vertex="1">
          <mxGeometry x="33" width="21" height="23" as="geometry">
            <mxRectangle width="21" height="23" as="alternateBounds" />
          </mxGeometry>
        </mxCell>
        <mxCell id="7cj05tstd-9p_z6Wy1r_-34" value="Y" style="shape=partialRectangle;html=1;whiteSpace=wrap;connectable=0;fillColor=none;top=0;left=0;bottom=0;right=0;overflow=hidden;" parent="7cj05tstd-9p_z6Wy1r_-31" vertex="1">
          <mxGeometry x="54" width="46" height="23" as="geometry">
            <mxRectangle width="46" height="23" as="alternateBounds" />
          </mxGeometry>
        </mxCell>
        <mxCell id="7cj05tstd-9p_z6Wy1r_-35" value="" style="shape=tableRow;horizontal=0;startSize=0;swimlaneHead=0;swimlaneBody=0;top=0;left=0;bottom=0;right=0;collapsible=0;dropTarget=0;fillColor=none;points=[[0,0.5],[1,0.5]];portConstraint=eastwest;" parent="7cj05tstd-9p_z6Wy1r_-30" vertex="1" visible="0">
          <mxGeometry y="53" width="100" height="24" as="geometry" />
        </mxCell>
        <mxCell id="7cj05tstd-9p_z6Wy1r_-36" value="" style="shape=partialRectangle;html=1;whiteSpace=wrap;connectable=0;fillColor=none;top=0;left=0;bottom=0;right=0;overflow=hidden;" parent="7cj05tstd-9p_z6Wy1r_-35" vertex="1">
          <mxGeometry width="33" height="24" as="geometry">
            <mxRectangle width="33" height="24" as="alternateBounds" />
          </mxGeometry>
        </mxCell>
        <mxCell id="7cj05tstd-9p_z6Wy1r_-37" value="" style="shape=partialRectangle;html=1;whiteSpace=wrap;connectable=0;fillColor=none;top=0;left=0;bottom=0;right=0;overflow=hidden;" parent="7cj05tstd-9p_z6Wy1r_-35" vertex="1">
          <mxGeometry x="33" width="21" height="24" as="geometry">
            <mxRectangle width="21" height="24" as="alternateBounds" />
          </mxGeometry>
        </mxCell>
        <mxCell id="7cj05tstd-9p_z6Wy1r_-38" value="" style="shape=partialRectangle;html=1;whiteSpace=wrap;connectable=0;fillColor=none;top=0;left=0;bottom=0;right=0;overflow=hidden;" parent="7cj05tstd-9p_z6Wy1r_-35" vertex="1">
          <mxGeometry x="54" width="46" height="24" as="geometry">
            <mxRectangle width="46" height="24" as="alternateBounds" />
          </mxGeometry>
        </mxCell>
        <mxCell id="7cj05tstd-9p_z6Wy1r_-39" value="" style="shape=tableRow;horizontal=0;startSize=0;swimlaneHead=0;swimlaneBody=0;top=0;left=0;bottom=0;right=0;collapsible=0;dropTarget=0;fillColor=none;points=[[0,0.5],[1,0.5]];portConstraint=eastwest;" parent="7cj05tstd-9p_z6Wy1r_-30" vertex="1" visible="0">
          <mxGeometry y="77" width="100" height="23" as="geometry" />
        </mxCell>
        <mxCell id="7cj05tstd-9p_z6Wy1r_-40" value="" style="shape=partialRectangle;html=1;whiteSpace=wrap;connectable=0;fillColor=none;top=0;left=0;bottom=0;right=0;overflow=hidden;" parent="7cj05tstd-9p_z6Wy1r_-39" vertex="1">
          <mxGeometry width="33" height="23" as="geometry">
            <mxRectangle width="33" height="23" as="alternateBounds" />
          </mxGeometry>
        </mxCell>
        <mxCell id="7cj05tstd-9p_z6Wy1r_-41" value="" style="shape=partialRectangle;html=1;whiteSpace=wrap;connectable=0;fillColor=none;top=0;left=0;bottom=0;right=0;overflow=hidden;" parent="7cj05tstd-9p_z6Wy1r_-39" vertex="1">
          <mxGeometry x="33" width="21" height="23" as="geometry">
            <mxRectangle width="21" height="23" as="alternateBounds" />
          </mxGeometry>
        </mxCell>
        <mxCell id="7cj05tstd-9p_z6Wy1r_-42" value="" style="shape=partialRectangle;html=1;whiteSpace=wrap;connectable=0;fillColor=none;top=0;left=0;bottom=0;right=0;overflow=hidden;" parent="7cj05tstd-9p_z6Wy1r_-39" vertex="1">
          <mxGeometry x="54" width="46" height="23" as="geometry">
            <mxRectangle width="46" height="23" as="alternateBounds" />
          </mxGeometry>
        </mxCell>
        <mxCell id="7cj05tstd-9p_z6Wy1r_-43" value="&lt;b&gt;Training Data&lt;/b&gt;" style="text;html=1;align=center;verticalAlign=middle;resizable=0;points=[];autosize=1;strokeColor=none;fillColor=none;" parent="1" vertex="1">
          <mxGeometry x="558.5" y="601" width="90" height="20" as="geometry" />
        </mxCell>
        <mxCell id="7cj05tstd-9p_z6Wy1r_-44" style="edgeStyle=orthogonalEdgeStyle;rounded=0;orthogonalLoop=1;jettySize=auto;html=1;exitX=1;exitY=0.25;exitDx=0;exitDy=0;fontSize=13;entryX=0;entryY=0.75;entryDx=0;entryDy=0;" parent="1" source="7cj05tstd-9p_z6Wy1r_-45" target="7cj05tstd-9p_z6Wy1r_-104" edge="1">
          <mxGeometry relative="1" as="geometry">
            <mxPoint x="765.5" y="746" as="targetPoint" />
            <Array as="points">
              <mxPoint x="320" y="747" />
              <mxPoint x="575" y="747" />
              <mxPoint x="575" y="761" />
            </Array>
          </mxGeometry>
        </mxCell>
        <mxCell id="7cj05tstd-9p_z6Wy1r_-45" value="h" style="shape=table;startSize=100;container=1;collapsible=0;childLayout=tableLayout;fontStyle=1;align=center;fillColor=#f5f5f5;gradientColor=#b3b3b3;strokeColor=#666666;" parent="1" vertex="1">
          <mxGeometry x="289.5" y="720" width="30" height="70" as="geometry" />
        </mxCell>
        <mxCell id="7cj05tstd-9p_z6Wy1r_-46" value="" style="shape=tableRow;horizontal=0;startSize=0;swimlaneHead=0;swimlaneBody=0;top=0;left=0;bottom=0;right=0;collapsible=0;dropTarget=0;fillColor=none;points=[[0,0.5],[1,0.5]];portConstraint=eastwest;" parent="7cj05tstd-9p_z6Wy1r_-45" vertex="1" visible="0">
          <mxGeometry y="30" width="100" height="23" as="geometry" />
        </mxCell>
        <mxCell id="7cj05tstd-9p_z6Wy1r_-47" value="X1" style="shape=partialRectangle;html=1;whiteSpace=wrap;connectable=0;fillColor=none;top=0;left=0;bottom=0;right=0;overflow=hidden;" parent="7cj05tstd-9p_z6Wy1r_-46" vertex="1">
          <mxGeometry width="33" height="23" as="geometry">
            <mxRectangle width="33" height="23" as="alternateBounds" />
          </mxGeometry>
        </mxCell>
        <mxCell id="7cj05tstd-9p_z6Wy1r_-48" value="X2" style="shape=partialRectangle;html=1;whiteSpace=wrap;connectable=0;fillColor=none;top=0;left=0;bottom=0;right=0;overflow=hidden;" parent="7cj05tstd-9p_z6Wy1r_-46" vertex="1">
          <mxGeometry x="33" width="21" height="23" as="geometry">
            <mxRectangle width="21" height="23" as="alternateBounds" />
          </mxGeometry>
        </mxCell>
        <mxCell id="7cj05tstd-9p_z6Wy1r_-49" value="Y" style="shape=partialRectangle;html=1;whiteSpace=wrap;connectable=0;fillColor=none;top=0;left=0;bottom=0;right=0;overflow=hidden;" parent="7cj05tstd-9p_z6Wy1r_-46" vertex="1">
          <mxGeometry x="54" width="46" height="23" as="geometry">
            <mxRectangle width="46" height="23" as="alternateBounds" />
          </mxGeometry>
        </mxCell>
        <mxCell id="7cj05tstd-9p_z6Wy1r_-50" value="" style="shape=tableRow;horizontal=0;startSize=0;swimlaneHead=0;swimlaneBody=0;top=0;left=0;bottom=0;right=0;collapsible=0;dropTarget=0;fillColor=none;points=[[0,0.5],[1,0.5]];portConstraint=eastwest;" parent="7cj05tstd-9p_z6Wy1r_-45" vertex="1" visible="0">
          <mxGeometry y="53" width="100" height="24" as="geometry" />
        </mxCell>
        <mxCell id="7cj05tstd-9p_z6Wy1r_-51" value="" style="shape=partialRectangle;html=1;whiteSpace=wrap;connectable=0;fillColor=none;top=0;left=0;bottom=0;right=0;overflow=hidden;" parent="7cj05tstd-9p_z6Wy1r_-50" vertex="1">
          <mxGeometry width="33" height="24" as="geometry">
            <mxRectangle width="33" height="24" as="alternateBounds" />
          </mxGeometry>
        </mxCell>
        <mxCell id="7cj05tstd-9p_z6Wy1r_-52" value="" style="shape=partialRectangle;html=1;whiteSpace=wrap;connectable=0;fillColor=none;top=0;left=0;bottom=0;right=0;overflow=hidden;" parent="7cj05tstd-9p_z6Wy1r_-50" vertex="1">
          <mxGeometry x="33" width="21" height="24" as="geometry">
            <mxRectangle width="21" height="24" as="alternateBounds" />
          </mxGeometry>
        </mxCell>
        <mxCell id="7cj05tstd-9p_z6Wy1r_-53" value="" style="shape=partialRectangle;html=1;whiteSpace=wrap;connectable=0;fillColor=none;top=0;left=0;bottom=0;right=0;overflow=hidden;" parent="7cj05tstd-9p_z6Wy1r_-50" vertex="1">
          <mxGeometry x="54" width="46" height="24" as="geometry">
            <mxRectangle width="46" height="24" as="alternateBounds" />
          </mxGeometry>
        </mxCell>
        <mxCell id="7cj05tstd-9p_z6Wy1r_-54" value="" style="shape=tableRow;horizontal=0;startSize=0;swimlaneHead=0;swimlaneBody=0;top=0;left=0;bottom=0;right=0;collapsible=0;dropTarget=0;fillColor=none;points=[[0,0.5],[1,0.5]];portConstraint=eastwest;" parent="7cj05tstd-9p_z6Wy1r_-45" vertex="1" visible="0">
          <mxGeometry y="77" width="100" height="23" as="geometry" />
        </mxCell>
        <mxCell id="7cj05tstd-9p_z6Wy1r_-55" value="" style="shape=partialRectangle;html=1;whiteSpace=wrap;connectable=0;fillColor=none;top=0;left=0;bottom=0;right=0;overflow=hidden;" parent="7cj05tstd-9p_z6Wy1r_-54" vertex="1">
          <mxGeometry width="33" height="23" as="geometry">
            <mxRectangle width="33" height="23" as="alternateBounds" />
          </mxGeometry>
        </mxCell>
        <mxCell id="7cj05tstd-9p_z6Wy1r_-56" value="" style="shape=partialRectangle;html=1;whiteSpace=wrap;connectable=0;fillColor=none;top=0;left=0;bottom=0;right=0;overflow=hidden;" parent="7cj05tstd-9p_z6Wy1r_-54" vertex="1">
          <mxGeometry x="33" width="21" height="23" as="geometry">
            <mxRectangle width="21" height="23" as="alternateBounds" />
          </mxGeometry>
        </mxCell>
        <mxCell id="7cj05tstd-9p_z6Wy1r_-57" value="" style="shape=partialRectangle;html=1;whiteSpace=wrap;connectable=0;fillColor=none;top=0;left=0;bottom=0;right=0;overflow=hidden;" parent="7cj05tstd-9p_z6Wy1r_-54" vertex="1">
          <mxGeometry x="54" width="46" height="23" as="geometry">
            <mxRectangle width="46" height="23" as="alternateBounds" />
          </mxGeometry>
        </mxCell>
        <mxCell id="7cj05tstd-9p_z6Wy1r_-58" style="edgeStyle=orthogonalEdgeStyle;rounded=0;orthogonalLoop=1;jettySize=auto;html=1;exitX=0.5;exitY=1;exitDx=0;exitDy=0;fontSize=8;" parent="1" source="7cj05tstd-9p_z6Wy1r_-59" edge="1">
          <mxGeometry relative="1" as="geometry">
            <mxPoint x="372" y="819" as="targetPoint" />
            <Array as="points">
              <mxPoint x="372" y="819" />
            </Array>
          </mxGeometry>
        </mxCell>
        <mxCell id="7cj05tstd-9p_z6Wy1r_-59" value="X" style="shape=table;startSize=100;container=1;collapsible=0;childLayout=tableLayout;fontStyle=1;align=center;fillColor=#f5f5f5;gradientColor=#b3b3b3;strokeColor=#666666;" parent="1" vertex="1">
          <mxGeometry x="345" y="768" width="53" height="32" as="geometry" />
        </mxCell>
        <mxCell id="7cj05tstd-9p_z6Wy1r_-60" value="" style="shape=tableRow;horizontal=0;startSize=0;swimlaneHead=0;swimlaneBody=0;top=0;left=0;bottom=0;right=0;collapsible=0;dropTarget=0;fillColor=none;points=[[0,0.5],[1,0.5]];portConstraint=eastwest;" parent="7cj05tstd-9p_z6Wy1r_-59" vertex="1" visible="0">
          <mxGeometry y="30" width="100" height="23" as="geometry" />
        </mxCell>
        <mxCell id="7cj05tstd-9p_z6Wy1r_-61" value="X1" style="shape=partialRectangle;html=1;whiteSpace=wrap;connectable=0;fillColor=none;top=0;left=0;bottom=0;right=0;overflow=hidden;" parent="7cj05tstd-9p_z6Wy1r_-60" vertex="1">
          <mxGeometry width="33" height="23" as="geometry">
            <mxRectangle width="33" height="23" as="alternateBounds" />
          </mxGeometry>
        </mxCell>
        <mxCell id="7cj05tstd-9p_z6Wy1r_-62" value="X2" style="shape=partialRectangle;html=1;whiteSpace=wrap;connectable=0;fillColor=none;top=0;left=0;bottom=0;right=0;overflow=hidden;" parent="7cj05tstd-9p_z6Wy1r_-60" vertex="1">
          <mxGeometry x="33" width="21" height="23" as="geometry">
            <mxRectangle width="21" height="23" as="alternateBounds" />
          </mxGeometry>
        </mxCell>
        <mxCell id="7cj05tstd-9p_z6Wy1r_-63" value="Y" style="shape=partialRectangle;html=1;whiteSpace=wrap;connectable=0;fillColor=none;top=0;left=0;bottom=0;right=0;overflow=hidden;" parent="7cj05tstd-9p_z6Wy1r_-60" vertex="1">
          <mxGeometry x="54" width="46" height="23" as="geometry">
            <mxRectangle width="46" height="23" as="alternateBounds" />
          </mxGeometry>
        </mxCell>
        <mxCell id="7cj05tstd-9p_z6Wy1r_-64" value="" style="shape=tableRow;horizontal=0;startSize=0;swimlaneHead=0;swimlaneBody=0;top=0;left=0;bottom=0;right=0;collapsible=0;dropTarget=0;fillColor=none;points=[[0,0.5],[1,0.5]];portConstraint=eastwest;" parent="7cj05tstd-9p_z6Wy1r_-59" vertex="1" visible="0">
          <mxGeometry y="53" width="100" height="24" as="geometry" />
        </mxCell>
        <mxCell id="7cj05tstd-9p_z6Wy1r_-65" value="" style="shape=partialRectangle;html=1;whiteSpace=wrap;connectable=0;fillColor=none;top=0;left=0;bottom=0;right=0;overflow=hidden;" parent="7cj05tstd-9p_z6Wy1r_-64" vertex="1">
          <mxGeometry width="33" height="24" as="geometry">
            <mxRectangle width="33" height="24" as="alternateBounds" />
          </mxGeometry>
        </mxCell>
        <mxCell id="7cj05tstd-9p_z6Wy1r_-66" value="" style="shape=partialRectangle;html=1;whiteSpace=wrap;connectable=0;fillColor=none;top=0;left=0;bottom=0;right=0;overflow=hidden;" parent="7cj05tstd-9p_z6Wy1r_-64" vertex="1">
          <mxGeometry x="33" width="21" height="24" as="geometry">
            <mxRectangle width="21" height="24" as="alternateBounds" />
          </mxGeometry>
        </mxCell>
        <mxCell id="7cj05tstd-9p_z6Wy1r_-67" value="" style="shape=partialRectangle;html=1;whiteSpace=wrap;connectable=0;fillColor=none;top=0;left=0;bottom=0;right=0;overflow=hidden;" parent="7cj05tstd-9p_z6Wy1r_-64" vertex="1">
          <mxGeometry x="54" width="46" height="24" as="geometry">
            <mxRectangle width="46" height="24" as="alternateBounds" />
          </mxGeometry>
        </mxCell>
        <mxCell id="7cj05tstd-9p_z6Wy1r_-68" value="" style="shape=tableRow;horizontal=0;startSize=0;swimlaneHead=0;swimlaneBody=0;top=0;left=0;bottom=0;right=0;collapsible=0;dropTarget=0;fillColor=none;points=[[0,0.5],[1,0.5]];portConstraint=eastwest;" parent="7cj05tstd-9p_z6Wy1r_-59" vertex="1" visible="0">
          <mxGeometry y="77" width="100" height="23" as="geometry" />
        </mxCell>
        <mxCell id="7cj05tstd-9p_z6Wy1r_-69" value="" style="shape=partialRectangle;html=1;whiteSpace=wrap;connectable=0;fillColor=none;top=0;left=0;bottom=0;right=0;overflow=hidden;" parent="7cj05tstd-9p_z6Wy1r_-68" vertex="1">
          <mxGeometry width="33" height="23" as="geometry">
            <mxRectangle width="33" height="23" as="alternateBounds" />
          </mxGeometry>
        </mxCell>
        <mxCell id="7cj05tstd-9p_z6Wy1r_-70" value="" style="shape=partialRectangle;html=1;whiteSpace=wrap;connectable=0;fillColor=none;top=0;left=0;bottom=0;right=0;overflow=hidden;" parent="7cj05tstd-9p_z6Wy1r_-68" vertex="1">
          <mxGeometry x="33" width="21" height="23" as="geometry">
            <mxRectangle width="21" height="23" as="alternateBounds" />
          </mxGeometry>
        </mxCell>
        <mxCell id="7cj05tstd-9p_z6Wy1r_-71" value="" style="shape=partialRectangle;html=1;whiteSpace=wrap;connectable=0;fillColor=none;top=0;left=0;bottom=0;right=0;overflow=hidden;" parent="7cj05tstd-9p_z6Wy1r_-68" vertex="1">
          <mxGeometry x="54" width="46" height="23" as="geometry">
            <mxRectangle width="46" height="23" as="alternateBounds" />
          </mxGeometry>
        </mxCell>
        <mxCell id="7cj05tstd-9p_z6Wy1r_-72" style="edgeStyle=orthogonalEdgeStyle;rounded=0;orthogonalLoop=1;jettySize=auto;html=1;exitX=0.75;exitY=0.25;exitDx=0;exitDy=0;exitPerimeter=0;entryX=0;entryY=0.5;entryDx=0;entryDy=0;fontSize=10;" parent="1" source="7cj05tstd-9p_z6Wy1r_-74" target="7cj05tstd-9p_z6Wy1r_-8" edge="1">
          <mxGeometry relative="1" as="geometry" />
        </mxCell>
        <mxCell id="7cj05tstd-9p_z6Wy1r_-73" style="edgeStyle=orthogonalEdgeStyle;rounded=0;orthogonalLoop=1;jettySize=auto;html=1;exitX=1;exitY=0.75;exitDx=0;exitDy=0;entryX=0;entryY=0.5;entryDx=0;entryDy=0;fontSize=10;" parent="1" source="7cj05tstd-9p_z6Wy1r_-74" target="7cj05tstd-9p_z6Wy1r_-10" edge="1">
          <mxGeometry relative="1" as="geometry" />
        </mxCell>
        <mxCell id="7cj05tstd-9p_z6Wy1r_-74" value="" style="shape=actor;whiteSpace=wrap;html=1;fontSize=7;fillColor=#f5f5f5;strokeColor=#666666;gradientColor=#b3b3b3;" parent="1" vertex="1">
          <mxGeometry x="156.5" y="768" width="45" height="51" as="geometry" />
        </mxCell>
        <mxCell id="7cj05tstd-9p_z6Wy1r_-75" style="edgeStyle=orthogonalEdgeStyle;rounded=0;orthogonalLoop=1;jettySize=auto;html=1;exitX=1;exitY=0.5;exitDx=0;exitDy=0;entryX=0;entryY=0.5;entryDx=0;entryDy=0;fontSize=10;" parent="1" source="7cj05tstd-9p_z6Wy1r_-76" target="7cj05tstd-9p_z6Wy1r_-12" edge="1">
          <mxGeometry relative="1" as="geometry" />
        </mxCell>
        <mxCell id="7cj05tstd-9p_z6Wy1r_-76" value="a" style="shape=table;startSize=100;container=1;collapsible=0;childLayout=tableLayout;fontStyle=1;align=center;fillColor=#f5f5f5;gradientColor=#b3b3b3;strokeColor=#666666;" parent="1" vertex="1">
          <mxGeometry x="465" y="847.5" width="29" height="35" as="geometry" />
        </mxCell>
        <mxCell id="7cj05tstd-9p_z6Wy1r_-77" value="" style="shape=tableRow;horizontal=0;startSize=0;swimlaneHead=0;swimlaneBody=0;top=0;left=0;bottom=0;right=0;collapsible=0;dropTarget=0;fillColor=none;points=[[0,0.5],[1,0.5]];portConstraint=eastwest;" parent="7cj05tstd-9p_z6Wy1r_-76" vertex="1" visible="0">
          <mxGeometry y="30" width="100" height="23" as="geometry" />
        </mxCell>
        <mxCell id="7cj05tstd-9p_z6Wy1r_-78" value="X1" style="shape=partialRectangle;html=1;whiteSpace=wrap;connectable=0;fillColor=none;top=0;left=0;bottom=0;right=0;overflow=hidden;" parent="7cj05tstd-9p_z6Wy1r_-77" vertex="1">
          <mxGeometry width="33" height="23" as="geometry">
            <mxRectangle width="33" height="23" as="alternateBounds" />
          </mxGeometry>
        </mxCell>
        <mxCell id="7cj05tstd-9p_z6Wy1r_-79" value="X2" style="shape=partialRectangle;html=1;whiteSpace=wrap;connectable=0;fillColor=none;top=0;left=0;bottom=0;right=0;overflow=hidden;" parent="7cj05tstd-9p_z6Wy1r_-77" vertex="1">
          <mxGeometry x="33" width="21" height="23" as="geometry">
            <mxRectangle width="21" height="23" as="alternateBounds" />
          </mxGeometry>
        </mxCell>
        <mxCell id="7cj05tstd-9p_z6Wy1r_-80" value="Y" style="shape=partialRectangle;html=1;whiteSpace=wrap;connectable=0;fillColor=none;top=0;left=0;bottom=0;right=0;overflow=hidden;" parent="7cj05tstd-9p_z6Wy1r_-77" vertex="1">
          <mxGeometry x="54" width="46" height="23" as="geometry">
            <mxRectangle width="46" height="23" as="alternateBounds" />
          </mxGeometry>
        </mxCell>
        <mxCell id="7cj05tstd-9p_z6Wy1r_-81" value="" style="shape=tableRow;horizontal=0;startSize=0;swimlaneHead=0;swimlaneBody=0;top=0;left=0;bottom=0;right=0;collapsible=0;dropTarget=0;fillColor=none;points=[[0,0.5],[1,0.5]];portConstraint=eastwest;" parent="7cj05tstd-9p_z6Wy1r_-76" vertex="1" visible="0">
          <mxGeometry y="53" width="100" height="24" as="geometry" />
        </mxCell>
        <mxCell id="7cj05tstd-9p_z6Wy1r_-82" value="" style="shape=partialRectangle;html=1;whiteSpace=wrap;connectable=0;fillColor=none;top=0;left=0;bottom=0;right=0;overflow=hidden;" parent="7cj05tstd-9p_z6Wy1r_-81" vertex="1">
          <mxGeometry width="33" height="24" as="geometry">
            <mxRectangle width="33" height="24" as="alternateBounds" />
          </mxGeometry>
        </mxCell>
        <mxCell id="7cj05tstd-9p_z6Wy1r_-83" value="" style="shape=partialRectangle;html=1;whiteSpace=wrap;connectable=0;fillColor=none;top=0;left=0;bottom=0;right=0;overflow=hidden;" parent="7cj05tstd-9p_z6Wy1r_-81" vertex="1">
          <mxGeometry x="33" width="21" height="24" as="geometry">
            <mxRectangle width="21" height="24" as="alternateBounds" />
          </mxGeometry>
        </mxCell>
        <mxCell id="7cj05tstd-9p_z6Wy1r_-84" value="" style="shape=partialRectangle;html=1;whiteSpace=wrap;connectable=0;fillColor=none;top=0;left=0;bottom=0;right=0;overflow=hidden;" parent="7cj05tstd-9p_z6Wy1r_-81" vertex="1">
          <mxGeometry x="54" width="46" height="24" as="geometry">
            <mxRectangle width="46" height="24" as="alternateBounds" />
          </mxGeometry>
        </mxCell>
        <mxCell id="7cj05tstd-9p_z6Wy1r_-85" value="" style="shape=tableRow;horizontal=0;startSize=0;swimlaneHead=0;swimlaneBody=0;top=0;left=0;bottom=0;right=0;collapsible=0;dropTarget=0;fillColor=none;points=[[0,0.5],[1,0.5]];portConstraint=eastwest;" parent="7cj05tstd-9p_z6Wy1r_-76" vertex="1" visible="0">
          <mxGeometry y="77" width="100" height="23" as="geometry" />
        </mxCell>
        <mxCell id="7cj05tstd-9p_z6Wy1r_-86" value="" style="shape=partialRectangle;html=1;whiteSpace=wrap;connectable=0;fillColor=none;top=0;left=0;bottom=0;right=0;overflow=hidden;" parent="7cj05tstd-9p_z6Wy1r_-85" vertex="1">
          <mxGeometry width="33" height="23" as="geometry">
            <mxRectangle width="33" height="23" as="alternateBounds" />
          </mxGeometry>
        </mxCell>
        <mxCell id="7cj05tstd-9p_z6Wy1r_-87" value="" style="shape=partialRectangle;html=1;whiteSpace=wrap;connectable=0;fillColor=none;top=0;left=0;bottom=0;right=0;overflow=hidden;" parent="7cj05tstd-9p_z6Wy1r_-85" vertex="1">
          <mxGeometry x="33" width="21" height="23" as="geometry">
            <mxRectangle width="21" height="23" as="alternateBounds" />
          </mxGeometry>
        </mxCell>
        <mxCell id="7cj05tstd-9p_z6Wy1r_-88" value="" style="shape=partialRectangle;html=1;whiteSpace=wrap;connectable=0;fillColor=none;top=0;left=0;bottom=0;right=0;overflow=hidden;" parent="7cj05tstd-9p_z6Wy1r_-85" vertex="1">
          <mxGeometry x="54" width="46" height="23" as="geometry">
            <mxRectangle width="46" height="23" as="alternateBounds" />
          </mxGeometry>
        </mxCell>
        <mxCell id="7cj05tstd-9p_z6Wy1r_-89" value="d" style="text;html=1;align=center;verticalAlign=middle;resizable=0;points=[];autosize=1;strokeColor=none;fillColor=none;fontSize=7;" parent="1" vertex="1">
          <mxGeometry x="475" y="863.5" width="20" height="10" as="geometry" />
        </mxCell>
        <mxCell id="7cj05tstd-9p_z6Wy1r_-90" style="edgeStyle=orthogonalEdgeStyle;rounded=0;orthogonalLoop=1;jettySize=auto;html=1;exitX=1;exitY=0.5;exitDx=0;exitDy=0;fontSize=13;entryX=0.5;entryY=1;entryDx=0;entryDy=0;" parent="1" source="7cj05tstd-9p_z6Wy1r_-91" target="7cj05tstd-9p_z6Wy1r_-104" edge="1">
          <mxGeometry relative="1" as="geometry">
            <mxPoint x="846.5" y="858.2222222222222" as="targetPoint" />
          </mxGeometry>
        </mxCell>
        <mxCell id="7cj05tstd-9p_z6Wy1r_-91" value="p(a)" style="shape=table;startSize=100;container=1;collapsible=0;childLayout=tableLayout;fontStyle=1;align=center;fillColor=#f5f5f5;fontSize=10;gradientColor=#b3b3b3;strokeColor=#666666;" parent="1" vertex="1">
          <mxGeometry x="708.5" y="831" width="30" height="70" as="geometry" />
        </mxCell>
        <mxCell id="7cj05tstd-9p_z6Wy1r_-92" value="" style="shape=tableRow;horizontal=0;startSize=0;swimlaneHead=0;swimlaneBody=0;top=0;left=0;bottom=0;right=0;collapsible=0;dropTarget=0;fillColor=none;points=[[0,0.5],[1,0.5]];portConstraint=eastwest;" parent="7cj05tstd-9p_z6Wy1r_-91" vertex="1" visible="0">
          <mxGeometry y="30" width="100" height="23" as="geometry" />
        </mxCell>
        <mxCell id="7cj05tstd-9p_z6Wy1r_-93" value="X1" style="shape=partialRectangle;html=1;whiteSpace=wrap;connectable=0;fillColor=none;top=0;left=0;bottom=0;right=0;overflow=hidden;" parent="7cj05tstd-9p_z6Wy1r_-92" vertex="1">
          <mxGeometry width="33" height="23" as="geometry">
            <mxRectangle width="33" height="23" as="alternateBounds" />
          </mxGeometry>
        </mxCell>
        <mxCell id="7cj05tstd-9p_z6Wy1r_-94" value="X2" style="shape=partialRectangle;html=1;whiteSpace=wrap;connectable=0;fillColor=none;top=0;left=0;bottom=0;right=0;overflow=hidden;" parent="7cj05tstd-9p_z6Wy1r_-92" vertex="1">
          <mxGeometry x="33" width="21" height="23" as="geometry">
            <mxRectangle width="21" height="23" as="alternateBounds" />
          </mxGeometry>
        </mxCell>
        <mxCell id="7cj05tstd-9p_z6Wy1r_-95" value="Y" style="shape=partialRectangle;html=1;whiteSpace=wrap;connectable=0;fillColor=none;top=0;left=0;bottom=0;right=0;overflow=hidden;" parent="7cj05tstd-9p_z6Wy1r_-92" vertex="1">
          <mxGeometry x="54" width="46" height="23" as="geometry">
            <mxRectangle width="46" height="23" as="alternateBounds" />
          </mxGeometry>
        </mxCell>
        <mxCell id="7cj05tstd-9p_z6Wy1r_-96" value="" style="shape=tableRow;horizontal=0;startSize=0;swimlaneHead=0;swimlaneBody=0;top=0;left=0;bottom=0;right=0;collapsible=0;dropTarget=0;fillColor=none;points=[[0,0.5],[1,0.5]];portConstraint=eastwest;" parent="7cj05tstd-9p_z6Wy1r_-91" vertex="1" visible="0">
          <mxGeometry y="53" width="100" height="24" as="geometry" />
        </mxCell>
        <mxCell id="7cj05tstd-9p_z6Wy1r_-97" value="" style="shape=partialRectangle;html=1;whiteSpace=wrap;connectable=0;fillColor=none;top=0;left=0;bottom=0;right=0;overflow=hidden;" parent="7cj05tstd-9p_z6Wy1r_-96" vertex="1">
          <mxGeometry width="33" height="24" as="geometry">
            <mxRectangle width="33" height="24" as="alternateBounds" />
          </mxGeometry>
        </mxCell>
        <mxCell id="7cj05tstd-9p_z6Wy1r_-98" value="" style="shape=partialRectangle;html=1;whiteSpace=wrap;connectable=0;fillColor=none;top=0;left=0;bottom=0;right=0;overflow=hidden;" parent="7cj05tstd-9p_z6Wy1r_-96" vertex="1">
          <mxGeometry x="33" width="21" height="24" as="geometry">
            <mxRectangle width="21" height="24" as="alternateBounds" />
          </mxGeometry>
        </mxCell>
        <mxCell id="7cj05tstd-9p_z6Wy1r_-99" value="" style="shape=partialRectangle;html=1;whiteSpace=wrap;connectable=0;fillColor=none;top=0;left=0;bottom=0;right=0;overflow=hidden;" parent="7cj05tstd-9p_z6Wy1r_-96" vertex="1">
          <mxGeometry x="54" width="46" height="24" as="geometry">
            <mxRectangle width="46" height="24" as="alternateBounds" />
          </mxGeometry>
        </mxCell>
        <mxCell id="7cj05tstd-9p_z6Wy1r_-100" value="" style="shape=tableRow;horizontal=0;startSize=0;swimlaneHead=0;swimlaneBody=0;top=0;left=0;bottom=0;right=0;collapsible=0;dropTarget=0;fillColor=none;points=[[0,0.5],[1,0.5]];portConstraint=eastwest;" parent="7cj05tstd-9p_z6Wy1r_-91" vertex="1" visible="0">
          <mxGeometry y="77" width="100" height="23" as="geometry" />
        </mxCell>
        <mxCell id="7cj05tstd-9p_z6Wy1r_-101" value="" style="shape=partialRectangle;html=1;whiteSpace=wrap;connectable=0;fillColor=none;top=0;left=0;bottom=0;right=0;overflow=hidden;" parent="7cj05tstd-9p_z6Wy1r_-100" vertex="1">
          <mxGeometry width="33" height="23" as="geometry">
            <mxRectangle width="33" height="23" as="alternateBounds" />
          </mxGeometry>
        </mxCell>
        <mxCell id="7cj05tstd-9p_z6Wy1r_-102" value="" style="shape=partialRectangle;html=1;whiteSpace=wrap;connectable=0;fillColor=none;top=0;left=0;bottom=0;right=0;overflow=hidden;" parent="7cj05tstd-9p_z6Wy1r_-100" vertex="1">
          <mxGeometry x="33" width="21" height="23" as="geometry">
            <mxRectangle width="21" height="23" as="alternateBounds" />
          </mxGeometry>
        </mxCell>
        <mxCell id="7cj05tstd-9p_z6Wy1r_-103" value="" style="shape=partialRectangle;html=1;whiteSpace=wrap;connectable=0;fillColor=none;top=0;left=0;bottom=0;right=0;overflow=hidden;" parent="7cj05tstd-9p_z6Wy1r_-100" vertex="1">
          <mxGeometry x="54" width="46" height="23" as="geometry">
            <mxRectangle width="46" height="23" as="alternateBounds" />
          </mxGeometry>
        </mxCell>
        <mxCell id="7cj05tstd-9p_z6Wy1r_-104" value="&lt;div&gt;&lt;font style=&quot;font-size: 13px&quot;&gt;Train HAI Team Model: &lt;br&gt;&lt;/font&gt;&lt;/div&gt;&lt;div&gt;&lt;font style=&quot;font-size: 13px&quot;&gt;p[y|x,h,p(a)]&lt;/font&gt;&lt;/div&gt;" style="rounded=1;whiteSpace=wrap;html=1;fontSize=10;fillColor=default;" parent="1" vertex="1">
          <mxGeometry x="738.5" y="720" width="207" height="55" as="geometry" />
        </mxCell>
        <mxCell id="7cj05tstd-9p_z6Wy1r_-105" value="&lt;b&gt;&lt;font style=&quot;font-size: 14px&quot;&gt;HAI Model Training Phase&lt;/font&gt;&lt;/b&gt;" style="text;html=1;align=center;verticalAlign=middle;resizable=0;points=[];autosize=1;strokeColor=none;fillColor=none;" parent="1" vertex="1">
          <mxGeometry x="745.5" y="691" width="190" height="20" as="geometry" />
        </mxCell>
        <mxCell id="7cj05tstd-9p_z6Wy1r_-106" value="&lt;b&gt;&lt;font style=&quot;font-size: 14px&quot;&gt;Discretion Training Phase&lt;/font&gt;&lt;/b&gt;" style="text;html=1;align=center;verticalAlign=middle;resizable=0;points=[];autosize=1;strokeColor=none;fillColor=none;" parent="1" vertex="1">
          <mxGeometry x="538.5" y="806" width="200" height="30" as="geometry" />
        </mxCell>
        <mxCell id="7cj05tstd-9p_z6Wy1r_-107" value="d" style="text;html=1;align=center;verticalAlign=middle;resizable=0;points=[];autosize=1;strokeColor=none;fillColor=none;fontSize=7;" parent="1" vertex="1">
          <mxGeometry x="368.5" y="783.5" width="20" height="10" as="geometry" />
        </mxCell>
        <mxCell id="7cj05tstd-9p_z6Wy1r_-108" value="&lt;font style=&quot;font-size: 10px&quot;&gt;Subset&lt;/font&gt;" style="text;html=1;align=center;verticalAlign=middle;resizable=0;points=[];autosize=1;strokeColor=none;fillColor=none;" parent="1" vertex="1">
          <mxGeometry x="423" y="766" width="50" height="20" as="geometry" />
        </mxCell>
        <mxCell id="7cj05tstd-9p_z6Wy1r_-109" value="" style="shape=actor;whiteSpace=wrap;html=1;fontSize=7;direction=east;fillColor=#f5f5f5;gradientColor=#b3b3b3;strokeColor=#666666;" parent="1" vertex="1">
          <mxGeometry x="552.5" y="379" width="42.5" height="56" as="geometry" />
        </mxCell>
        <mxCell id="7cj05tstd-9p_z6Wy1r_-110" value="" style="edgeStyle=orthogonalEdgeStyle;rounded=0;orthogonalLoop=1;jettySize=auto;html=1;" parent="1" source="7cj05tstd-9p_z6Wy1r_-111" target="7cj05tstd-9p_z6Wy1r_-118" edge="1">
          <mxGeometry relative="1" as="geometry" />
        </mxCell>
        <mxCell id="7cj05tstd-9p_z6Wy1r_-111" value="Covered by R&lt;sup&gt;+&lt;/sup&gt;?" style="rounded=1;whiteSpace=wrap;html=1;" parent="1" vertex="1">
          <mxGeometry x="175" y="279" width="140" height="50" as="geometry" />
        </mxCell>
        <mxCell id="7cj05tstd-9p_z6Wy1r_-112" value="" style="endArrow=classic;html=1;rounded=0;exitX=1;exitY=0.5;exitDx=0;exitDy=0;fillColor=#dae8fc;gradientColor=#7ea6e0;strokeColor=#6c8ebf;" parent="1" source="7cj05tstd-9p_z6Wy1r_-111" edge="1">
          <mxGeometry width="50" height="50" relative="1" as="geometry">
            <mxPoint x="525" y="399" as="sourcePoint" />
            <mxPoint x="385" y="304" as="targetPoint" />
          </mxGeometry>
        </mxCell>
        <mxCell id="7cj05tstd-9p_z6Wy1r_-113" value="Yes" style="edgeLabel;html=1;align=center;verticalAlign=middle;resizable=0;points=[];labelBackgroundColor=none;" parent="7cj05tstd-9p_z6Wy1r_-112" vertex="1" connectable="0">
          <mxGeometry x="0.3091" y="-1" relative="1" as="geometry">
            <mxPoint x="-31" y="-8" as="offset" />
          </mxGeometry>
        </mxCell>
        <mxCell id="7cj05tstd-9p_z6Wy1r_-114" value="Task Instance" style="rounded=0;whiteSpace=wrap;html=1;fillColor=#f5f5f5;gradientColor=#b3b3b3;strokeColor=#666666;" parent="1" vertex="1">
          <mxGeometry x="375" y="160" width="130" height="30" as="geometry" />
        </mxCell>
        <mxCell id="7cj05tstd-9p_z6Wy1r_-115" value="" style="endArrow=classic;html=1;rounded=0;exitX=0;exitY=0.5;exitDx=0;exitDy=0;entryX=0.5;entryY=0;entryDx=0;entryDy=0;" parent="1" source="7cj05tstd-9p_z6Wy1r_-114" target="7cj05tstd-9p_z6Wy1r_-111" edge="1">
          <mxGeometry width="50" height="50" relative="1" as="geometry">
            <mxPoint x="435" y="469" as="sourcePoint" />
            <mxPoint x="485" y="419" as="targetPoint" />
            <Array as="points">
              <mxPoint x="245" y="174" />
            </Array>
          </mxGeometry>
        </mxCell>
        <mxCell id="7cj05tstd-9p_z6Wy1r_-116" value="Recommend +" style="shape=cross;whiteSpace=wrap;html=1;fillColor=#d5e8d4;gradientColor=#97d077;strokeColor=#82b366;" parent="1" vertex="1">
          <mxGeometry x="385" y="259" width="90" height="85" as="geometry" />
        </mxCell>
        <mxCell id="7cj05tstd-9p_z6Wy1r_-117" value="" style="endArrow=classic;html=1;rounded=0;exitX=1;exitY=0.5;exitDx=0;exitDy=0;exitPerimeter=0;entryX=0;entryY=0.25;entryDx=0;entryDy=0;" parent="1" source="7cj05tstd-9p_z6Wy1r_-116" edge="1">
          <mxGeometry width="50" height="50" relative="1" as="geometry">
            <mxPoint x="425" y="359" as="sourcePoint" />
            <mxPoint x="515" y="301.625" as="targetPoint" />
          </mxGeometry>
        </mxCell>
        <mxCell id="7cj05tstd-9p_z6Wy1r_-118" value="Covered by R&lt;sup&gt;-&lt;/sup&gt;?" style="rounded=1;whiteSpace=wrap;html=1;" parent="1" vertex="1">
          <mxGeometry x="175" y="367" width="140" height="50" as="geometry" />
        </mxCell>
        <mxCell id="7cj05tstd-9p_z6Wy1r_-119" value="" style="endArrow=classic;html=1;rounded=0;exitX=0.5;exitY=1;exitDx=0;exitDy=0;entryX=0.5;entryY=0;entryDx=0;entryDy=0;fillColor=#f8cecc;gradientColor=#ea6b66;strokeColor=#b85450;" parent="1" source="7cj05tstd-9p_z6Wy1r_-111" target="7cj05tstd-9p_z6Wy1r_-118" edge="1">
          <mxGeometry width="50" height="50" relative="1" as="geometry">
            <mxPoint x="425" y="359" as="sourcePoint" />
            <mxPoint x="475" y="309" as="targetPoint" />
          </mxGeometry>
        </mxCell>
        <mxCell id="7cj05tstd-9p_z6Wy1r_-120" value="" style="endArrow=classic;html=1;rounded=0;exitX=1;exitY=0.5;exitDx=0;exitDy=0;fillColor=#dae8fc;gradientColor=#7ea6e0;strokeColor=#6c8ebf;" parent="1" source="7cj05tstd-9p_z6Wy1r_-118" edge="1">
          <mxGeometry width="50" height="50" relative="1" as="geometry">
            <mxPoint x="325" y="395.9999999999999" as="sourcePoint" />
            <mxPoint x="385" y="392" as="targetPoint" />
          </mxGeometry>
        </mxCell>
        <mxCell id="7cj05tstd-9p_z6Wy1r_-121" value="Yes" style="edgeLabel;html=1;align=center;verticalAlign=middle;resizable=0;points=[];labelBackgroundColor=none;" parent="7cj05tstd-9p_z6Wy1r_-120" vertex="1" connectable="0">
          <mxGeometry x="0.3091" y="-1" relative="1" as="geometry">
            <mxPoint x="-31" y="-9" as="offset" />
          </mxGeometry>
        </mxCell>
        <mxCell id="7cj05tstd-9p_z6Wy1r_-122" value="" style="endArrow=classic;html=1;rounded=0;exitX=0.5;exitY=1;exitDx=0;exitDy=0;fillColor=#f8cecc;gradientColor=#ea6b66;strokeColor=#b85450;entryX=0.5;entryY=0;entryDx=0;entryDy=0;entryPerimeter=0;" parent="1" source="7cj05tstd-9p_z6Wy1r_-118" target="7cj05tstd-9p_z6Wy1r_-123" edge="1">
          <mxGeometry x="-0.2414" width="50" height="50" relative="1" as="geometry">
            <mxPoint x="247" y="422.9999999999999" as="sourcePoint" />
            <mxPoint x="245" y="469" as="targetPoint" />
            <mxPoint as="offset" />
          </mxGeometry>
        </mxCell>
        <mxCell id="7cj05tstd-9p_z6Wy1r_-123" value="Do Nothing" style="verticalLabelPosition=bottom;verticalAlign=top;html=1;shape=mxgraph.basic.no_symbol;fillColor=#e51400;fontColor=#ffffff;strokeColor=#B20000;" parent="1" vertex="1">
          <mxGeometry x="220" y="475" width="50" height="50" as="geometry" />
        </mxCell>
        <mxCell id="7cj05tstd-9p_z6Wy1r_-124" value="No Recommendation" style="text;html=1;align=center;verticalAlign=middle;resizable=0;points=[];autosize=1;strokeColor=none;fillColor=none;fontColor=#000000;" parent="1" vertex="1">
          <mxGeometry x="175" y="520" width="140" height="30" as="geometry" />
        </mxCell>
        <mxCell id="7cj05tstd-9p_z6Wy1r_-125" value="Recommend -" style="rounded=0;whiteSpace=wrap;html=1;fillColor=#f8cecc;gradientColor=#ea6b66;strokeColor=#b85450;" parent="1" vertex="1">
          <mxGeometry x="385" y="381" width="90" height="20" as="geometry" />
        </mxCell>
        <mxCell id="7cj05tstd-9p_z6Wy1r_-126" value="&lt;div&gt;Initial Decision&lt;br&gt;&lt;/div&gt;&lt;div&gt;+&lt;/div&gt;&lt;div&gt;Algorithm Discretion&lt;br&gt;&lt;/div&gt;" style="ellipse;shape=cloud;whiteSpace=wrap;html=1;fontColor=#000000;" parent="1" vertex="1">
          <mxGeometry x="588" y="266" width="152.5" height="111" as="geometry" />
        </mxCell>
        <mxCell id="7cj05tstd-9p_z6Wy1r_-127" value="" style="ellipse;whiteSpace=wrap;html=1;aspect=fixed;fontColor=#000000;direction=south;" parent="1" vertex="1">
          <mxGeometry x="587" y="369" width="6" height="6" as="geometry" />
        </mxCell>
        <mxCell id="7cj05tstd-9p_z6Wy1r_-128" value="" style="ellipse;whiteSpace=wrap;html=1;aspect=fixed;fontColor=#000000;" parent="1" vertex="1">
          <mxGeometry x="600" y="357" width="10" height="10" as="geometry" />
        </mxCell>
        <mxCell id="7cj05tstd-9p_z6Wy1r_-129" value="" style="shape=flexArrow;endArrow=classic;html=1;rounded=0;fontColor=#000000;width=25;endSize=3.8249999999999997;exitX=1;exitY=0.5;exitDx=0;exitDy=0;fillColor=none;strokeColor=#b46504;" parent="1" edge="1">
          <mxGeometry width="50" height="50" relative="1" as="geometry">
            <mxPoint x="738.5" y="344.0000000000001" as="sourcePoint" />
            <mxPoint x="854" y="344" as="targetPoint" />
          </mxGeometry>
        </mxCell>
        <mxCell id="7cj05tstd-9p_z6Wy1r_-130" value="&lt;div&gt;Final Decision&lt;/div&gt;" style="edgeLabel;html=1;align=center;verticalAlign=middle;resizable=0;points=[];fontColor=#000000;labelBackgroundColor=none;" parent="7cj05tstd-9p_z6Wy1r_-129" vertex="1" connectable="0">
          <mxGeometry x="-0.0983" y="-4" relative="1" as="geometry">
            <mxPoint y="-3" as="offset" />
          </mxGeometry>
        </mxCell>
        <mxCell id="7cj05tstd-9p_z6Wy1r_-131" value="No" style="edgeLabel;html=1;align=center;verticalAlign=middle;resizable=0;points=[];labelBackgroundColor=none;" parent="1" vertex="1" connectable="0">
          <mxGeometry x="257.7142857142853" y="345" as="geometry">
            <mxPoint x="-3" y="1" as="offset" />
          </mxGeometry>
        </mxCell>
        <mxCell id="7cj05tstd-9p_z6Wy1r_-132" value="No" style="edgeLabel;html=1;align=center;verticalAlign=middle;resizable=0;points=[];labelBackgroundColor=none;" parent="1" vertex="1" connectable="0">
          <mxGeometry x="257.7142857142853" y="433" as="geometry">
            <mxPoint x="-3" y="1" as="offset" />
          </mxGeometry>
        </mxCell>
        <mxCell id="7cj05tstd-9p_z6Wy1r_-133" value="&lt;font style=&quot;font-size: 14px;&quot; face=&quot;Verdana&quot;&gt;TeamRules&lt;/font&gt;" style="text;html=1;align=center;verticalAlign=middle;resizable=0;points=[];autosize=1;strokeColor=none;fillColor=none;fontColor=#000000;" parent="1" vertex="1">
          <mxGeometry x="138" y="244" width="100" height="30" as="geometry" />
        </mxCell>
        <mxCell id="7cj05tstd-9p_z6Wy1r_-134" value="" style="endArrow=classic;html=1;rounded=0;exitX=1;exitY=0.5;exitDx=0;exitDy=0;exitPerimeter=0;entryX=0;entryY=0.25;entryDx=0;entryDy=0;" parent="1" edge="1">
          <mxGeometry width="50" height="50" relative="1" as="geometry">
            <mxPoint x="475.0000000000002" y="390.5" as="sourcePoint" />
            <mxPoint x="515.0000000000002" y="390.625" as="targetPoint" />
          </mxGeometry>
        </mxCell>
        <mxCell id="7cj05tstd-9p_z6Wy1r_-135" value="" style="endArrow=classic;html=1;rounded=0;labelBackgroundColor=none;fontFamily=Verdana;fontSize=14;fontColor=#000000;fillColor=none;exitX=1;exitY=0.5;exitDx=0;exitDy=0;" parent="1" source="7cj05tstd-9p_z6Wy1r_-114" target="7cj05tstd-9p_z6Wy1r_-1" edge="1">
          <mxGeometry width="50" height="50" relative="1" as="geometry">
            <mxPoint x="445" y="379" as="sourcePoint" />
            <mxPoint x="495" y="329" as="targetPoint" />
            <Array as="points">
              <mxPoint x="630" y="174" />
            </Array>
          </mxGeometry>
        </mxCell>
        <mxCell id="7cj05tstd-9p_z6Wy1r_-136" value="&lt;font style=&quot;font-size: 14px;&quot; face=&quot;Verdana&quot;&gt;Human Decision Maker&lt;br&gt;&lt;/font&gt;" style="text;html=1;align=center;verticalAlign=middle;resizable=0;points=[];autosize=1;strokeColor=none;fillColor=none;fontColor=#000000;" parent="1" vertex="1">
          <mxGeometry x="517.5" y="249" width="190" height="30" as="geometry" />
        </mxCell>
        <mxCell id="7cj05tstd-9p_z6Wy1r_-141" value="" style="whiteSpace=wrap;html=1;aspect=fixed;fontSize=13;fillColor=#f8cecc;strokeColor=#b85450;strokeWidth=2;rounded=1;gradientColor=#ea6b66;" parent="1" vertex="1">
          <mxGeometry x="2956" y="1878" width="700" height="700" as="geometry" />
        </mxCell>
        <mxCell id="7cj05tstd-9p_z6Wy1r_-142" value="&lt;font style=&quot;font-size: 65px;&quot;&gt;&lt;b&gt;&lt;font style=&quot;font-size: 65px;&quot;&gt;Human-Modeling&lt;br&gt;&lt;/font&gt;&lt;/b&gt;&lt;/font&gt;" style="text;html=1;align=center;verticalAlign=middle;resizable=0;points=[];autosize=1;strokeColor=none;fillColor=none;" parent="1" vertex="1">
          <mxGeometry x="3040" y="1938" width="550" height="90" as="geometry" />
        </mxCell>
        <mxCell id="7cj05tstd-9p_z6Wy1r_-143" value="&lt;div&gt;&lt;font style=&quot;font-size: 42px;&quot;&gt;Given X:&lt;/font&gt;&lt;/div&gt;&lt;div&gt;&lt;font style=&quot;font-size: 42px;&quot;&gt;Model Human Behavior&lt;br&gt;&lt;/font&gt;&lt;/div&gt;" style="rounded=1;whiteSpace=wrap;html=1;strokeWidth=3;" parent="1" vertex="1">
          <mxGeometry x="2990" y="2112" width="610" height="230" as="geometry" />
        </mxCell>
        <mxCell id="7cj05tstd-9p_z6Wy1r_-144" value="" style="whiteSpace=wrap;html=1;aspect=fixed;fontSize=13;strokeWidth=2;rounded=1;strokeColor=#FFFFFF;" parent="1" vertex="1">
          <mxGeometry x="1408" y="1900" width="722" height="722" as="geometry" />
        </mxCell>
        <mxCell id="7cj05tstd-9p_z6Wy1r_-138" value="" style="whiteSpace=wrap;html=1;aspect=fixed;fontSize=13;fillColor=#d5e8d4;strokeColor=#82b366;strokeWidth=2;rounded=1;gradientColor=#97d077;" parent="1" vertex="1">
          <mxGeometry x="1419" y="1877" width="700" height="700" as="geometry" />
        </mxCell>
        <mxCell id="7cj05tstd-9p_z6Wy1r_-139" value="&lt;font style=&quot;font-size: 65px;&quot;&gt;&lt;b&gt;&lt;font style=&quot;font-size: 65px;&quot;&gt;Learning to Advise&lt;br&gt;&lt;/font&gt;&lt;/b&gt;&lt;/font&gt;" style="text;html=1;align=center;verticalAlign=middle;resizable=0;points=[];autosize=1;strokeColor=none;fillColor=none;" parent="1" vertex="1">
          <mxGeometry x="1459" y="1937" width="610" height="90" as="geometry" />
        </mxCell>
        <mxCell id="7cj05tstd-9p_z6Wy1r_-140" value="&lt;div&gt;&lt;font style=&quot;font-size: 42px;&quot;&gt;Given Human Behavior and X:&lt;/font&gt;&lt;/div&gt;&lt;div&gt;&lt;font style=&quot;font-size: 42px;&quot;&gt;Train Advising Model&lt;br&gt;&lt;/font&gt;&lt;/div&gt;" style="rounded=1;whiteSpace=wrap;html=1;strokeWidth=3;" parent="1" vertex="1">
          <mxGeometry x="1459" y="2111" width="610" height="230" as="geometry" />
        </mxCell>
        <mxCell id="cRZGMACJkbLvTWC903yB-1" value="&lt;div style=&quot;font-size: 10px;&quot;&gt;&lt;font style=&quot;font-size: 10px;&quot;&gt;&lt;br&gt;&lt;/font&gt;&lt;/div&gt;&lt;div style=&quot;font-size: 10px;&quot;&gt;&lt;font style=&quot;font-size: 10px;&quot;&gt;&lt;br&gt;&lt;/font&gt;&lt;/div&gt;&lt;div style=&quot;font-size: 10px;&quot;&gt;&lt;font style=&quot;font-size: 10px;&quot;&gt;&lt;br&gt;&lt;/font&gt;&lt;/div&gt;&lt;div style=&quot;font-size: 10px;&quot;&gt;&lt;font style=&quot;font-size: 10px;&quot;&gt;&lt;br&gt;&lt;/font&gt;&lt;/div&gt;&lt;div style=&quot;font-size: 10px;&quot;&gt;&lt;font style=&quot;font-size: 10px;&quot;&gt;Doctor (Doc) 1&lt;br&gt;&lt;/font&gt;&lt;/div&gt;" style="shape=actor;whiteSpace=wrap;html=1;fontSize=7;fillColor=#f5f5f5;strokeColor=#666666;gradientColor=#b3b3b3;" parent="1" vertex="1">
          <mxGeometry x="1835" y="157.5" width="85" height="106" as="geometry" />
        </mxCell>
        <mxCell id="cRZGMACJkbLvTWC903yB-18" value="&lt;div align=&quot;left&quot;&gt;&lt;b&gt;Patient 3&lt;br&gt;&lt;/b&gt;&lt;/div&gt;&lt;div&gt;&lt;br&gt;&lt;/div&gt;&lt;div&gt;Age&lt;/div&gt;&lt;div&gt;Credit Score&lt;/div&gt;&lt;div&gt;Loan Amount&lt;/div&gt;&lt;div&gt;Annual Income&lt;/div&gt;&lt;div&gt;...&lt;/div&gt;&lt;div&gt;...&lt;/div&gt;&lt;div&gt;...&lt;br&gt;&lt;/div&gt;&lt;div&gt;&lt;br&gt;&lt;/div&gt;" style="shape=note;whiteSpace=wrap;html=1;backgroundOutline=1;darkOpacity=0.05;" parent="1" vertex="1">
          <mxGeometry x="1630" y="189.5" width="130" height="146" as="geometry" />
        </mxCell>
        <mxCell id="cRZGMACJkbLvTWC903yB-20" value="&lt;div align=&quot;left&quot;&gt;&lt;b&gt;Patient 2&lt;br&gt;&lt;/b&gt;&lt;/div&gt;&lt;div&gt;&lt;br&gt;&lt;/div&gt;&lt;div&gt;Age&lt;/div&gt;&lt;div&gt;Credit Score&lt;/div&gt;&lt;div&gt;Loan Amount&lt;/div&gt;&lt;div&gt;Annual Income&lt;/div&gt;&lt;div&gt;...&lt;/div&gt;&lt;div&gt;...&lt;/div&gt;&lt;div&gt;...&lt;br&gt;&lt;/div&gt;&lt;div&gt;&lt;br&gt;&lt;/div&gt;" style="shape=note;whiteSpace=wrap;html=1;backgroundOutline=1;darkOpacity=0.05;" parent="1" vertex="1">
          <mxGeometry x="1640" y="199.5" width="130" height="146" as="geometry" />
        </mxCell>
        <mxCell id="cRZGMACJkbLvTWC903yB-21" value="&lt;div align=&quot;left&quot;&gt;&lt;b&gt;Patient 1&lt;br&gt;&lt;/b&gt;&lt;/div&gt;&lt;div&gt;&lt;br&gt;&lt;/div&gt;&lt;div&gt;Age&lt;/div&gt;&lt;div&gt;Weight&lt;br&gt;&lt;/div&gt;&lt;div&gt;Height&lt;/div&gt;&lt;div&gt;Blood Pressure&lt;br&gt;&lt;/div&gt;&lt;div&gt;...&lt;/div&gt;&lt;div&gt;...&lt;/div&gt;&lt;div&gt;&lt;br&gt;&lt;/div&gt;&lt;div&gt;&lt;br&gt;&lt;/div&gt;" style="shape=note;whiteSpace=wrap;html=1;backgroundOutline=1;darkOpacity=0.05;" parent="1" vertex="1">
          <mxGeometry x="1650" y="209.5" width="130" height="146" as="geometry" />
        </mxCell>
        <mxCell id="cRZGMACJkbLvTWC903yB-23" value="" style="shape=flexArrow;endArrow=classic;html=1;rounded=0;fontSize=10;" parent="1" edge="1">
          <mxGeometry width="50" height="50" relative="1" as="geometry">
            <mxPoint x="1790" y="228.5" as="sourcePoint" />
            <mxPoint x="1835" y="228.5" as="targetPoint" />
          </mxGeometry>
        </mxCell>
        <mxCell id="cRZGMACJkbLvTWC903yB-26" value="&lt;div align=&quot;left&quot;&gt;&lt;b&gt;&amp;nbsp;&amp;nbsp;&amp;nbsp; Patient 3&lt;br&gt;&lt;/b&gt;&lt;/div&gt;&lt;div&gt;&lt;br&gt;&lt;/div&gt;&lt;div&gt;Age&lt;/div&gt;&lt;div&gt;Credit Score&lt;/div&gt;&lt;div&gt;...&lt;br&gt;&lt;/div&gt;&lt;div&gt;&lt;font style=&quot;font-size: 8px;&quot;&gt;Doc 1 Initial Decision: &lt;font color=&quot;#00cc00&quot;&gt;No Disease&lt;br&gt;&lt;/font&gt;&lt;/font&gt;&lt;/div&gt;&lt;div&gt;&lt;font style=&quot;font-size: 8px;&quot;&gt;Doc 1 Confidence: 0.7&lt;/font&gt;&lt;/div&gt;&lt;div&gt;&lt;font style=&quot;font-size: 8px;&quot;&gt;AI Recommendation: &lt;font color=&quot;#ff3333&quot;&gt;Has Disease&lt;br&gt;&lt;/font&gt;&lt;/font&gt;&lt;/div&gt;&lt;div&gt;&lt;font style=&quot;font-size: 8px;&quot;&gt;Doc 1 Final Decision: &lt;/font&gt;&lt;font style=&quot;font-size: 8px;&quot;&gt;&lt;font color=&quot;#ff3333&quot;&gt;Has Disease&lt;br&gt;&lt;/font&gt;&lt;/font&gt;&lt;/div&gt;&lt;div&gt;&lt;br&gt;&lt;/div&gt;" style="shape=note;whiteSpace=wrap;html=1;backgroundOutline=1;darkOpacity=0.05;" parent="1" vertex="1">
          <mxGeometry x="1990" y="194.5" width="129" height="146" as="geometry" />
        </mxCell>
        <mxCell id="cRZGMACJkbLvTWC903yB-28" value="" style="shape=flexArrow;endArrow=classic;html=1;rounded=0;fontSize=10;" parent="1" edge="1">
          <mxGeometry width="50" height="50" relative="1" as="geometry">
            <mxPoint x="1923" y="228" as="sourcePoint" />
            <mxPoint x="1968" y="228" as="targetPoint" />
          </mxGeometry>
        </mxCell>
        <mxCell id="cRZGMACJkbLvTWC903yB-166" value="" style="rounded=1;whiteSpace=wrap;html=1;fontSize=10;fillColor=#f5f5f5;strokeColor=#666666;gradientColor=#b3b3b3;" parent="1" vertex="1">
          <mxGeometry x="1852.5" y="275.5" width="50" height="29" as="geometry" />
        </mxCell>
        <mxCell id="cRZGMACJkbLvTWC903yB-167" value="AI" style="rounded=1;whiteSpace=wrap;html=1;fontSize=10;fillColor=#f5f5f5;strokeColor=#666666;gradientColor=#b3b3b3;" parent="1" vertex="1">
          <mxGeometry x="1842.5" y="308" width="70" height="57.5" as="geometry" />
        </mxCell>
        <mxCell id="cRZGMACJkbLvTWC903yB-168" value="" style="shape=flexArrow;endArrow=classic;html=1;rounded=0;fontSize=10;" parent="1" edge="1">
          <mxGeometry width="50" height="50" relative="1" as="geometry">
            <mxPoint x="1790" y="313.5" as="sourcePoint" />
            <mxPoint x="1835" y="313.5" as="targetPoint" />
          </mxGeometry>
        </mxCell>
        <mxCell id="cRZGMACJkbLvTWC903yB-169" value="" style="shape=flexArrow;endArrow=classic;html=1;rounded=0;fontSize=10;" parent="1" edge="1">
          <mxGeometry width="50" height="50" relative="1" as="geometry">
            <mxPoint x="1923" y="313" as="sourcePoint" />
            <mxPoint x="1968" y="313" as="targetPoint" />
          </mxGeometry>
        </mxCell>
        <mxCell id="cRZGMACJkbLvTWC903yB-171" value="&lt;div style=&quot;font-size: 30px;&quot;&gt;&lt;font style=&quot;font-size: 30px;&quot;&gt;Human Modeling&lt;/font&gt;&lt;/div&gt;&lt;div style=&quot;font-size: 30px;&quot;&gt;&lt;font style=&quot;font-size: 30px;&quot;&gt;&lt;br&gt;&lt;/font&gt;&lt;/div&gt;&lt;div style=&quot;font-size: 30px;&quot;&gt;&lt;font style=&quot;font-size: 30px;&quot;&gt;&lt;br&gt;&lt;/font&gt;&lt;/div&gt;&lt;div style=&quot;font-size: 30px;&quot;&gt;&lt;font style=&quot;font-size: 30px;&quot;&gt;&lt;br&gt;&lt;/font&gt;&lt;/div&gt;&lt;div style=&quot;font-size: 30px;&quot;&gt;&lt;font style=&quot;font-size: 30px;&quot;&gt;&lt;br&gt;&lt;/font&gt;&lt;/div&gt;&lt;div style=&quot;font-size: 30px;&quot;&gt;&lt;font style=&quot;font-size: 30px;&quot;&gt;&lt;br&gt;&lt;/font&gt;&lt;/div&gt;&lt;div style=&quot;font-size: 30px;&quot;&gt;&lt;font style=&quot;font-size: 30px;&quot;&gt;&lt;br&gt;&lt;/font&gt;&lt;/div&gt;&lt;div style=&quot;font-size: 30px;&quot;&gt;&lt;font style=&quot;font-size: 30px;&quot;&gt;&lt;br&gt;&lt;/font&gt;&lt;/div&gt;&lt;div style=&quot;font-size: 30px;&quot;&gt;&lt;font style=&quot;font-size: 30px;&quot;&gt;&lt;br&gt;&lt;/font&gt;&lt;/div&gt;&lt;div style=&quot;font-size: 30px;&quot;&gt;&lt;font style=&quot;font-size: 30px;&quot;&gt;&lt;br&gt;&lt;/font&gt;&lt;/div&gt;" style="rounded=1;whiteSpace=wrap;html=1;fontSize=10;fontColor=#000000;" parent="1" vertex="1">
          <mxGeometry x="2250" y="137.5" width="390" height="250" as="geometry" />
        </mxCell>
        <mxCell id="cRZGMACJkbLvTWC903yB-172" value="" style="shape=flexArrow;endArrow=classic;html=1;rounded=0;fontSize=10;fontColor=#000000;width=14.666666666666666;endSize=2.8533333333333335;" parent="1" edge="1">
          <mxGeometry width="50" height="50" relative="1" as="geometry">
            <mxPoint x="2170" y="267.83" as="sourcePoint" />
            <mxPoint x="2234" y="267.83" as="targetPoint" />
          </mxGeometry>
        </mxCell>
        <mxCell id="cRZGMACJkbLvTWC903yB-174" value="&lt;font style=&quot;font-size: 15px;&quot;&gt;Doc 1 Discretion Model&lt;/font&gt;" style="shape=delay;whiteSpace=wrap;html=1;fontSize=10;fontColor=#000000;" parent="1" vertex="1">
          <mxGeometry x="2426.5" y="296.5" width="105" height="61" as="geometry" />
        </mxCell>
        <mxCell id="cRZGMACJkbLvTWC903yB-175" value="&lt;b&gt;Input&lt;/b&gt;" style="text;html=1;strokeColor=none;fillColor=none;align=center;verticalAlign=middle;whiteSpace=wrap;rounded=0;fontSize=15;fontColor=#000000;" parent="1" vertex="1">
          <mxGeometry x="2300" y="261.5" width="60" height="30" as="geometry" />
        </mxCell>
        <mxCell id="cRZGMACJkbLvTWC903yB-176" value="&lt;ul&gt;&lt;li&gt;Feature Values \(X\)&lt;/li&gt;&lt;li&gt;Confidence Vector \(C\)&lt;br&gt;&lt;/li&gt;&lt;/ul&gt;" style="text;html=1;strokeColor=none;fillColor=none;align=center;verticalAlign=middle;whiteSpace=wrap;rounded=0;fontSize=15;fontColor=#000000;" parent="1" vertex="1">
          <mxGeometry x="2228" y="315.5" width="182" height="27" as="geometry" />
        </mxCell>
        <mxCell id="cRZGMACJkbLvTWC903yB-177" value="&lt;b&gt;Output&lt;/b&gt;" style="text;html=1;strokeColor=none;fillColor=none;align=center;verticalAlign=middle;whiteSpace=wrap;rounded=0;fontSize=15;fontColor=#000000;" parent="1" vertex="1">
          <mxGeometry x="2556" y="261.5" width="60" height="30" as="geometry" />
        </mxCell>
        <mxCell id="cRZGMACJkbLvTWC903yB-178" value="&lt;div&gt;Doc 1&lt;/div&gt;&lt;div&gt;\(p(a | x, c)\)&lt;/div&gt;" style="text;html=1;strokeColor=none;fillColor=none;align=center;verticalAlign=middle;whiteSpace=wrap;rounded=0;fontSize=15;fontColor=#000000;" parent="1" vertex="1">
          <mxGeometry x="2546" y="310.5" width="80" height="37" as="geometry" />
        </mxCell>
        <mxCell id="cRZGMACJkbLvTWC903yB-180" value="" style="shape=flexArrow;endArrow=classic;html=1;rounded=0;fontSize=10;fontColor=#000000;width=14.666666666666666;endSize=2.8533333333333335;" parent="1" edge="1">
          <mxGeometry width="50" height="50" relative="1" as="geometry">
            <mxPoint x="2650" y="267.8299999999999" as="sourcePoint" />
            <mxPoint x="2714" y="267.8299999999999" as="targetPoint" />
          </mxGeometry>
        </mxCell>
        <mxCell id="cRZGMACJkbLvTWC903yB-181" value="&lt;div style=&quot;font-size: 30px;&quot;&gt;Learning to Advise&lt;/div&gt;&lt;div style=&quot;font-size: 30px;&quot;&gt;&lt;br&gt;&lt;/div&gt;&lt;div&gt;&lt;br&gt;&lt;/div&gt;&lt;div&gt;&lt;br&gt;&lt;/div&gt;&lt;div&gt;&lt;br&gt;&lt;/div&gt;&lt;div&gt;&lt;br&gt;&lt;/div&gt;&lt;div&gt;&lt;br&gt;&lt;/div&gt;&lt;div&gt;&lt;br&gt;&lt;/div&gt;&lt;div&gt;&lt;br&gt;&lt;/div&gt;&lt;div&gt;&lt;br&gt;&lt;/div&gt;&lt;div&gt;&lt;br&gt;&lt;/div&gt;&lt;div&gt;&lt;br&gt;&lt;/div&gt;&lt;div&gt;&lt;br&gt;&lt;/div&gt;&lt;div&gt;&lt;br&gt;&lt;/div&gt;&lt;div&gt;&lt;br&gt;&lt;/div&gt;&lt;div&gt;&lt;br&gt;&lt;/div&gt;&lt;div&gt;&lt;br&gt;&lt;/div&gt;&lt;div&gt;&lt;br&gt;&lt;/div&gt;&lt;div&gt;&lt;br&gt;&lt;/div&gt;&lt;div&gt;&lt;br&gt;&lt;/div&gt;&lt;div&gt;&lt;br&gt;&lt;/div&gt;&lt;div&gt;&lt;br&gt;&lt;/div&gt;&lt;div&gt;&lt;br&gt;&lt;/div&gt;&lt;div&gt;&lt;br&gt;&lt;/div&gt;&lt;div&gt;&lt;br&gt;&lt;/div&gt;&lt;div&gt;&lt;br&gt;&lt;/div&gt;&lt;div&gt;&lt;br&gt;&lt;/div&gt;&lt;div&gt;&lt;br&gt;&lt;/div&gt;" style="rounded=1;whiteSpace=wrap;html=1;fontSize=10;fontColor=#000000;" parent="1" vertex="1">
          <mxGeometry x="2730" y="143.5" width="390" height="250" as="geometry" />
        </mxCell>
        <mxCell id="cRZGMACJkbLvTWC903yB-183" value="" style="rounded=1;whiteSpace=wrap;html=1;fontSize=10;fillColor=#f5f5f5;strokeColor=#666666;gradientColor=#b3b3b3;" parent="1" vertex="1">
          <mxGeometry x="2900" y="217" width="50" height="29" as="geometry" />
        </mxCell>
        <mxCell id="cRZGMACJkbLvTWC903yB-184" value="AI" style="rounded=1;whiteSpace=wrap;html=1;fontSize=10;fillColor=#f5f5f5;strokeColor=#666666;gradientColor=#b3b3b3;" parent="1" vertex="1">
          <mxGeometry x="2890" y="249.5" width="70" height="57.5" as="geometry" />
        </mxCell>
        <mxCell id="cRZGMACJkbLvTWC903yB-185" value="&lt;b&gt;Input&lt;/b&gt;" style="text;html=1;strokeColor=none;fillColor=none;align=center;verticalAlign=middle;whiteSpace=wrap;rounded=0;fontSize=15;fontColor=#000000;" parent="1" vertex="1">
          <mxGeometry x="2790" y="207.5" width="60" height="30" as="geometry" />
        </mxCell>
        <mxCell id="cRZGMACJkbLvTWC903yB-186" value="&lt;ul&gt;&lt;li&gt;Feature Values \(X\)&lt;/li&gt;&lt;li&gt;Doc 1 Decision History \(H\)&lt;/li&gt;&lt;li&gt;Doc 1 \(p(a | x, c)\)&lt;br&gt;&lt;/li&gt;&lt;/ul&gt;" style="text;html=1;strokeColor=none;fillColor=none;align=center;verticalAlign=middle;whiteSpace=wrap;rounded=0;fontSize=15;fontColor=#000000;" parent="1" vertex="1">
          <mxGeometry x="2708" y="261" width="182" height="27" as="geometry" />
        </mxCell>
        <mxCell id="cRZGMACJkbLvTWC903yB-187" value="&lt;b&gt;Output&lt;/b&gt;" style="text;html=1;strokeColor=none;fillColor=none;align=center;verticalAlign=middle;whiteSpace=wrap;rounded=0;fontSize=15;fontColor=#000000;" parent="1" vertex="1">
          <mxGeometry x="2999" y="207.5" width="60" height="30" as="geometry" />
        </mxCell>
        <mxCell id="cRZGMACJkbLvTWC903yB-188" value="&lt;div&gt;Diagnosis Recommendation: &lt;br&gt;&lt;/div&gt;&lt;div&gt;\(\hat{Y}\)&lt;/div&gt;" style="text;html=1;strokeColor=none;fillColor=none;align=center;verticalAlign=middle;whiteSpace=wrap;rounded=0;fontSize=15;fontColor=#000000;" parent="1" vertex="1">
          <mxGeometry x="2993" y="256.5" width="80" height="37" as="geometry" />
        </mxCell>
        <mxCell id="x64TNAXHmk-uSslNR3HU-1" value="&lt;div align=&quot;left&quot;&gt;&lt;b&gt;&amp;nbsp;&amp;nbsp;&amp;nbsp; Patient 2&lt;br&gt;&lt;/b&gt;&lt;/div&gt;&lt;div&gt;&lt;br&gt;&lt;/div&gt;&lt;div&gt;Age&lt;/div&gt;&lt;div&gt;Credit Score&lt;/div&gt;&lt;div&gt;...&lt;br&gt;&lt;/div&gt;&lt;div&gt;&lt;font style=&quot;font-size: 8px;&quot;&gt;Doc 1 Initial Decision: &lt;font color=&quot;#00cc00&quot;&gt;No Disease&lt;br&gt;&lt;/font&gt;&lt;/font&gt;&lt;/div&gt;&lt;div&gt;&lt;font style=&quot;font-size: 8px;&quot;&gt;Doc 1 Confidence: 0.7&lt;/font&gt;&lt;/div&gt;&lt;div&gt;&lt;font style=&quot;font-size: 8px;&quot;&gt;AI Recommendation: &lt;font color=&quot;#ff3333&quot;&gt;Has Disease&lt;br&gt;&lt;/font&gt;&lt;/font&gt;&lt;/div&gt;&lt;div&gt;&lt;font style=&quot;font-size: 8px;&quot;&gt;Doc 1 Final Decision: &lt;/font&gt;&lt;font style=&quot;font-size: 8px;&quot;&gt;&lt;font color=&quot;#ff3333&quot;&gt;Has Disease&lt;br&gt;&lt;/font&gt;&lt;/font&gt;&lt;/div&gt;&lt;div&gt;&lt;br&gt;&lt;/div&gt;" style="shape=note;whiteSpace=wrap;html=1;backgroundOutline=1;darkOpacity=0.05;" parent="1" vertex="1">
          <mxGeometry x="2000" y="204.5" width="129" height="146" as="geometry" />
        </mxCell>
        <mxCell id="x64TNAXHmk-uSslNR3HU-2" value="&lt;div align=&quot;left&quot;&gt;&lt;b&gt;&amp;nbsp;&amp;nbsp;&amp;nbsp; Patient 1&lt;br&gt;&lt;/b&gt;&lt;/div&gt;&lt;div&gt;&lt;br&gt;&lt;/div&gt;&lt;div&gt;Age&lt;br&gt;&lt;/div&gt;&lt;div&gt;Weight&lt;/div&gt;&lt;div&gt;...&lt;br&gt;&lt;/div&gt;&lt;div&gt;&lt;font style=&quot;font-size: 8px;&quot;&gt;Doc 1 Initial Decision: &lt;font color=&quot;#00cc00&quot;&gt;No Disease&lt;br&gt;&lt;/font&gt;&lt;/font&gt;&lt;/div&gt;&lt;div&gt;&lt;font style=&quot;font-size: 8px;&quot;&gt;Doc 1 Confidence: 0.7&lt;/font&gt;&lt;/div&gt;&lt;div&gt;&lt;font style=&quot;font-size: 8px;&quot;&gt;AI Recommendation: &lt;font color=&quot;#ff3333&quot;&gt;Has Disease&lt;br&gt;&lt;/font&gt;&lt;/font&gt;&lt;/div&gt;&lt;div&gt;&lt;font style=&quot;font-size: 8px;&quot;&gt;Doc 1 Final Decision: &lt;/font&gt;&lt;font style=&quot;font-size: 8px;&quot;&gt;&lt;font color=&quot;#ff3333&quot;&gt;Has Disease&lt;br&gt;&lt;/font&gt;&lt;/font&gt;&lt;/div&gt;&lt;div&gt;&lt;br&gt;&lt;/div&gt;" style="shape=note;whiteSpace=wrap;html=1;backgroundOutline=1;darkOpacity=0.05;" parent="1" vertex="1">
          <mxGeometry x="2010" y="214.5" width="129" height="146" as="geometry" />
        </mxCell>
        <mxCell id="x64TNAXHmk-uSslNR3HU-12" value="" style="shape=curlyBracket;whiteSpace=wrap;html=1;rounded=1;flipH=1;labelPosition=right;verticalLabelPosition=middle;align=left;verticalAlign=middle;rotation=-90;" parent="1" vertex="1">
          <mxGeometry x="1790" y="386.5" width="20" height="301" as="geometry" />
        </mxCell>
        <mxCell id="x64TNAXHmk-uSslNR3HU-13" value="&lt;font style=&quot;font-size: 25px;&quot;&gt;\(X\)&lt;/font&gt;" style="text;html=1;strokeColor=none;fillColor=none;align=center;verticalAlign=middle;whiteSpace=wrap;rounded=0;" parent="1" vertex="1">
          <mxGeometry x="1770" y="487" width="60" height="30" as="geometry" />
        </mxCell>
        <mxCell id="x64TNAXHmk-uSslNR3HU-14" value="" style="shape=curlyBracket;whiteSpace=wrap;html=1;rounded=1;flipH=1;labelPosition=right;verticalLabelPosition=middle;align=left;verticalAlign=middle;rotation=-90;" parent="1" vertex="1">
          <mxGeometry x="2060" y="461.5" width="20" height="156" as="geometry" />
        </mxCell>
        <mxCell id="x64TNAXHmk-uSslNR3HU-15" value="&lt;font style=&quot;font-size: 25px;&quot;&gt;\(H\)&lt;/font&gt;" style="text;html=1;strokeColor=none;fillColor=none;align=center;verticalAlign=middle;whiteSpace=wrap;rounded=0;" parent="1" vertex="1">
          <mxGeometry x="2041.5" y="491.5" width="60" height="30" as="geometry" />
        </mxCell>
        <mxCell id="x64TNAXHmk-uSslNR3HU-16" value="" style="shape=curlyBracket;whiteSpace=wrap;html=1;rounded=1;flipH=1;labelPosition=right;verticalLabelPosition=middle;align=left;verticalAlign=middle;rotation=-90;" parent="1" vertex="1">
          <mxGeometry x="2248" y="462" width="20" height="156" as="geometry" />
        </mxCell>
        <mxCell id="x64TNAXHmk-uSslNR3HU-17" value="&lt;font style=&quot;font-size: 25px;&quot;&gt;\(C\)&lt;/font&gt;" style="text;html=1;strokeColor=none;fillColor=none;align=center;verticalAlign=middle;whiteSpace=wrap;rounded=0;" parent="1" vertex="1">
          <mxGeometry x="2229.5" y="492" width="60" height="30" as="geometry" />
        </mxCell>
        <mxCell id="x64TNAXHmk-uSslNR3HU-19" value="" style="shape=curlyBracket;whiteSpace=wrap;html=1;rounded=1;flipH=1;labelPosition=right;verticalLabelPosition=middle;align=left;verticalAlign=middle;rotation=-90;" parent="1" vertex="1">
          <mxGeometry x="2818.5" y="450.5" width="20" height="156" as="geometry" />
        </mxCell>
        <mxCell id="x64TNAXHmk-uSslNR3HU-20" value="&lt;font style=&quot;font-size: 25px;&quot;&gt;\(A\)&lt;/font&gt;" style="text;html=1;strokeColor=none;fillColor=none;align=center;verticalAlign=middle;whiteSpace=wrap;rounded=0;" parent="1" vertex="1">
          <mxGeometry x="2800" y="480.5" width="60" height="30" as="geometry" />
        </mxCell>
        <mxCell id="x64TNAXHmk-uSslNR3HU-23" value="" style="shape=curlyBracket;whiteSpace=wrap;html=1;rounded=1;flipH=1;labelPosition=right;verticalLabelPosition=middle;align=left;verticalAlign=middle;rotation=-90;" parent="1" vertex="1">
          <mxGeometry x="2980.5" y="419.5" width="20" height="126" as="geometry" />
        </mxCell>
        <mxCell id="x64TNAXHmk-uSslNR3HU-24" value="&lt;font style=&quot;font-size: 25px;&quot;&gt;\(p(a|x, c)\)&lt;/font&gt;" style="text;html=1;strokeColor=none;fillColor=none;align=center;verticalAlign=middle;whiteSpace=wrap;rounded=0;" parent="1" vertex="1">
          <mxGeometry x="2965" y="434.5" width="60" height="30" as="geometry" />
        </mxCell>
        <mxCell id="x64TNAXHmk-uSslNR3HU-26" value="" style="shape=curlyBracket;whiteSpace=wrap;html=1;rounded=1;flipH=1;labelPosition=right;verticalLabelPosition=middle;align=left;verticalAlign=middle;rotation=-90;" parent="1" vertex="1">
          <mxGeometry x="2433" y="462" width="20" height="156" as="geometry" />
        </mxCell>
        <mxCell id="x64TNAXHmk-uSslNR3HU-27" value="&lt;font style=&quot;font-size: 25px;&quot;&gt;\(\hat{Y}\)&lt;/font&gt;" style="text;html=1;strokeColor=none;fillColor=none;align=center;verticalAlign=middle;whiteSpace=wrap;rounded=0;" parent="1" vertex="1">
          <mxGeometry x="2414.5" y="492" width="60" height="30" as="geometry" />
        </mxCell>
        <mxCell id="x64TNAXHmk-uSslNR3HU-29" value="" style="shape=curlyBracket;whiteSpace=wrap;html=1;rounded=1;labelPosition=left;verticalLabelPosition=middle;align=right;verticalAlign=middle;" parent="1" vertex="1">
          <mxGeometry x="1480" y="582" width="20" height="108" as="geometry" />
        </mxCell>
        <mxCell id="x64TNAXHmk-uSslNR3HU-30" value="&lt;font style=&quot;font-size: 24px;&quot;&gt;Data From Human Interaction&lt;/font&gt;" style="text;html=1;strokeColor=none;fillColor=none;align=center;verticalAlign=middle;whiteSpace=wrap;rounded=0;" parent="1" vertex="1">
          <mxGeometry x="1250" y="621" width="200" height="30" as="geometry" />
        </mxCell>
        <mxCell id="x64TNAXHmk-uSslNR3HU-31" value="" style="shape=curlyBracket;whiteSpace=wrap;html=1;rounded=1;labelPosition=left;verticalLabelPosition=middle;align=right;verticalAlign=middle;" parent="1" vertex="1">
          <mxGeometry x="1480" y="692" width="20" height="78" as="geometry" />
        </mxCell>
        <mxCell id="x64TNAXHmk-uSslNR3HU-32" value="&lt;font style=&quot;font-size: 24px;&quot;&gt;Data Used to Train Advising Model&lt;br&gt;&lt;/font&gt;" style="text;html=1;strokeColor=none;fillColor=none;align=center;verticalAlign=middle;whiteSpace=wrap;rounded=0;" parent="1" vertex="1">
          <mxGeometry x="1227" y="713" width="250" height="30" as="geometry" />
        </mxCell>
        <mxCell id="x64TNAXHmk-uSslNR3HU-33" value="" style="shape=curlyBracket;whiteSpace=wrap;html=1;rounded=1;labelPosition=left;verticalLabelPosition=middle;align=right;verticalAlign=middle;" parent="1" vertex="1">
          <mxGeometry x="1480" y="769.5" width="20" height="90.5" as="geometry" />
        </mxCell>
        <mxCell id="x64TNAXHmk-uSslNR3HU-34" value="&lt;div&gt;&lt;font style=&quot;font-size: 24px;&quot;&gt;Deployment &lt;br&gt;&lt;/font&gt;&lt;/div&gt;&lt;div&gt;&lt;font style=&quot;font-size: 24px;&quot;&gt;(Human Interaction)&lt;/font&gt;&lt;/div&gt;" style="text;html=1;strokeColor=none;fillColor=none;align=center;verticalAlign=middle;whiteSpace=wrap;rounded=0;" parent="1" vertex="1">
          <mxGeometry x="1220" y="797.5" width="256" height="30" as="geometry" />
        </mxCell>
        <mxCell id="BMU4RvW-ik9AO_Y7NfyE-1" value="" style="shape=curlyBracket;whiteSpace=wrap;html=1;rounded=1;flipH=1;labelPosition=right;verticalLabelPosition=middle;align=left;verticalAlign=middle;rotation=-90;" parent="1" vertex="1">
          <mxGeometry x="3127.75" y="463.25" width="20" height="107.5" as="geometry" />
        </mxCell>
        <mxCell id="BMU4RvW-ik9AO_Y7NfyE-2" value="&lt;font style=&quot;font-size: 25px;&quot;&gt;\(Y\)&lt;/font&gt;" style="text;html=1;strokeColor=none;fillColor=none;align=center;verticalAlign=middle;whiteSpace=wrap;rounded=0;" parent="1" vertex="1">
          <mxGeometry x="3110" y="474" width="60" height="30" as="geometry" />
        </mxCell>
        <mxCell id="BMU4RvW-ik9AO_Y7NfyE-3" value="&lt;div&gt;&lt;font style=&quot;font-size: 15px;&quot;&gt;Doc 1 &lt;br&gt;&lt;/font&gt;&lt;/div&gt;&lt;div&gt;&lt;font style=&quot;font-size: 15px;&quot;&gt;Confidence&lt;/font&gt;&lt;/div&gt;&lt;div&gt;&lt;font style=&quot;font-size: 15px;&quot;&gt;Model&lt;br&gt;&lt;/font&gt;&lt;/div&gt;" style="shape=delay;whiteSpace=wrap;html=1;fontSize=10;fontColor=#000000;" parent="1" vertex="1">
          <mxGeometry x="2426.5" y="191.5" width="105" height="61" as="geometry" />
        </mxCell>
        <mxCell id="BMU4RvW-ik9AO_Y7NfyE-4" value="&lt;b&gt;Input&lt;/b&gt;" style="text;html=1;strokeColor=none;fillColor=none;align=center;verticalAlign=middle;whiteSpace=wrap;rounded=0;fontSize=15;fontColor=#000000;" parent="1" vertex="1">
          <mxGeometry x="2300" y="156.5" width="60" height="30" as="geometry" />
        </mxCell>
        <mxCell id="BMU4RvW-ik9AO_Y7NfyE-5" value="&lt;ul&gt;&lt;li&gt;Feature Values \(X\)&lt;/li&gt;&lt;/ul&gt;" style="text;html=1;strokeColor=none;fillColor=none;align=center;verticalAlign=middle;whiteSpace=wrap;rounded=0;fontSize=15;fontColor=#000000;" parent="1" vertex="1">
          <mxGeometry x="2228" y="210.5" width="182" height="27" as="geometry" />
        </mxCell>
        <mxCell id="BMU4RvW-ik9AO_Y7NfyE-6" value="&lt;b&gt;Output&lt;/b&gt;" style="text;html=1;strokeColor=none;fillColor=none;align=center;verticalAlign=middle;whiteSpace=wrap;rounded=0;fontSize=15;fontColor=#000000;" parent="1" vertex="1">
          <mxGeometry x="2556" y="156.5" width="60" height="30" as="geometry" />
        </mxCell>
        <mxCell id="BMU4RvW-ik9AO_Y7NfyE-7" value="&lt;div&gt;Doc 1&lt;/div&gt;&lt;div&gt;\(p(c | x)\)&lt;/div&gt;" style="text;html=1;strokeColor=none;fillColor=none;align=center;verticalAlign=middle;whiteSpace=wrap;rounded=0;fontSize=15;fontColor=#000000;" parent="1" vertex="1">
          <mxGeometry x="2546" y="205.5" width="80" height="37" as="geometry" />
        </mxCell>
      </root>
    </mxGraphModel>
  </diagram>
</mxfile>
